CourierPrime-BoldItalic.ufo
<glyph name="exclam" format="1">
  <advance width="1228"/>
  <unicode hex="0021"/>
  <outline>
    <contour>
      <point x="632" y="1209" type="line" smooth="yes"/>
      <point x="602" y="1209"/>
      <point x="584" y="1194"/>
      <point x="582" y="1159" type="curve" smooth="yes"/>
      <point x="553" y="582" type="line" smooth="yes"/>
      <point x="550" y="531"/>
      <point x="580" y="504"/>
      <point x="632" y="504" type="curve" smooth="yes"/>
      <point x="684" y="504"/>
      <point x="724" y="531"/>
      <point x="739" y="582" type="curve" smooth="yes"/>
      <point x="914" y="1159" type="line" smooth="yes"/>
      <point x="924" y="1194"/>
      <point x="912" y="1209"/>
      <point x="882" y="1209" type="curve" smooth="yes"/>
    </contour>
    <contour>
      <point x="501" y="357"/>
      <point x="398" y="266"/>
      <point x="398" y="145" type="curve" smooth="yes"/>
      <point x="398" y="54"/>
      <point x="467" y="-22"/>
      <point x="564" y="-22" type="curve" smooth="yes"/>
      <point x="677" y="-22"/>
      <point x="779" y="70"/>
      <point x="779" y="191" type="curve" smooth="yes"/>
      <point x="779" y="282"/>
      <point x="709" y="357"/>
      <point x="613" y="357" type="curve" smooth="yes"/>
    </contour>
  </outline>
</glyph>
<glyph name="quotedbl" format="1">
  <advance width="1228"/>
  <unicode hex="0022"/>
  <outline>
    <contour>
      <point x="402" y="1209" type="line" smooth="yes"/>
      <point x="372" y="1209"/>
      <point x="353" y="1194"/>
      <point x="352" y="1159" type="curve" smooth="yes"/>
      <point x="340" y="679" type="line" smooth="yes"/>
      <point x="339" y="638"/>
      <point x="356" y="611"/>
      <point x="421" y="611" type="curve" smooth="yes"/>
      <point x="486" y="611"/>
      <point x="513" y="638"/>
      <point x="526" y="679" type="curve" smooth="yes"/>
      <point x="684" y="1159" type="line" smooth="yes"/>
      <point x="695" y="1194"/>
      <point x="682" y="1209"/>
      <point x="652" y="1209" type="curve" smooth="yes"/>
    </contour>
    <contour>
      <point x="862" y="1209" type="line" smooth="yes"/>
      <point x="832" y="1209"/>
      <point x="813" y="1194"/>
      <point x="812" y="1159" type="curve" smooth="yes"/>
      <point x="800" y="679" type="line" smooth="yes"/>
      <point x="799" y="638"/>
      <point x="816" y="611"/>
      <point x="881" y="611" type="curve" smooth="yes"/>
      <point x="946" y="611"/>
      <point x="973" y="638"/>
      <point x="986" y="679" type="curve" smooth="yes"/>
      <point x="1144" y="1159" type="line" smooth="yes"/>
      <point x="1155" y="1194"/>
      <point x="1142" y="1209"/>
      <point x="1112" y="1209" type="curve" smooth="yes"/>
    </contour>
  </outline>
</glyph>
<glyph name="numbersign" format="1">
  <advance width="1228"/>
  <unicode hex="0023"/>
  <outline>
    <contour>
      <point x="298" y="940" type="line" smooth="yes"/>
      <point x="253" y="940"/>
      <point x="232" y="922"/>
      <point x="215" y="827" type="curve" smooth="yes"/>
      <point x="199" y="732"/>
      <point x="214" y="715"/>
      <point x="259" y="715" type="curve" smooth="yes"/>
      <point x="413" y="715" type="line"/>
      <point x="299" y="482" type="line"/>
      <point x="117" y="482" type="line" smooth="yes"/>
      <point x="72" y="482"/>
      <point x="51" y="464"/>
      <point x="35" y="369" type="curve" smooth="yes"/>
      <point x="18" y="274"/>
      <point x="33" y="257"/>
      <point x="78" y="257" type="curve" smooth="yes"/>
      <point x="189" y="257" type="line"/>
      <point x="85" y="45" type="line" smooth="yes"/>
      <point x="65" y="4"/>
      <point x="127" y="-22"/>
      <point x="184" y="-22" type="curve" smooth="yes"/>
      <point x="219" y="-22"/>
      <point x="252" y="-12"/>
      <point x="263" y="11" type="curve" smooth="yes"/>
      <point x="383" y="257" type="line"/>
      <point x="583" y="257" type="line"/>
      <point x="479" y="45" type="line" smooth="yes"/>
      <point x="459" y="4"/>
      <point x="521" y="-22"/>
      <point x="578" y="-22" type="curve" smooth="yes"/>
      <point x="613" y="-22"/>
      <point x="646" y="-12"/>
      <point x="657" y="11" type="curve" smooth="yes"/>
      <point x="777" y="257" type="line"/>
      <point x="1000" y="257" type="line" smooth="yes"/>
      <point x="1045" y="257"/>
      <point x="1066" y="274"/>
      <point x="1083" y="369" type="curve" smooth="yes"/>
      <point x="1099" y="464"/>
      <point x="1084" y="482"/>
      <point x="1039" y="482" type="curve" smooth="yes"/>
      <point x="887" y="482" type="line"/>
      <point x="1001" y="715" type="line"/>
      <point x="1181" y="715" type="line" smooth="yes"/>
      <point x="1226" y="715"/>
      <point x="1247" y="732"/>
      <point x="1263" y="827" type="curve" smooth="yes"/>
      <point x="1280" y="922"/>
      <point x="1265" y="940"/>
      <point x="1220" y="940" type="curve" smooth="yes"/>
      <point x="1112" y="940" type="line"/>
      <point x="1211" y="1142" type="line" smooth="yes"/>
      <point x="1231" y="1183"/>
      <point x="1169" y="1209"/>
      <point x="1112" y="1209" type="curve" smooth="yes"/>
      <point x="1077" y="1209"/>
      <point x="1044" y="1199"/>
      <point x="1033" y="1176" type="curve" smooth="yes"/>
      <point x="917" y="940" type="line"/>
      <point x="718" y="940" type="line"/>
      <point x="817" y="1142" type="line" smooth="yes"/>
      <point x="837" y="1183"/>
      <point x="775" y="1209"/>
      <point x="718" y="1209" type="curve" smooth="yes"/>
      <point x="683" y="1209"/>
      <point x="650" y="1199"/>
      <point x="639" y="1176" type="curve" smooth="yes"/>
      <point x="523" y="940" type="line"/>
    </contour>
    <contour>
      <point x="607" y="715" type="line"/>
      <point x="807" y="715" type="line"/>
      <point x="693" y="482" type="line"/>
      <point x="493" y="482" type="line"/>
    </contour>
  </outline>
</glyph>
<glyph name="dollar" format="1">
  <advance width="1228"/>
  <unicode hex="0024"/>
  <outline>
    <contour>
      <point x="694" y="1312"/>
      <point x="673" y="1294"/>
      <point x="665" y="1249" type="curve" smooth="yes"/>
      <point x="636" y="1086" type="line"/>
      <point x="372" y="1081"/>
      <point x="233" y="944"/>
      <point x="233" y="760" type="curve" smooth="yes"/>
      <point x="233" y="668"/>
      <point x="278" y="609"/>
      <point x="342" y="571" type="curve" smooth="yes"/>
      <point x="397" y="538"/>
      <point x="466" y="520"/>
      <point x="534" y="506" type="curve"/>
      <point x="504" y="335" type="line"/>
      <point x="444" y="353"/>
      <point x="393" y="386"/>
      <point x="360" y="439" type="curve" smooth="yes"/>
      <point x="349" y="457"/>
      <point x="326" y="467"/>
      <point x="282" y="467" type="curve" smooth="yes"/>
      <point x="217" y="467"/>
      <point x="183" y="449"/>
      <point x="175" y="404" type="curve" smooth="yes"/>
      <point x="136" y="181" type="line" smooth="yes"/>
      <point x="128" y="136"/>
      <point x="158" y="118"/>
      <point x="243" y="118" type="curve" smooth="yes"/>
      <point x="328" y="118"/>
      <point x="369" y="136"/>
      <point x="376" y="181" type="curve" smooth="yes"/>
      <point x="378" y="194" type="line"/>
      <point x="406" y="175"/>
      <point x="436" y="158"/>
      <point x="470" y="145" type="curve"/>
      <point x="434" y="-62" type="line" smooth="yes"/>
      <point x="426" y="-107"/>
      <point x="440" y="-125"/>
      <point x="515" y="-125" type="curve" smooth="yes"/>
      <point x="590" y="-125"/>
      <point x="612" y="-107"/>
      <point x="620" y="-62" type="curve" smooth="yes"/>
      <point x="652" y="118" type="line"/>
      <point x="966" y="129"/>
      <point x="1076" y="296"/>
      <point x="1076" y="465" type="curve" smooth="yes"/>
      <point x="1076" y="556"/>
      <point x="1031" y="612"/>
      <point x="967" y="649" type="curve" smooth="yes"/>
      <point x="907" y="683"/>
      <point x="831" y="700"/>
      <point x="756" y="712" type="curve"/>
      <point x="783" y="866" type="line"/>
      <point x="840" y="849"/>
      <point x="887" y="819"/>
      <point x="925" y="770" type="curve" smooth="yes"/>
      <point x="936" y="755"/>
      <point x="959" y="749"/>
      <point x="994" y="749" type="curve" smooth="yes"/>
      <point x="1059" y="749"/>
      <point x="1089" y="767"/>
      <point x="1097" y="812" type="curve" smooth="yes"/>
      <point x="1134" y="1023" type="line" smooth="yes"/>
      <point x="1142" y="1068"/>
      <point x="1112" y="1086"/>
      <point x="1027" y="1086" type="curve" smooth="yes"/>
      <point x="942" y="1086"/>
      <point x="913" y="1068"/>
      <point x="904" y="1023" type="curve" smooth="yes"/>
      <point x="901" y="1008" type="line"/>
      <point x="875" y="1026"/>
      <point x="847" y="1042"/>
      <point x="816" y="1054" type="curve"/>
      <point x="851" y="1249" type="line" smooth="yes"/>
      <point x="859" y="1294"/>
      <point x="844" y="1312"/>
      <point x="769" y="1312" type="curve" smooth="yes"/>
    </contour>
    <contour>
      <point x="787" y="466"/>
      <point x="814" y="442"/>
      <point x="814" y="409" type="curve" smooth="yes"/>
      <point x="814" y="363"/>
      <point x="768" y="325"/>
      <point x="687" y="320" type="curve"/>
      <point x="714" y="477" type="line"/>
    </contour>
    <contour>
      <point x="575" y="739" type="line"/>
      <point x="519" y="749"/>
      <point x="493" y="767"/>
      <point x="493" y="800" type="curve" smooth="yes"/>
      <point x="493" y="847"/>
      <point x="544" y="877"/>
      <point x="600" y="884" type="curve"/>
    </contour>
  </outline>
</glyph>
<glyph name="percent" format="1">
  <advance width="1228"/>
  <unicode hex="0025"/>
  <outline>
    <contour>
      <point x="999" y="-22"/>
      <point x="1154" y="115"/>
      <point x="1154" y="289" type="curve" smooth="yes"/>
      <point x="1154" y="420"/>
      <point x="1056" y="526"/>
      <point x="921" y="526" type="curve" smooth="yes"/>
      <point x="757" y="526"/>
      <point x="602" y="388"/>
      <point x="602" y="215" type="curve" smooth="yes"/>
      <point x="602" y="84"/>
      <point x="700" y="-22"/>
      <point x="835" y="-22" type="curve" smooth="yes"/>
    </contour>
    <contour>
      <point x="820" y="165"/>
      <point x="789" y="196"/>
      <point x="789" y="236" type="curve" smooth="yes"/>
      <point x="789" y="291"/>
      <point x="839" y="339"/>
      <point x="893" y="339" type="curve" smooth="yes"/>
      <point x="936" y="339"/>
      <point x="966" y="307"/>
      <point x="966" y="266" type="curve" smooth="yes"/>
      <point x="966" y="212"/>
      <point x="915" y="165"/>
      <point x="863" y="165" type="curve" smooth="yes"/>
    </contour>
    <contour>
      <point x="539" y="661"/>
      <point x="694" y="798"/>
      <point x="694" y="972" type="curve" smooth="yes"/>
      <point x="694" y="1103"/>
      <point x="596" y="1209"/>
      <point x="461" y="1209" type="curve" smooth="yes"/>
      <point x="297" y="1209"/>
      <point x="142" y="1071"/>
      <point x="142" y="898" type="curve" smooth="yes"/>
      <point x="142" y="767"/>
      <point x="240" y="661"/>
      <point x="375" y="661" type="curve" smooth="yes"/>
    </contour>
    <contour>
      <point x="360" y="848"/>
      <point x="329" y="879"/>
      <point x="329" y="919" type="curve" smooth="yes"/>
      <point x="329" y="974"/>
      <point x="379" y="1022"/>
      <point x="433" y="1022" type="curve" smooth="yes"/>
      <point x="476" y="1022"/>
      <point x="506" y="990"/>
      <point x="506" y="949" type="curve" smooth="yes"/>
      <point x="506" y="895"/>
      <point x="455" y="848"/>
      <point x="403" y="848" type="curve" smooth="yes"/>
    </contour>
    <contour>
      <point x="81" y="249" type="line" smooth="yes"/>
      <point x="43" y="218"/>
      <point x="39" y="193"/>
      <point x="83" y="134" type="curve" smooth="yes"/>
      <point x="128" y="75"/>
      <point x="153" y="75"/>
      <point x="191" y="106" type="curve" smooth="yes"/>
      <point x="1215" y="940" type="line" smooth="yes"/>
      <point x="1253" y="971"/>
      <point x="1259" y="996"/>
      <point x="1213" y="1054" type="curve" smooth="yes"/>
      <point x="1168" y="1112"/>
      <point x="1143" y="1114"/>
      <point x="1105" y="1083" type="curve" smooth="yes"/>
    </contour>
  </outline>
</glyph>
<glyph name="ampersand" format="1">
  <advance width="1228"/>
  <unicode hex="0026"/>
  <outline>
    <contour>
      <point x="1071" y="440" type="line" smooth="yes"/>
      <point x="1116" y="440"/>
      <point x="1137" y="458"/>
      <point x="1152" y="543" type="curve" smooth="yes"/>
      <point x="1167" y="628"/>
      <point x="1152" y="645"/>
      <point x="1107" y="645" type="curve" smooth="yes"/>
      <point x="887" y="645" type="line" smooth="yes"/>
      <point x="857" y="645"/>
      <point x="840" y="628"/>
      <point x="828" y="603" type="curve" smooth="yes"/>
      <point x="803" y="555"/>
      <point x="779" y="511"/>
      <point x="755" y="470" type="curve"/>
      <point x="601" y="666" type="line" smooth="yes"/>
      <point x="558" y="720"/>
      <point x="534" y="772"/>
      <point x="534" y="827" type="curve" smooth="yes"/>
      <point x="534" y="920"/>
      <point x="597" y="992"/>
      <point x="686" y="992" type="curve" smooth="yes"/>
      <point x="736" y="992"/>
      <point x="783" y="981"/>
      <point x="824" y="961" type="curve"/>
      <point x="805" y="854" type="line" smooth="yes"/>
      <point x="797" y="809"/>
      <point x="817" y="791"/>
      <point x="902" y="791" type="curve" smooth="yes"/>
      <point x="987" y="791"/>
      <point x="1027" y="809"/>
      <point x="1035" y="854" type="curve" smooth="yes"/>
      <point x="1069" y="1046" type="line" smooth="yes"/>
      <point x="1074" y="1074"/>
      <point x="1061" y="1092"/>
      <point x="1035" y="1109" type="curve" smooth="yes"/>
      <point x="932" y="1177"/>
      <point x="818" y="1209"/>
      <point x="716" y="1209" type="curve" smooth="yes"/>
      <point x="420" y="1209"/>
      <point x="281" y="1001"/>
      <point x="281" y="819" type="curve" smooth="yes"/>
      <point x="281" y="754"/>
      <point x="300" y="692"/>
      <point x="329" y="635" type="curve"/>
      <point x="177" y="546"/>
      <point x="90" y="426"/>
      <point x="90" y="269" type="curve" smooth="yes"/>
      <point x="90" y="101"/>
      <point x="213" y="-22"/>
      <point x="402" y="-22" type="curve" smooth="yes"/>
      <point x="527" y="-22"/>
      <point x="636" y="17"/>
      <point x="735" y="98" type="curve"/>
      <point x="786" y="33" type="line" smooth="yes"/>
      <point x="804" y="10"/>
      <point x="825" y="0"/>
      <point x="853" y="0" type="curve" smooth="yes"/>
      <point x="1014" y="0" type="line" smooth="yes"/>
      <point x="1059" y="0"/>
      <point x="1079" y="17"/>
      <point x="1094" y="102" type="curve" smooth="yes"/>
      <point x="1109" y="187"/>
      <point x="1095" y="205"/>
      <point x="1050" y="205" type="curve" smooth="yes"/>
      <point x="963" y="205" type="line"/>
      <point x="899" y="286" type="line"/>
      <point x="930" y="332"/>
      <point x="960" y="383"/>
      <point x="990" y="440" type="curve"/>
    </contour>
    <contour>
      <point x="378" y="205"/>
      <point x="340" y="242"/>
      <point x="340" y="301" type="curve" smooth="yes"/>
      <point x="340" y="369"/>
      <point x="376" y="425"/>
      <point x="441" y="474" type="curve"/>
      <point x="600" y="271" type="line"/>
      <point x="550" y="228"/>
      <point x="498" y="205"/>
      <point x="442" y="205" type="curve" smooth="yes"/>
    </contour>
  </outline>
</glyph>
<glyph name="quotesingle" format="1">
  <advance width="1228"/>
  <unicode hex="0027"/>
  <outline>
    <contour>
      <point x="643" y="1269" type="line" smooth="yes"/>
      <point x="613" y="1269"/>
      <point x="594" y="1254"/>
      <point x="593" y="1219" type="curve" smooth="yes"/>
      <point x="581" y="739" type="line" smooth="yes"/>
      <point x="580" y="698"/>
      <point x="597" y="671"/>
      <point x="662" y="671" type="curve" smooth="yes"/>
      <point x="727" y="671"/>
      <point x="754" y="698"/>
      <point x="767" y="739" type="curve" smooth="yes"/>
      <point x="925" y="1219" type="line" smooth="yes"/>
      <point x="936" y="1254"/>
      <point x="923" y="1269"/>
      <point x="893" y="1269" type="curve" smooth="yes"/>
    </contour>
  </outline>
</glyph>
<glyph name="parenleft" format="1">
  <advance width="1228"/>
  <unicode hex="0028"/>
  <outline>
    <contour>
      <point x="489" y="1088"/>
      <point x="255" y="713"/>
      <point x="255" y="301" type="curve" smooth="yes"/>
      <point x="255" y="-36"/>
      <point x="435" y="-274"/>
      <point x="630" y="-397" type="curve" smooth="yes"/>
      <point x="667" y="-420"/>
      <point x="717" y="-386"/>
      <point x="753" y="-340" type="curve" smooth="yes"/>
      <point x="790" y="-293"/>
      <point x="811" y="-233"/>
      <point x="783" y="-213" type="curve" smooth="yes"/>
      <point x="595" y="-80"/>
      <point x="501" y="88"/>
      <point x="501" y="306" type="curve" smooth="yes"/>
      <point x="501" y="670"/>
      <point x="704" y="915"/>
      <point x="1046" y="1101" type="curve" smooth="yes"/>
      <point x="1081" y="1120"/>
      <point x="1075" y="1187"/>
      <point x="1048" y="1242" type="curve" smooth="yes"/>
      <point x="1022" y="1295"/>
      <point x="977" y="1338"/>
      <point x="932" y="1315" type="curve" smooth="yes"/>
    </contour>
  </outline>
</glyph>
<glyph name="parenright" format="1">
  <advance width="1228"/>
  <unicode hex="0029"/>
  <outline>
    <contour>
      <point x="581" y="1338"/>
      <point x="531" y="1304"/>
      <point x="495" y="1258" type="curve" smooth="yes"/>
      <point x="458" y="1211"/>
      <point x="437" y="1151"/>
      <point x="465" y="1131" type="curve" smooth="yes"/>
      <point x="653" y="998"/>
      <point x="747" y="830"/>
      <point x="747" y="612" type="curve" smooth="yes"/>
      <point x="747" y="248"/>
      <point x="544" y="3"/>
      <point x="202" y="-183" type="curve" smooth="yes"/>
      <point x="167" y="-202"/>
      <point x="173" y="-269"/>
      <point x="200" y="-324" type="curve" smooth="yes"/>
      <point x="226" y="-377"/>
      <point x="271" y="-420"/>
      <point x="316" y="-397" type="curve"/>
      <point x="759" y="-170"/>
      <point x="993" y="205"/>
      <point x="993" y="617" type="curve" smooth="yes"/>
      <point x="993" y="954"/>
      <point x="813" y="1192"/>
      <point x="618" y="1315" type="curve" smooth="yes"/>
    </contour>
  </outline>
</glyph>
<glyph name="comma" format="1">
  <advance width="1228"/>
  <unicode hex="002C"/>
  <outline>
    <contour>
      <point x="788" y="291" type="line" smooth="yes"/>
      <point x="811" y="326"/>
      <point x="804" y="354"/>
      <point x="771" y="354" type="curve" smooth="yes"/>
      <point x="472" y="354" type="line" smooth="yes"/>
      <point x="444" y="354"/>
      <point x="421" y="340"/>
      <point x="413" y="314" type="curve" smooth="yes"/>
      <point x="248" y="-228" type="line" smooth="yes"/>
      <point x="235" y="-272"/>
      <point x="266" y="-294"/>
      <point x="322" y="-294" type="curve" smooth="yes"/>
      <point x="368" y="-294"/>
      <point x="401" y="-281"/>
      <point x="420" y="-253" type="curve" smooth="yes"/>
    </contour>
  </outline>
</glyph>
<glyph name="period" format="1">
  <advance width="1228"/>
  <unicode hex="002E"/>
  <outline>
    <contour>
      <point x="674" y="-22"/>
      <point x="785" y="79"/>
      <point x="785" y="212" type="curve" smooth="yes"/>
      <point x="785" y="312"/>
      <point x="709" y="394"/>
      <point x="603" y="394" type="curve" smooth="yes"/>
      <point x="480" y="394"/>
      <point x="367" y="294"/>
      <point x="367" y="161" type="curve" smooth="yes"/>
      <point x="367" y="61"/>
      <point x="443" y="-22"/>
      <point x="550" y="-22" type="curve" smooth="yes"/>
    </contour>
  </outline>
</glyph>
<glyph name="slash" format="1">
  <advance width="1228"/>
  <unicode hex="002F"/>
  <outline>
    <contour>
      <point x="1202" y="1221" type="line" smooth="yes"/>
      <point x="1245" y="1292"/>
      <point x="1144" y="1339"/>
      <point x="1061" y="1339" type="curve" smooth="yes"/>
      <point x="1022" y="1339"/>
      <point x="987" y="1328"/>
      <point x="973" y="1305" type="curve" smooth="yes"/>
      <point x="68" y="-183" type="line" smooth="yes"/>
      <point x="26" y="-252"/>
      <point x="128" y="-300"/>
      <point x="211" y="-300" type="curve" smooth="yes"/>
      <point x="249" y="-300"/>
      <point x="283" y="-290"/>
      <point x="297" y="-267" type="curve" smooth="yes"/>
    </contour>
  </outline>
</glyph>
<glyph name="zero" format="1">
  <advance width="1228"/>
  <unicode hex="0030"/>
  <outline>
    <contour>
      <point x="475" y="205"/>
      <point x="419" y="282"/>
      <point x="419" y="434" type="curve" smooth="yes"/>
      <point x="419" y="552"/>
      <point x="455" y="738"/>
      <point x="519" y="849" type="curve" smooth="yes"/>
      <point x="571" y="939"/>
      <point x="637" y="982"/>
      <point x="717" y="982" type="curve" smooth="yes"/>
      <point x="822" y="982"/>
      <point x="878" y="905"/>
      <point x="878" y="753" type="curve" smooth="yes"/>
      <point x="878" y="635"/>
      <point x="842" y="449"/>
      <point x="778" y="338" type="curve" smooth="yes"/>
      <point x="726" y="248"/>
      <point x="660" y="205"/>
      <point x="580" y="205" type="curve" smooth="yes"/>
    </contour>
    <contour>
      <point x="735" y="-22"/>
      <point x="882" y="67"/>
      <point x="985" y="215" type="curve" smooth="yes"/>
      <point x="1086" y="360"/>
      <point x="1142" y="566"/>
      <point x="1142" y="740" type="curve" smooth="yes"/>
      <point x="1142" y="1018"/>
      <point x="997" y="1209"/>
      <point x="742" y="1209" type="curve" smooth="yes"/>
      <point x="562" y="1209"/>
      <point x="415" y="1120"/>
      <point x="312" y="972" type="curve" smooth="yes"/>
      <point x="211" y="827"/>
      <point x="155" y="621"/>
      <point x="155" y="447" type="curve" smooth="yes"/>
      <point x="155" y="169"/>
      <point x="300" y="-22"/>
      <point x="555" y="-22" type="curve" smooth="yes"/>
    </contour>
  </outline>
</glyph>
<glyph name="one" format="1">
  <advance width="1228"/>
  <unicode hex="0031"/>
  <outline>
    <contour>
      <point x="364" y="1054" type="line" smooth="yes"/>
      <point x="320" y="1039"/>
      <point x="303" y="1014"/>
      <point x="324" y="935" type="curve" smooth="yes"/>
      <point x="345" y="857"/>
      <point x="369" y="841"/>
      <point x="413" y="856" type="curve" smooth="yes"/>
      <point x="611" y="923" type="line"/>
      <point x="485" y="205" type="line"/>
      <point x="259" y="205" type="line" smooth="yes"/>
      <point x="214" y="205"/>
      <point x="192" y="187"/>
      <point x="177" y="102" type="curve" smooth="yes"/>
      <point x="162" y="17"/>
      <point x="178" y="0"/>
      <point x="223" y="0" type="curve" smooth="yes"/>
      <point x="955" y="0" type="line" smooth="yes"/>
      <point x="1000" y="0"/>
      <point x="1020" y="17"/>
      <point x="1035" y="102" type="curve" smooth="yes"/>
      <point x="1050" y="187"/>
      <point x="1036" y="205"/>
      <point x="991" y="205" type="curve" smooth="yes"/>
      <point x="735" y="205" type="line"/>
      <point x="897" y="1128" type="line" smooth="yes"/>
      <point x="910" y="1198"/>
      <point x="870" y="1227"/>
      <point x="805" y="1205" type="curve" smooth="yes"/>
    </contour>
  </outline>
</glyph>
<glyph name="two" format="1">
  <advance width="1228"/>
  <unicode hex="0032"/>
  <outline>
    <contour>
      <point x="621" y="1209"/>
      <point x="501" y="1187"/>
      <point x="368" y="1121" type="curve" smooth="yes"/>
      <point x="338" y="1106"/>
      <point x="319" y="1085"/>
      <point x="314" y="1057" type="curve" smooth="yes"/>
      <point x="270" y="810" type="line" smooth="yes"/>
      <point x="262" y="765"/>
      <point x="296" y="747"/>
      <point x="381" y="747" type="curve" smooth="yes"/>
      <point x="466" y="747"/>
      <point x="492" y="765"/>
      <point x="500" y="810" type="curve" smooth="yes"/>
      <point x="525" y="950" type="line"/>
      <point x="580" y="975"/>
      <point x="643" y="992"/>
      <point x="705" y="992" type="curve" smooth="yes"/>
      <point x="791" y="992"/>
      <point x="836" y="948"/>
      <point x="836" y="878" type="curve" smooth="yes"/>
      <point x="836" y="843"/>
      <point x="826" y="810"/>
      <point x="812" y="784" type="curve" smooth="yes"/>
      <point x="787" y="739"/>
      <point x="739" y="692"/>
      <point x="650" y="619" type="curve" smooth="yes"/>
      <point x="148" y="206" type="line" smooth="yes"/>
      <point x="127" y="189"/>
      <point x="115" y="157"/>
      <point x="106" y="103" type="curve" smooth="yes"/>
      <point x="91" y="18"/>
      <point x="106" y="0"/>
      <point x="151" y="0" type="curve" smooth="yes"/>
      <point x="925" y="0" type="line" smooth="yes"/>
      <point x="971" y="0"/>
      <point x="993" y="19"/>
      <point x="1001" y="65" type="curve" smooth="yes"/>
      <point x="1044" y="307" type="line" smooth="yes"/>
      <point x="1052" y="352"/>
      <point x="1018" y="370"/>
      <point x="933" y="370" type="curve" smooth="yes"/>
      <point x="848" y="370"/>
      <point x="822" y="352"/>
      <point x="814" y="307" type="curve" smooth="yes"/>
      <point x="797" y="215" type="line"/>
      <point x="515" y="215" type="line"/>
      <point x="835" y="478" type="line" smooth="yes"/>
      <point x="935" y="561"/>
      <point x="1004" y="627"/>
      <point x="1044" y="702" type="curve" smooth="yes"/>
      <point x="1077" y="764"/>
      <point x="1092" y="837"/>
      <point x="1092" y="901" type="curve" smooth="yes"/>
      <point x="1092" y="1080"/>
      <point x="968" y="1209"/>
      <point x="733" y="1209" type="curve" smooth="yes"/>
    </contour>
  </outline>
</glyph>
<glyph name="three" format="1">
  <advance width="1228"/>
  <unicode hex="0033"/>
  <outline>
    <contour>
      <point x="442" y="205"/>
      <point x="351" y="230"/>
      <point x="273" y="270" type="curve" smooth="yes"/>
      <point x="245" y="285"/>
      <point x="207" y="269"/>
      <point x="173" y="191" type="curve" smooth="yes"/>
      <point x="139" y="114"/>
      <point x="146" y="74"/>
      <point x="180" y="55" type="curve" smooth="yes"/>
      <point x="271" y="5"/>
      <point x="387" y="-22"/>
      <point x="510" y="-22" type="curve" smooth="yes"/>
      <point x="719" y="-22"/>
      <point x="854" y="33"/>
      <point x="935" y="122" type="curve" smooth="yes"/>
      <point x="1005" y="199"/>
      <point x="1039" y="305"/>
      <point x="1039" y="396" type="curve" smooth="yes"/>
      <point x="1039" y="497"/>
      <point x="990" y="573"/>
      <point x="908" y="614" type="curve"/>
      <point x="1036" y="675"/>
      <point x="1097" y="784"/>
      <point x="1097" y="920" type="curve" smooth="yes"/>
      <point x="1097" y="1100"/>
      <point x="961" y="1209"/>
      <point x="723" y="1209" type="curve" smooth="yes"/>
      <point x="610" y="1209"/>
      <point x="500" y="1193"/>
      <point x="390" y="1151" type="curve" smooth="yes"/>
      <point x="354" y="1138"/>
      <point x="335" y="1117"/>
      <point x="329" y="1087" type="curve" smooth="yes"/>
      <point x="294" y="890" type="line" smooth="yes"/>
      <point x="286" y="845"/>
      <point x="320" y="827"/>
      <point x="405" y="827" type="curve" smooth="yes"/>
      <point x="490" y="827"/>
      <point x="516" y="845"/>
      <point x="524" y="890" type="curve" smooth="yes"/>
      <point x="538" y="969" type="line"/>
      <point x="585" y="982"/>
      <point x="636" y="992"/>
      <point x="695" y="992" type="curve" smooth="yes"/>
      <point x="791" y="992"/>
      <point x="840" y="956"/>
      <point x="840" y="886" type="curve" smooth="yes"/>
      <point x="840" y="846"/>
      <point x="829" y="809"/>
      <point x="806" y="779" type="curve" smooth="yes"/>
      <point x="776" y="740"/>
      <point x="721" y="718"/>
      <point x="637" y="718" type="curve" smooth="yes"/>
      <point x="561" y="718" type="line" smooth="yes"/>
      <point x="516" y="718"/>
      <point x="494" y="695"/>
      <point x="479" y="610" type="curve" smooth="yes"/>
      <point x="464" y="525"/>
      <point x="478" y="503"/>
      <point x="523" y="503" type="curve" smooth="yes"/>
      <point x="626" y="503" type="line" smooth="yes"/>
      <point x="723" y="503"/>
      <point x="774" y="465"/>
      <point x="774" y="391" type="curve" smooth="yes"/>
      <point x="774" y="302"/>
      <point x="718" y="205"/>
      <point x="530" y="205" type="curve" smooth="yes"/>
    </contour>
  </outline>
</glyph>
<glyph name="five" format="1">
  <advance width="1228"/>
  <unicode hex="0035"/>
  <outline>
    <contour>
      <point x="452" y="1187" type="line" smooth="yes"/>
      <point x="406" y="1187"/>
      <point x="386" y="1168"/>
      <point x="375" y="1122" type="curve" smooth="yes"/>
      <point x="245" y="572" type="line" smooth="yes"/>
      <point x="234" y="526"/>
      <point x="293" y="506"/>
      <point x="379" y="506" type="curve" smooth="yes"/>
      <point x="406" y="506"/>
      <point x="428" y="512"/>
      <point x="458" y="523" type="curve" smooth="yes"/>
      <point x="513" y="544"/>
      <point x="573" y="559"/>
      <point x="632" y="559" type="curve" smooth="yes"/>
      <point x="728" y="559"/>
      <point x="780" y="511"/>
      <point x="780" y="418" type="curve" smooth="yes"/>
      <point x="780" y="317"/>
      <point x="702" y="205"/>
      <point x="540" y="205" type="curve" smooth="yes"/>
      <point x="446" y="205"/>
      <point x="350" y="237"/>
      <point x="268" y="282" type="curve" smooth="yes"/>
      <point x="240" y="297"/>
      <point x="205" y="285"/>
      <point x="168" y="203" type="curve" smooth="yes"/>
      <point x="133" y="126"/>
      <point x="141" y="87"/>
      <point x="175" y="67" type="curve" smooth="yes"/>
      <point x="274" y="13"/>
      <point x="396" y="-22"/>
      <point x="524" y="-22" type="curve" smooth="yes"/>
      <point x="900" y="-22"/>
      <point x="1048" y="196"/>
      <point x="1048" y="452" type="curve" smooth="yes"/>
      <point x="1048" y="646"/>
      <point x="935" y="786"/>
      <point x="715" y="786" type="curve" smooth="yes"/>
      <point x="649" y="786"/>
      <point x="593" y="773"/>
      <point x="527" y="749" type="curve"/>
      <point x="580" y="972" type="line"/>
      <point x="1022" y="972" type="line" smooth="yes"/>
      <point x="1067" y="972"/>
      <point x="1089" y="994"/>
      <point x="1104" y="1079" type="curve" smooth="yes"/>
      <point x="1119" y="1164"/>
      <point x="1105" y="1187"/>
      <point x="1060" y="1187" type="curve" smooth="yes"/>
    </contour>
  </outline>
</glyph>
<glyph name="six" format="1">
  <advance width="1228"/>
  <unicode hex="0036"/>
  <outline>
    <contour>
      <point x="892" y="-22"/>
      <point x="1075" y="190"/>
      <point x="1075" y="420" type="curve" smooth="yes"/>
      <point x="1075" y="605"/>
      <point x="944" y="741"/>
      <point x="745" y="741" type="curve" smooth="yes"/>
      <point x="630" y="741"/>
      <point x="542" y="703"/>
      <point x="461" y="634" type="curve"/>
      <point x="536" y="852"/>
      <point x="701" y="959"/>
      <point x="1068" y="967" type="curve" smooth="yes"/>
      <point x="1099" y="968"/>
      <point x="1123" y="1010"/>
      <point x="1121" y="1102" type="curve" smooth="yes"/>
      <point x="1119" y="1177"/>
      <point x="1105" y="1210"/>
      <point x="1069" y="1209" type="curve"/>
      <point x="777" y="1203"/>
      <point x="563" y="1128"/>
      <point x="416" y="993" type="curve" smooth="yes"/>
      <point x="233" y="824"/>
      <point x="171" y="572"/>
      <point x="171" y="398" type="curve" smooth="yes"/>
      <point x="171" y="314"/>
      <point x="185" y="239"/>
      <point x="211" y="186" type="curve" smooth="yes"/>
      <point x="271" y="61"/>
      <point x="387" y="-22"/>
      <point x="566" y="-22" type="curve" smooth="yes"/>
    </contour>
    <contour>
      <point x="488" y="201"/>
      <point x="432" y="263"/>
      <point x="432" y="340" type="curve" smooth="yes"/>
      <point x="432" y="440"/>
      <point x="518" y="529"/>
      <point x="660" y="529" type="curve" smooth="yes"/>
      <point x="760" y="529"/>
      <point x="817" y="482"/>
      <point x="817" y="400" type="curve" smooth="yes"/>
      <point x="817" y="295"/>
      <point x="737" y="201"/>
      <point x="595" y="201" type="curve" smooth="yes"/>
    </contour>
  </outline>
</glyph>
<glyph name="nine" format="1">
  <advance width="1228"/>
  <unicode hex="0039"/>
  <outline>
    <contour>
      <point x="766" y="335"/>
      <point x="625" y="238"/>
      <point x="258" y="220" type="curve" smooth="yes"/>
      <point x="227" y="218"/>
      <point x="203" y="177"/>
      <point x="205" y="85" type="curve" smooth="yes"/>
      <point x="207" y="10"/>
      <point x="221" y="-23"/>
      <point x="257" y="-22" type="curve" smooth="yes"/>
      <point x="543" y="-11"/>
      <point x="746" y="61"/>
      <point x="885" y="189" type="curve" smooth="yes"/>
      <point x="1073" y="363"/>
      <point x="1125" y="647"/>
      <point x="1125" y="789" type="curve" smooth="yes"/>
      <point x="1125" y="873"/>
      <point x="1111" y="948"/>
      <point x="1085" y="1001" type="curve" smooth="yes"/>
      <point x="1025" y="1126"/>
      <point x="909" y="1209"/>
      <point x="730" y="1209" type="curve" smooth="yes"/>
      <point x="404" y="1209"/>
      <point x="221" y="997"/>
      <point x="221" y="767" type="curve" smooth="yes"/>
      <point x="221" y="582"/>
      <point x="352" y="446"/>
      <point x="551" y="446" type="curve" smooth="yes"/>
      <point x="666" y="446"/>
      <point x="754" y="484"/>
      <point x="835" y="553" type="curve"/>
    </contour>
    <contour>
      <point x="808" y="986"/>
      <point x="864" y="924"/>
      <point x="864" y="847" type="curve" smooth="yes"/>
      <point x="864" y="747"/>
      <point x="778" y="658"/>
      <point x="636" y="658" type="curve" smooth="yes"/>
      <point x="536" y="658"/>
      <point x="479" y="705"/>
      <point x="479" y="787" type="curve" smooth="yes"/>
      <point x="479" y="892"/>
      <point x="559" y="986"/>
      <point x="701" y="986" type="curve" smooth="yes"/>
    </contour>
  </outline>
</glyph>
<glyph name="less" format="1">
  <advance width="1228"/>
  <unicode hex="003C"/>
  <outline>
    <contour>
      <point x="491" y="573" type="line"/>
      <point x="1139" y="870" type="line" smooth="yes"/>
      <point x="1184" y="891"/>
      <point x="1196" y="927"/>
      <point x="1164" y="1007" type="curve" smooth="yes"/>
      <point x="1132" y="1087"/>
      <point x="1104" y="1097"/>
      <point x="1060" y="1076" type="curve" smooth="yes"/>
      <point x="215" y="677" type="line" smooth="yes"/>
      <point x="180" y="660"/>
      <point x="162" y="640"/>
      <point x="152" y="583" type="curve" smooth="yes"/>
      <point x="142" y="526"/>
      <point x="153" y="505"/>
      <point x="182" y="489" type="curve" smooth="yes"/>
      <point x="896" y="84" type="line" smooth="yes"/>
      <point x="933" y="63"/>
      <point x="964" y="74"/>
      <point x="1011" y="154" type="curve" smooth="yes"/>
      <point x="1058" y="234"/>
      <point x="1050" y="267"/>
      <point x="1012" y="288" type="curve" smooth="yes"/>
    </contour>
  </outline>
</glyph>
<glyph name="equal" format="1">
  <advance width="1228"/>
  <unicode hex="003D"/>
  <outline>
    <contour>
      <point x="325" y="924" type="line" smooth="yes"/>
      <point x="280" y="924"/>
      <point x="259" y="906"/>
      <point x="243" y="811" type="curve" smooth="yes"/>
      <point x="226" y="716"/>
      <point x="241" y="699"/>
      <point x="286" y="699" type="curve" smooth="yes"/>
      <point x="1048" y="699" type="line" smooth="yes"/>
      <point x="1093" y="699"/>
      <point x="1114" y="716"/>
      <point x="1131" y="811" type="curve" smooth="yes"/>
      <point x="1147" y="906"/>
      <point x="1132" y="924"/>
      <point x="1087" y="924" type="curve" smooth="yes"/>
    </contour>
    <contour>
      <point x="245" y="466" type="line" smooth="yes"/>
      <point x="200" y="466"/>
      <point x="178" y="448"/>
      <point x="162" y="353" type="curve" smooth="yes"/>
      <point x="145" y="258"/>
      <point x="160" y="241"/>
      <point x="205" y="241" type="curve" smooth="yes"/>
      <point x="967" y="241" type="line" smooth="yes"/>
      <point x="1012" y="241"/>
      <point x="1033" y="258"/>
      <point x="1050" y="353" type="curve" smooth="yes"/>
      <point x="1066" y="448"/>
      <point x="1052" y="466"/>
      <point x="1007" y="466" type="curve" smooth="yes"/>
    </contour>
  </outline>
</glyph>
<glyph name="greater" format="1">
  <advance width="1228"/>
  <unicode hex="003E"/>
  <outline>
    <contour>
      <point x="801" y="593" type="line"/>
      <point x="153" y="296" type="line" smooth="yes"/>
      <point x="108" y="275"/>
      <point x="96" y="239"/>
      <point x="128" y="159" type="curve" smooth="yes"/>
      <point x="160" y="79"/>
      <point x="188" y="69"/>
      <point x="232" y="90" type="curve" smooth="yes"/>
      <point x="1077" y="489" type="line" smooth="yes"/>
      <point x="1112" y="506"/>
      <point x="1130" y="526"/>
      <point x="1140" y="583" type="curve" smooth="yes"/>
      <point x="1150" y="640"/>
      <point x="1139" y="661"/>
      <point x="1110" y="677" type="curve" smooth="yes"/>
      <point x="396" y="1082" type="line" smooth="yes"/>
      <point x="359" y="1103"/>
      <point x="328" y="1092"/>
      <point x="281" y="1012" type="curve" smooth="yes"/>
      <point x="234" y="932"/>
      <point x="242" y="899"/>
      <point x="280" y="878" type="curve"/>
    </contour>
  </outline>
</glyph>
<glyph name="question" format="1">
  <advance width="1228"/>
  <unicode hex="003F"/>
  <outline>
    <contour>
      <point x="610" y="1209"/>
      <point x="493" y="1180"/>
      <point x="378" y="1131" type="curve" smooth="yes"/>
      <point x="349" y="1119"/>
      <point x="331" y="1097"/>
      <point x="326" y="1070" type="curve" smooth="yes"/>
      <point x="289" y="860" type="line" smooth="yes"/>
      <point x="281" y="815"/>
      <point x="315" y="797"/>
      <point x="400" y="797" type="curve" smooth="yes"/>
      <point x="485" y="797"/>
      <point x="511" y="815"/>
      <point x="519" y="860" type="curve" smooth="yes"/>
      <point x="537" y="962" type="line"/>
      <point x="587" y="980"/>
      <point x="641" y="992"/>
      <point x="695" y="992" type="curve" smooth="yes"/>
      <point x="787" y="992"/>
      <point x="832" y="958"/>
      <point x="832" y="896" type="curve" smooth="yes"/>
      <point x="832" y="871"/>
      <point x="826" y="847"/>
      <point x="817" y="829" type="curve" smooth="yes"/>
      <point x="794" y="783"/>
      <point x="746" y="757"/>
      <point x="666" y="744" type="curve" smooth="yes"/>
      <point x="553" y="726" type="line" smooth="yes"/>
      <point x="527" y="722"/>
      <point x="516" y="701"/>
      <point x="514" y="675" type="curve" smooth="yes"/>
      <point x="495" y="467" type="line" smooth="yes"/>
      <point x="492" y="436"/>
      <point x="510" y="419"/>
      <point x="587" y="419" type="curve" smooth="yes"/>
      <point x="664" y="419"/>
      <point x="688" y="436"/>
      <point x="697" y="467" type="curve" smooth="yes"/>
      <point x="720" y="548" type="line"/>
      <point x="882" y="589"/>
      <point x="988" y="641"/>
      <point x="1046" y="749" type="curve" smooth="yes"/>
      <point x="1074" y="801"/>
      <point x="1088" y="867"/>
      <point x="1088" y="927" type="curve" smooth="yes"/>
      <point x="1088" y="1098"/>
      <point x="961" y="1209"/>
      <point x="723" y="1209" type="curve" smooth="yes"/>
    </contour>
    <contour>
      <point x="474" y="321"/>
      <point x="381" y="238"/>
      <point x="381" y="129" type="curve" smooth="yes"/>
      <point x="381" y="46"/>
      <point x="444" y="-22"/>
      <point x="532" y="-22" type="curve" smooth="yes"/>
      <point x="634" y="-22"/>
      <point x="726" y="61"/>
      <point x="726" y="171" type="curve" smooth="yes"/>
      <point x="726" y="253"/>
      <point x="663" y="321"/>
      <point x="576" y="321" type="curve" smooth="yes"/>
    </contour>
  </outline>
</glyph>
<glyph name="A" format="1">
  <advance width="1228"/>
  <unicode hex="0041"/>
  <outline>
    <contour>
      <point x="362" y="1187" type="line" smooth="yes"/>
      <point x="317" y="1187"/>
      <point x="296" y="1170"/>
      <point x="281" y="1085" type="curve" smooth="yes"/>
      <point x="266" y="1000"/>
      <point x="281" y="982"/>
      <point x="326" y="982" type="curve" smooth="yes"/>
      <point x="489" y="982" type="line"/>
      <point x="99" y="205" type="line"/>
      <point x="19" y="205" type="line" smooth="yes"/>
      <point x="-26" y="205"/>
      <point x="-47" y="188"/>
      <point x="-62" y="103" type="curve" smooth="yes"/>
      <point x="-76" y="18"/>
      <point x="-62" y="0"/>
      <point x="-17" y="0" type="curve" smooth="yes"/>
      <point x="387" y="0" type="line" smooth="yes"/>
      <point x="432" y="0"/>
      <point x="453" y="18"/>
      <point x="468" y="103" type="curve" smooth="yes"/>
      <point x="483" y="188"/>
      <point x="468" y="205"/>
      <point x="423" y="205" type="curve" smooth="yes"/>
      <point x="353" y="205" type="line"/>
      <point x="423" y="350" type="line"/>
      <point x="787" y="350" type="line"/>
      <point x="807" y="205" type="line"/>
      <point x="717" y="205" type="line" smooth="yes"/>
      <point x="672" y="205"/>
      <point x="651" y="188"/>
      <point x="636" y="103" type="curve" smooth="yes"/>
      <point x="621" y="18"/>
      <point x="636" y="0"/>
      <point x="681" y="0" type="curve" smooth="yes"/>
      <point x="1105" y="0" type="line" smooth="yes"/>
      <point x="1150" y="0"/>
      <point x="1171" y="18"/>
      <point x="1186" y="103" type="curve" smooth="yes"/>
      <point x="1201" y="188"/>
      <point x="1186" y="205"/>
      <point x="1141" y="205" type="curve" smooth="yes"/>
      <point x="1050" y="205" type="line"/>
      <point x="921" y="1122" type="line" smooth="yes"/>
      <point x="914" y="1168"/>
      <point x="885" y="1187"/>
      <point x="832" y="1187" type="curve" smooth="yes"/>
    </contour>
    <contour>
      <point x="766" y="555" type="line"/>
      <point x="517" y="555" type="line"/>
      <point x="716" y="982" type="line"/>
      <point x="722" y="982" type="line"/>
    </contour>
  </outline>
</glyph>
<glyph name="C" format="1">
  <advance width="1228"/>
  <unicode hex="0043"/>
  <outline>
    <contour>
      <point x="1064" y="1209"/>
      <point x="1025" y="1191"/>
      <point x="1016" y="1146" type="curve" smooth="yes"/>
      <point x="1003" y="1078" type="line"/>
      <point x="965" y="1155"/>
      <point x="881" y="1209"/>
      <point x="757" y="1209" type="curve" smooth="yes"/>
      <point x="591" y="1209"/>
      <point x="441" y="1143"/>
      <point x="328" y="1020" type="curve" smooth="yes"/>
      <point x="196" y="877"/>
      <point x="128" y="661"/>
      <point x="128" y="471" type="curve" smooth="yes"/>
      <point x="128" y="171"/>
      <point x="313" y="-22"/>
      <point x="600" y="-22" type="curve" smooth="yes"/>
      <point x="742" y="-22"/>
      <point x="894" y="15"/>
      <point x="1045" y="84" type="curve" smooth="yes"/>
      <point x="1092" y="105"/>
      <point x="1105" y="145"/>
      <point x="1082" y="225" type="curve" smooth="yes"/>
      <point x="1060" y="302"/>
      <point x="1026" y="322"/>
      <point x="982" y="302" type="curve" smooth="yes"/>
      <point x="856" y="243"/>
      <point x="753" y="205"/>
      <point x="630" y="205" type="curve" smooth="yes"/>
      <point x="476" y="205"/>
      <point x="394" y="302"/>
      <point x="394" y="475" type="curve" smooth="yes"/>
      <point x="394" y="596"/>
      <point x="431" y="749"/>
      <point x="500" y="847" type="curve" smooth="yes"/>
      <point x="562" y="935"/>
      <point x="648" y="982"/>
      <point x="757" y="982" type="curve" smooth="yes"/>
      <point x="895" y="982"/>
      <point x="951" y="891"/>
      <point x="928" y="762" type="curve" smooth="yes"/>
      <point x="920" y="717"/>
      <point x="940" y="699"/>
      <point x="1035" y="699" type="curve" smooth="yes"/>
      <point x="1130" y="699"/>
      <point x="1170" y="717"/>
      <point x="1178" y="762" type="curve" smooth="yes"/>
      <point x="1246" y="1146" type="line" smooth="yes"/>
      <point x="1254" y="1191"/>
      <point x="1234" y="1209"/>
      <point x="1149" y="1209" type="curve" smooth="yes"/>
    </contour>
  </outline>
</glyph>
<glyph name="D" format="1">
  <advance width="1228"/>
  <unicode hex="0044"/>
  <outline>
    <contour>
      <point x="262" y="1187" type="line" smooth="yes"/>
      <point x="217" y="1187"/>
      <point x="196" y="1169"/>
      <point x="181" y="1084" type="curve" smooth="yes"/>
      <point x="166" y="999"/>
      <point x="181" y="982"/>
      <point x="226" y="982" type="curve" smooth="yes"/>
      <point x="323" y="982" type="line"/>
      <point x="186" y="205" type="line"/>
      <point x="89" y="205" type="line" smooth="yes"/>
      <point x="44" y="205"/>
      <point x="22" y="187"/>
      <point x="7" y="102" type="curve" smooth="yes"/>
      <point x="-8" y="17"/>
      <point x="8" y="0"/>
      <point x="53" y="0" type="curve" smooth="yes"/>
      <point x="544" y="0" type="line" smooth="yes"/>
      <point x="1080" y="0"/>
      <point x="1198" y="459"/>
      <point x="1198" y="718" type="curve" smooth="yes"/>
      <point x="1198" y="1012"/>
      <point x="1016" y="1187"/>
      <point x="713" y="1187" type="curve" smooth="yes"/>
    </contour>
    <contour>
      <point x="846" y="972"/>
      <point x="932" y="883"/>
      <point x="932" y="712" type="curve" smooth="yes"/>
      <point x="932" y="494"/>
      <point x="836" y="215"/>
      <point x="542" y="215" type="curve" smooth="yes"/>
      <point x="438" y="215" type="line"/>
      <point x="571" y="972" type="line"/>
      <point x="675" y="972" type="line" smooth="yes"/>
    </contour>
  </outline>
</glyph>
<glyph name="H" format="1">
  <advance width="1228"/>
  <unicode hex="0048"/>
  <outline>
    <contour>
      <point x="880" y="1187" type="line" smooth="yes"/>
      <point x="835" y="1187"/>
      <point x="814" y="1169"/>
      <point x="799" y="1084" type="curve" smooth="yes"/>
      <point x="784" y="999"/>
      <point x="799" y="982"/>
      <point x="844" y="982" type="curve" smooth="yes"/>
      <point x="911" y="982" type="line"/>
      <point x="864" y="719" type="line"/>
      <point x="476" y="719" type="line"/>
      <point x="523" y="982" type="line"/>
      <point x="590" y="982" type="line" smooth="yes"/>
      <point x="635" y="982"/>
      <point x="656" y="999"/>
      <point x="671" y="1084" type="curve" smooth="yes"/>
      <point x="686" y="1169"/>
      <point x="671" y="1187"/>
      <point x="626" y="1187" type="curve" smooth="yes"/>
      <point x="252" y="1187" type="line" smooth="yes"/>
      <point x="207" y="1187"/>
      <point x="186" y="1169"/>
      <point x="171" y="1084" type="curve" smooth="yes"/>
      <point x="156" y="999"/>
      <point x="171" y="982"/>
      <point x="216" y="982" type="curve" smooth="yes"/>
      <point x="273" y="982" type="line"/>
      <point x="136" y="205" type="line"/>
      <point x="79" y="205" type="line" smooth="yes"/>
      <point x="34" y="205"/>
      <point x="12" y="187"/>
      <point x="-3" y="102" type="curve" smooth="yes"/>
      <point x="-18" y="17"/>
      <point x="-2" y="0"/>
      <point x="43" y="0" type="curve" smooth="yes"/>
      <point x="417" y="0" type="line" smooth="yes"/>
      <point x="462" y="0"/>
      <point x="482" y="17"/>
      <point x="497" y="102" type="curve" smooth="yes"/>
      <point x="512" y="187"/>
      <point x="498" y="205"/>
      <point x="453" y="205" type="curve" smooth="yes"/>
      <point x="386" y="205" type="line"/>
      <point x="438" y="504" type="line"/>
      <point x="826" y="504" type="line"/>
      <point x="774" y="205" type="line"/>
      <point x="707" y="205" type="line" smooth="yes"/>
      <point x="662" y="205"/>
      <point x="640" y="187"/>
      <point x="625" y="102" type="curve" smooth="yes"/>
      <point x="610" y="17"/>
      <point x="626" y="0"/>
      <point x="671" y="0" type="curve" smooth="yes"/>
      <point x="1045" y="0" type="line" smooth="yes"/>
      <point x="1090" y="0"/>
      <point x="1110" y="17"/>
      <point x="1125" y="102" type="curve" smooth="yes"/>
      <point x="1140" y="187"/>
      <point x="1126" y="205"/>
      <point x="1081" y="205" type="curve" smooth="yes"/>
      <point x="1024" y="205" type="line"/>
      <point x="1161" y="982" type="line"/>
      <point x="1218" y="982" type="line" smooth="yes"/>
      <point x="1263" y="982"/>
      <point x="1284" y="999"/>
      <point x="1299" y="1084" type="curve" smooth="yes"/>
      <point x="1314" y="1169"/>
      <point x="1299" y="1187"/>
      <point x="1254" y="1187" type="curve" smooth="yes"/>
    </contour>
  </outline>
</glyph>
<glyph name="I" format="1">
  <advance width="1228"/>
  <unicode hex="0049"/>
  <outline>
    <contour>
      <point x="372" y="1187" type="line" smooth="yes"/>
      <point x="327" y="1187"/>
      <point x="306" y="1169"/>
      <point x="291" y="1084" type="curve" smooth="yes"/>
      <point x="276" y="999"/>
      <point x="291" y="982"/>
      <point x="336" y="982" type="curve" smooth="yes"/>
      <point x="592" y="982" type="line"/>
      <point x="455" y="205" type="line"/>
      <point x="219" y="205" type="line" smooth="yes"/>
      <point x="174" y="205"/>
      <point x="152" y="187"/>
      <point x="137" y="102" type="curve" smooth="yes"/>
      <point x="122" y="17"/>
      <point x="138" y="0"/>
      <point x="183" y="0" type="curve" smooth="yes"/>
      <point x="925" y="0" type="line" smooth="yes"/>
      <point x="970" y="0"/>
      <point x="990" y="17"/>
      <point x="1005" y="102" type="curve" smooth="yes"/>
      <point x="1020" y="187"/>
      <point x="1006" y="205"/>
      <point x="961" y="205" type="curve" smooth="yes"/>
      <point x="705" y="205" type="line"/>
      <point x="842" y="982" type="line"/>
      <point x="1078" y="982" type="line" smooth="yes"/>
      <point x="1123" y="982"/>
      <point x="1144" y="999"/>
      <point x="1159" y="1084" type="curve" smooth="yes"/>
      <point x="1174" y="1169"/>
      <point x="1159" y="1187"/>
      <point x="1114" y="1187" type="curve" smooth="yes"/>
    </contour>
  </outline>
</glyph>
<glyph name="J" format="1">
  <advance width="1228"/>
  <unicode hex="004A"/>
  <outline>
    <contour>
      <point x="782" y="982" type="line"/>
      <point x="676" y="383" type="line" smooth="yes"/>
      <point x="654" y="260"/>
      <point x="589" y="205"/>
      <point x="481" y="205" type="curve" smooth="yes"/>
      <point x="418" y="205"/>
      <point x="364" y="218"/>
      <point x="322" y="244" type="curve"/>
      <point x="366" y="499" type="line" smooth="yes"/>
      <point x="374" y="544"/>
      <point x="355" y="562"/>
      <point x="260" y="562" type="curve" smooth="yes"/>
      <point x="165" y="562"/>
      <point x="124" y="544"/>
      <point x="116" y="499" type="curve" smooth="yes"/>
      <point x="61" y="185" type="line" smooth="yes"/>
      <point x="57" y="162"/>
      <point x="59" y="146"/>
      <point x="69" y="135" type="curve" smooth="yes"/>
      <point x="154" y="37"/>
      <point x="294" y="-22"/>
      <point x="450" y="-22" type="curve" smooth="yes"/>
      <point x="727" y="-22"/>
      <point x="875" y="95"/>
      <point x="921" y="353" type="curve" smooth="yes"/>
      <point x="1032" y="982" type="line"/>
      <point x="1208" y="982" type="line" smooth="yes"/>
      <point x="1253" y="982"/>
      <point x="1274" y="999"/>
      <point x="1289" y="1084" type="curve" smooth="yes"/>
      <point x="1304" y="1169"/>
      <point x="1289" y="1187"/>
      <point x="1244" y="1187" type="curve" smooth="yes"/>
      <point x="502" y="1187" type="line" smooth="yes"/>
      <point x="457" y="1187"/>
      <point x="436" y="1169"/>
      <point x="421" y="1084" type="curve" smooth="yes"/>
      <point x="406" y="999"/>
      <point x="421" y="982"/>
      <point x="466" y="982" type="curve" smooth="yes"/>
    </contour>
  </outline>
</glyph>
<glyph name="L" format="1">
  <advance width="1228"/>
  <unicode hex="004C"/>
  <outline>
    <contour>
      <point x="235" y="205" type="line"/>
      <point x="89" y="205" type="line" smooth="yes"/>
      <point x="44" y="205"/>
      <point x="22" y="187"/>
      <point x="7" y="102" type="curve" smooth="yes"/>
      <point x="-8" y="17"/>
      <point x="8" y="0"/>
      <point x="53" y="0" type="curve" smooth="yes"/>
      <point x="985" y="0" type="line" smooth="yes"/>
      <point x="1031" y="0"/>
      <point x="1053" y="19"/>
      <point x="1061" y="65" type="curve" smooth="yes"/>
      <point x="1142" y="527" type="line" smooth="yes"/>
      <point x="1150" y="572"/>
      <point x="1131" y="590"/>
      <point x="1036" y="590" type="curve" smooth="yes"/>
      <point x="941" y="590"/>
      <point x="900" y="572"/>
      <point x="892" y="527" type="curve" smooth="yes"/>
      <point x="837" y="215" type="line"/>
      <point x="486" y="215" type="line"/>
      <point x="622" y="982" type="line"/>
      <point x="840" y="982" type="line" smooth="yes"/>
      <point x="885" y="982"/>
      <point x="906" y="999"/>
      <point x="921" y="1084" type="curve" smooth="yes"/>
      <point x="936" y="1169"/>
      <point x="921" y="1187"/>
      <point x="876" y="1187" type="curve" smooth="yes"/>
      <point x="262" y="1187" type="line" smooth="yes"/>
      <point x="217" y="1187"/>
      <point x="196" y="1169"/>
      <point x="181" y="1084" type="curve" smooth="yes"/>
      <point x="166" y="999"/>
      <point x="181" y="982"/>
      <point x="226" y="982" type="curve" smooth="yes"/>
      <point x="372" y="982" type="line"/>
    </contour>
  </outline>
</glyph>
<glyph name="M" format="1">
  <advance width="1228"/>
  <unicode hex="004D"/>
  <outline>
    <contour>
      <point x="979" y="1187" type="line" smooth="yes"/>
      <point x="952" y="1187"/>
      <point x="932" y="1180"/>
      <point x="919" y="1156" type="curve" smooth="yes"/>
      <point x="651" y="665" type="line"/>
      <point x="554" y="1156" type="line" smooth="yes"/>
      <point x="549" y="1180"/>
      <point x="533" y="1187"/>
      <point x="506" y="1187" type="curve" smooth="yes"/>
      <point x="232" y="1187" type="line" smooth="yes"/>
      <point x="187" y="1187"/>
      <point x="166" y="1169"/>
      <point x="151" y="1084" type="curve" smooth="yes"/>
      <point x="136" y="999"/>
      <point x="151" y="982"/>
      <point x="196" y="982" type="curve" smooth="yes"/>
      <point x="250" y="982" type="line"/>
      <point x="98" y="205" type="line"/>
      <point x="39" y="205" type="line" smooth="yes"/>
      <point x="-6" y="205"/>
      <point x="-28" y="187"/>
      <point x="-43" y="102" type="curve" smooth="yes"/>
      <point x="-58" y="17"/>
      <point x="-42" y="0"/>
      <point x="3" y="0" type="curve" smooth="yes"/>
      <point x="377" y="0" type="line" smooth="yes"/>
      <point x="422" y="0"/>
      <point x="442" y="17"/>
      <point x="457" y="102" type="curve" smooth="yes"/>
      <point x="472" y="187"/>
      <point x="458" y="205"/>
      <point x="413" y="205" type="curve" smooth="yes"/>
      <point x="320" y="205" type="line"/>
      <point x="430" y="794" type="line"/>
      <point x="510" y="389" type="line" smooth="yes"/>
      <point x="519" y="343"/>
      <point x="545" y="325"/>
      <point x="602" y="325" type="curve" smooth="yes"/>
      <point x="659" y="325"/>
      <point x="688" y="343"/>
      <point x="714" y="389" type="curve" smooth="yes"/>
      <point x="937" y="797" type="line"/>
      <point x="839" y="205" type="line"/>
      <point x="747" y="205" type="line" smooth="yes"/>
      <point x="702" y="205"/>
      <point x="680" y="187"/>
      <point x="665" y="102" type="curve" smooth="yes"/>
      <point x="650" y="17"/>
      <point x="666" y="0"/>
      <point x="711" y="0" type="curve" smooth="yes"/>
      <point x="1085" y="0" type="line" smooth="yes"/>
      <point x="1130" y="0"/>
      <point x="1150" y="17"/>
      <point x="1165" y="102" type="curve" smooth="yes"/>
      <point x="1180" y="187"/>
      <point x="1166" y="205"/>
      <point x="1121" y="205" type="curve" smooth="yes"/>
      <point x="1061" y="205" type="line"/>
      <point x="1184" y="982" type="line"/>
      <point x="1238" y="982" type="line" smooth="yes"/>
      <point x="1283" y="982"/>
      <point x="1304" y="999"/>
      <point x="1319" y="1084" type="curve" smooth="yes"/>
      <point x="1334" y="1169"/>
      <point x="1319" y="1187"/>
      <point x="1274" y="1187" type="curve" smooth="yes"/>
    </contour>
  </outline>
</glyph>
<glyph name="N" format="1">
  <advance width="1228"/>
  <unicode hex="004E"/>
  <outline>
    <contour>
      <point x="899" y="1187" type="line" smooth="yes"/>
      <point x="854" y="1187"/>
      <point x="833" y="1169"/>
      <point x="818" y="1084" type="curve" smooth="yes"/>
      <point x="803" y="999"/>
      <point x="818" y="982"/>
      <point x="863" y="982" type="curve" smooth="yes"/>
      <point x="955" y="982" type="line"/>
      <point x="861" y="453" type="line"/>
      <point x="857" y="453" type="line"/>
      <point x="567" y="1160" type="line" smooth="yes"/>
      <point x="559" y="1180"/>
      <point x="541" y="1187"/>
      <point x="516" y="1187" type="curve" smooth="yes"/>
      <point x="252" y="1187" type="line" smooth="yes"/>
      <point x="207" y="1187"/>
      <point x="186" y="1169"/>
      <point x="171" y="1084" type="curve" smooth="yes"/>
      <point x="156" y="999"/>
      <point x="171" y="982"/>
      <point x="216" y="982" type="curve" smooth="yes"/>
      <point x="283" y="982" type="line"/>
      <point x="146" y="205" type="line"/>
      <point x="79" y="205" type="line" smooth="yes"/>
      <point x="34" y="205"/>
      <point x="12" y="187"/>
      <point x="-3" y="102" type="curve" smooth="yes"/>
      <point x="-18" y="17"/>
      <point x="-2" y="0"/>
      <point x="43" y="0" type="curve" smooth="yes"/>
      <point x="447" y="0" type="line" smooth="yes"/>
      <point x="492" y="0"/>
      <point x="512" y="17"/>
      <point x="527" y="102" type="curve" smooth="yes"/>
      <point x="542" y="187"/>
      <point x="528" y="205"/>
      <point x="483" y="205" type="curve" smooth="yes"/>
      <point x="372" y="205" type="line"/>
      <point x="476" y="796" type="line"/>
      <point x="480" y="796" type="line"/>
      <point x="795" y="31" type="line" smooth="yes"/>
      <point x="809" y="-3"/>
      <point x="829" y="-22"/>
      <point x="894" y="-22" type="curve" smooth="yes"/>
      <point x="978" y="-22"/>
      <point x="1008" y="2"/>
      <point x="1015" y="44" type="curve" smooth="yes"/>
      <point x="1181" y="982" type="line"/>
      <point x="1238" y="982" type="line" smooth="yes"/>
      <point x="1283" y="982"/>
      <point x="1304" y="999"/>
      <point x="1319" y="1084" type="curve" smooth="yes"/>
      <point x="1334" y="1169"/>
      <point x="1319" y="1187"/>
      <point x="1274" y="1187" type="curve" smooth="yes"/>
    </contour>
  </outline>
</glyph>
<glyph name="O" format="1">
  <advance width="1228"/>
  <unicode hex="004F"/>
  <outline>
    <contour>
      <point x="525" y="1209"/>
      <point x="350" y="1120"/>
      <point x="235" y="956" type="curve" smooth="yes"/>
      <point x="138" y="818"/>
      <point x="88" y="629"/>
      <point x="88" y="471" type="curve" smooth="yes"/>
      <point x="88" y="171"/>
      <point x="273" y="-22"/>
      <point x="560" y="-22" type="curve" smooth="yes"/>
      <point x="772" y="-22"/>
      <point x="947" y="67"/>
      <point x="1062" y="231" type="curve" smooth="yes"/>
      <point x="1159" y="369"/>
      <point x="1209" y="558"/>
      <point x="1209" y="716" type="curve" smooth="yes"/>
      <point x="1209" y="1016"/>
      <point x="1024" y="1209"/>
      <point x="737" y="1209" type="curve" smooth="yes"/>
    </contour>
    <contour>
      <point x="869" y="982"/>
      <point x="944" y="888"/>
      <point x="944" y="720" type="curve" smooth="yes"/>
      <point x="944" y="596"/>
      <point x="907" y="439"/>
      <point x="835" y="338" type="curve" smooth="yes"/>
      <point x="773" y="252"/>
      <point x="688" y="205"/>
      <point x="580" y="205" type="curve" smooth="yes"/>
      <point x="428" y="205"/>
      <point x="353" y="299"/>
      <point x="353" y="467" type="curve" smooth="yes"/>
      <point x="353" y="591"/>
      <point x="390" y="748"/>
      <point x="462" y="849" type="curve" smooth="yes"/>
      <point x="524" y="935"/>
      <point x="609" y="982"/>
      <point x="717" y="982" type="curve" smooth="yes"/>
    </contour>
  </outline>
</glyph>
<glyph name="R" format="1">
  <advance width="1228"/>
  <unicode hex="0052"/>
  <outline>
    <contour>
      <point x="262" y="1187" type="line" smooth="yes"/>
      <point x="217" y="1187"/>
      <point x="196" y="1169"/>
      <point x="181" y="1084" type="curve" smooth="yes"/>
      <point x="166" y="999"/>
      <point x="181" y="982"/>
      <point x="226" y="982" type="curve" smooth="yes"/>
      <point x="333" y="982" type="line"/>
      <point x="196" y="205" type="line"/>
      <point x="89" y="205" type="line" smooth="yes"/>
      <point x="44" y="205"/>
      <point x="22" y="187"/>
      <point x="7" y="102" type="curve" smooth="yes"/>
      <point x="-8" y="17"/>
      <point x="8" y="0"/>
      <point x="53" y="0" type="curve" smooth="yes"/>
      <point x="507" y="0" type="line" smooth="yes"/>
      <point x="552" y="0"/>
      <point x="572" y="17"/>
      <point x="587" y="102" type="curve" smooth="yes"/>
      <point x="602" y="187"/>
      <point x="588" y="205"/>
      <point x="543" y="205" type="curve" smooth="yes"/>
      <point x="446" y="205" type="line"/>
      <point x="491" y="461" type="line"/>
      <point x="555" y="461" type="line" smooth="yes"/>
      <point x="625" y="461"/>
      <point x="670" y="437"/>
      <point x="701" y="380" type="curve" smooth="yes"/>
      <point x="743" y="302"/>
      <point x="754" y="215"/>
      <point x="785" y="139" type="curve" smooth="yes"/>
      <point x="824" y="43"/>
      <point x="871" y="0"/>
      <point x="978" y="0" type="curve" smooth="yes"/>
      <point x="1065" y="0" type="line" smooth="yes"/>
      <point x="1110" y="0"/>
      <point x="1131" y="17"/>
      <point x="1146" y="102" type="curve" smooth="yes"/>
      <point x="1161" y="187"/>
      <point x="1146" y="205"/>
      <point x="1101" y="205" type="curve" smooth="yes"/>
      <point x="1082" y="205" type="line" smooth="yes"/>
      <point x="1046" y="205"/>
      <point x="1026" y="231"/>
      <point x="1009" y="271" type="curve" smooth="yes"/>
      <point x="984" y="331"/>
      <point x="965" y="400"/>
      <point x="928" y="464" type="curve" smooth="yes"/>
      <point x="910" y="495"/>
      <point x="884" y="520"/>
      <point x="853" y="533" type="curve"/>
      <point x="1083" y="586"/>
      <point x="1166" y="720"/>
      <point x="1166" y="888" type="curve" smooth="yes"/>
      <point x="1166" y="1077"/>
      <point x="1026" y="1187"/>
      <point x="779" y="1187" type="curve" smooth="yes"/>
    </contour>
    <contour>
      <point x="851" y="972"/>
      <point x="907" y="934"/>
      <point x="907" y="857" type="curve" smooth="yes"/>
      <point x="907" y="813"/>
      <point x="890" y="765"/>
      <point x="861" y="734" type="curve" smooth="yes"/>
      <point x="824" y="695"/>
      <point x="764" y="676"/>
      <point x="678" y="676" type="curve" smooth="yes"/>
      <point x="529" y="676" type="line"/>
      <point x="581" y="972" type="line"/>
      <point x="730" y="972" type="line" smooth="yes"/>
    </contour>
  </outline>
</glyph>
<glyph name="S" format="1">
  <advance width="1228"/>
  <unicode hex="0053"/>
  <outline>
    <contour>
      <point x="333" y="84" type="line"/>
      <point x="398" y="18"/>
      <point x="497" y="-22"/>
      <point x="608" y="-22" type="curve" smooth="yes"/>
      <point x="780" y="-22"/>
      <point x="907" y="32"/>
      <point x="986" y="127" type="curve" smooth="yes"/>
      <point x="1053" y="208"/>
      <point x="1081" y="317"/>
      <point x="1081" y="413" type="curve" smooth="yes"/>
      <point x="1081" y="522"/>
      <point x="1036" y="592"/>
      <point x="972" y="639" type="curve" smooth="yes"/>
      <point x="852" y="727"/>
      <point x="662" y="735"/>
      <point x="561" y="775" type="curve" smooth="yes"/>
      <point x="519" y="792"/>
      <point x="493" y="813"/>
      <point x="493" y="849" type="curve" smooth="yes"/>
      <point x="493" y="911"/>
      <point x="550" y="996"/>
      <point x="673" y="996" type="curve" smooth="yes"/>
      <point x="805" y="996"/>
      <point x="894" y="937"/>
      <point x="938" y="841" type="curve" smooth="yes"/>
      <point x="948" y="820"/>
      <point x="969" y="809"/>
      <point x="1014" y="809" type="curve" smooth="yes"/>
      <point x="1079" y="809"/>
      <point x="1109" y="827"/>
      <point x="1117" y="872" type="curve" smooth="yes"/>
      <point x="1166" y="1146" type="line" smooth="yes"/>
      <point x="1174" y="1191"/>
      <point x="1144" y="1209"/>
      <point x="1059" y="1209" type="curve" smooth="yes"/>
      <point x="974" y="1209"/>
      <point x="945" y="1191"/>
      <point x="936" y="1146" type="curve" smooth="yes"/>
      <point x="928" y="1104" type="line"/>
      <point x="873" y="1168"/>
      <point x="779" y="1209"/>
      <point x="671" y="1209" type="curve" smooth="yes"/>
      <point x="527" y="1209"/>
      <point x="400" y="1154"/>
      <point x="319" y="1057" type="curve" smooth="yes"/>
      <point x="256" y="982"/>
      <point x="225" y="883"/>
      <point x="225" y="793" type="curve" smooth="yes"/>
      <point x="225" y="705"/>
      <point x="259" y="646"/>
      <point x="312" y="604" type="curve" smooth="yes"/>
      <point x="424" y="514"/>
      <point x="619" y="504"/>
      <point x="729" y="454" type="curve" smooth="yes"/>
      <point x="779" y="431"/>
      <point x="811" y="401"/>
      <point x="811" y="351" type="curve" smooth="yes"/>
      <point x="811" y="282"/>
      <point x="763" y="191"/>
      <point x="605" y="191" type="curve" smooth="yes"/>
      <point x="470" y="191"/>
      <point x="385" y="263"/>
      <point x="338" y="398" type="curve" smooth="yes"/>
      <point x="328" y="427"/>
      <point x="305" y="438"/>
      <point x="258" y="438" type="curve" smooth="yes"/>
      <point x="193" y="438"/>
      <point x="163" y="420"/>
      <point x="155" y="375" type="curve" smooth="yes"/>
      <point x="96" y="41" type="line" smooth="yes"/>
      <point x="88" y="-4"/>
      <point x="118" y="-22"/>
      <point x="203" y="-22" type="curve" smooth="yes"/>
      <point x="288" y="-22"/>
      <point x="319" y="-4"/>
      <point x="326" y="41" type="curve" smooth="yes"/>
    </contour>
  </outline>
</glyph>
<glyph name="T" format="1">
  <advance width="1228"/>
  <unicode hex="0054"/>
  <outline>
    <contour>
      <point x="455" y="205" type="line"/>
      <point x="249" y="205" type="line" smooth="yes"/>
      <point x="204" y="205"/>
      <point x="182" y="187"/>
      <point x="167" y="102" type="curve" smooth="yes"/>
      <point x="152" y="17"/>
      <point x="168" y="0"/>
      <point x="213" y="0" type="curve" smooth="yes"/>
      <point x="895" y="0" type="line" smooth="yes"/>
      <point x="940" y="0"/>
      <point x="960" y="17"/>
      <point x="975" y="102" type="curve" smooth="yes"/>
      <point x="990" y="187"/>
      <point x="976" y="205"/>
      <point x="931" y="205" type="curve" smooth="yes"/>
      <point x="705" y="205" type="line"/>
      <point x="840" y="972" type="line"/>
      <point x="1021" y="972" type="line"/>
      <point x="973" y="700" type="line" smooth="yes"/>
      <point x="965" y="655"/>
      <point x="985" y="637"/>
      <point x="1060" y="637" type="curve" smooth="yes"/>
      <point x="1135" y="637"/>
      <point x="1175" y="655"/>
      <point x="1183" y="700" type="curve" smooth="yes"/>
      <point x="1257" y="1122" type="line" smooth="yes"/>
      <point x="1265" y="1168"/>
      <point x="1250" y="1187"/>
      <point x="1204" y="1187" type="curve" smooth="yes"/>
      <point x="302" y="1187" type="line" smooth="yes"/>
      <point x="256" y="1187"/>
      <point x="233" y="1168"/>
      <point x="225" y="1122" type="curve" smooth="yes"/>
      <point x="151" y="700" type="line" smooth="yes"/>
      <point x="143" y="655"/>
      <point x="163" y="637"/>
      <point x="238" y="637" type="curve" smooth="yes"/>
      <point x="313" y="637"/>
      <point x="353" y="655"/>
      <point x="361" y="700" type="curve" smooth="yes"/>
      <point x="409" y="972" type="line"/>
      <point x="590" y="972" type="line"/>
    </contour>
  </outline>
</glyph>
<glyph name="X" format="1">
  <advance width="1228"/>
  <unicode hex="0058"/>
  <outline>
    <contour>
      <point x="880" y="1187" type="line" smooth="yes"/>
      <point x="835" y="1187"/>
      <point x="814" y="1169"/>
      <point x="799" y="1084" type="curve" smooth="yes"/>
      <point x="784" y="999"/>
      <point x="799" y="982"/>
      <point x="844" y="982" type="curve" smooth="yes"/>
      <point x="858" y="982" type="line"/>
      <point x="682" y="780" type="line"/>
      <point x="577" y="982" type="line"/>
      <point x="620" y="982" type="line" smooth="yes"/>
      <point x="665" y="982"/>
      <point x="686" y="999"/>
      <point x="701" y="1084" type="curve" smooth="yes"/>
      <point x="716" y="1169"/>
      <point x="701" y="1187"/>
      <point x="656" y="1187" type="curve" smooth="yes"/>
      <point x="262" y="1187" type="line" smooth="yes"/>
      <point x="217" y="1187"/>
      <point x="196" y="1169"/>
      <point x="181" y="1084" type="curve" smooth="yes"/>
      <point x="166" y="999"/>
      <point x="181" y="982"/>
      <point x="226" y="982" type="curve" smooth="yes"/>
      <point x="296" y="982" type="line"/>
      <point x="490" y="622" type="line"/>
      <point x="121" y="205" type="line"/>
      <point x="59" y="205" type="line" smooth="yes"/>
      <point x="14" y="205"/>
      <point x="-8" y="187"/>
      <point x="-23" y="102" type="curve" smooth="yes"/>
      <point x="-38" y="17"/>
      <point x="-22" y="0"/>
      <point x="23" y="0" type="curve" smooth="yes"/>
      <point x="407" y="0" type="line" smooth="yes"/>
      <point x="452" y="0"/>
      <point x="472" y="17"/>
      <point x="487" y="102" type="curve" smooth="yes"/>
      <point x="502" y="187"/>
      <point x="488" y="205"/>
      <point x="443" y="205" type="curve" smooth="yes"/>
      <point x="415" y="205" type="line"/>
      <point x="622" y="442" type="line"/>
      <point x="749" y="205" type="line"/>
      <point x="697" y="205" type="line" smooth="yes"/>
      <point x="652" y="205"/>
      <point x="630" y="187"/>
      <point x="615" y="102" type="curve" smooth="yes"/>
      <point x="600" y="17"/>
      <point x="616" y="0"/>
      <point x="661" y="0" type="curve" smooth="yes"/>
      <point x="1065" y="0" type="line" smooth="yes"/>
      <point x="1110" y="0"/>
      <point x="1130" y="17"/>
      <point x="1145" y="102" type="curve" smooth="yes"/>
      <point x="1160" y="187"/>
      <point x="1146" y="205"/>
      <point x="1101" y="205" type="curve" smooth="yes"/>
      <point x="1030" y="205" type="line"/>
      <point x="813" y="597" type="line"/>
      <point x="1152" y="982" type="line"/>
      <point x="1208" y="982" type="line" smooth="yes"/>
      <point x="1253" y="982"/>
      <point x="1274" y="999"/>
      <point x="1289" y="1084" type="curve" smooth="yes"/>
      <point x="1304" y="1169"/>
      <point x="1289" y="1187"/>
      <point x="1244" y="1187" type="curve" smooth="yes"/>
    </contour>
  </outline>
</glyph>
<glyph name="Y" format="1">
  <advance width="1228"/>
  <unicode hex="0059"/>
  <outline>
    <contour>
      <point x="880" y="1187" type="line" smooth="yes"/>
      <point x="835" y="1187"/>
      <point x="814" y="1169"/>
      <point x="799" y="1084" type="curve" smooth="yes"/>
      <point x="784" y="999"/>
      <point x="799" y="982"/>
      <point x="844" y="982" type="curve" smooth="yes"/>
      <point x="896" y="982" type="line"/>
      <point x="657" y="690" type="line"/>
      <point x="523" y="982" type="line"/>
      <point x="590" y="982" type="line" smooth="yes"/>
      <point x="635" y="982"/>
      <point x="656" y="999"/>
      <point x="671" y="1084" type="curve" smooth="yes"/>
      <point x="686" y="1169"/>
      <point x="671" y="1187"/>
      <point x="626" y="1187" type="curve" smooth="yes"/>
      <point x="242" y="1187" type="line" smooth="yes"/>
      <point x="197" y="1187"/>
      <point x="176" y="1169"/>
      <point x="161" y="1084" type="curve" smooth="yes"/>
      <point x="146" y="999"/>
      <point x="161" y="982"/>
      <point x="206" y="982" type="curve" smooth="yes"/>
      <point x="256" y="982" type="line"/>
      <point x="501" y="467" type="line"/>
      <point x="455" y="205" type="line"/>
      <point x="269" y="205" type="line" smooth="yes"/>
      <point x="224" y="205"/>
      <point x="202" y="187"/>
      <point x="187" y="102" type="curve" smooth="yes"/>
      <point x="172" y="17"/>
      <point x="188" y="0"/>
      <point x="233" y="0" type="curve" smooth="yes"/>
      <point x="875" y="0" type="line" smooth="yes"/>
      <point x="920" y="0"/>
      <point x="940" y="17"/>
      <point x="955" y="102" type="curve" smooth="yes"/>
      <point x="970" y="187"/>
      <point x="956" y="205"/>
      <point x="911" y="205" type="curve" smooth="yes"/>
      <point x="705" y="205" type="line"/>
      <point x="750" y="460" type="line"/>
      <point x="1183" y="982" type="line"/>
      <point x="1228" y="982" type="line" smooth="yes"/>
      <point x="1273" y="982"/>
      <point x="1294" y="999"/>
      <point x="1309" y="1084" type="curve" smooth="yes"/>
      <point x="1324" y="1169"/>
      <point x="1309" y="1187"/>
      <point x="1264" y="1187" type="curve" smooth="yes"/>
    </contour>
  </outline>
</glyph>
<glyph name="bracketleft" format="1">
  <advance width="1228"/>
  <unicode hex="005B"/>
  <outline>
    <contour>
      <point x="436" y="-188" type="line"/>
      <point x="665" y="1107" type="line"/>
      <point x="988" y="1107" type="line" smooth="yes"/>
      <point x="1033" y="1107"/>
      <point x="1054" y="1124"/>
      <point x="1069" y="1209" type="curve" smooth="yes"/>
      <point x="1084" y="1294"/>
      <point x="1069" y="1312"/>
      <point x="1024" y="1312" type="curve" smooth="yes"/>
      <point x="514" y="1312" type="line" smooth="yes"/>
      <point x="469" y="1312"/>
      <point x="448" y="1294"/>
      <point x="440" y="1249" type="curve" smooth="yes"/>
      <point x="161" y="-330" type="line" smooth="yes"/>
      <point x="153" y="-375"/>
      <point x="168" y="-393"/>
      <point x="213" y="-393" type="curve" smooth="yes"/>
      <point x="723" y="-393" type="line" smooth="yes"/>
      <point x="768" y="-393"/>
      <point x="789" y="-375"/>
      <point x="804" y="-290" type="curve" smooth="yes"/>
      <point x="819" y="-205"/>
      <point x="804" y="-188"/>
      <point x="759" y="-188" type="curve" smooth="yes"/>
    </contour>
  </outline>
</glyph>
<glyph name="backslash" format="1">
  <advance width="1228"/>
  <unicode hex="005C"/>
  <outline>
    <contour>
      <point x="735" y="-267" type="line" smooth="yes"/>
      <point x="742" y="-290"/>
      <point x="768" y="-300"/>
      <point x="801" y="-300" type="curve" smooth="yes"/>
      <point x="873" y="-300"/>
      <point x="973" y="-252"/>
      <point x="954" y="-183" type="curve" smooth="yes"/>
      <point x="535" y="1305" type="line" smooth="yes"/>
      <point x="528" y="1328"/>
      <point x="501" y="1339"/>
      <point x="467" y="1339" type="curve" smooth="yes"/>
      <point x="395" y="1339"/>
      <point x="296" y="1292"/>
      <point x="316" y="1221" type="curve" smooth="yes"/>
    </contour>
  </outline>
</glyph>
<glyph name="bracketright" format="1">
  <advance width="1228"/>
  <unicode hex="005D"/>
  <outline>
    <contour>
      <point x="584" y="-188" type="line"/>
      <point x="261" y="-188" type="line" smooth="yes"/>
      <point x="216" y="-188"/>
      <point x="195" y="-205"/>
      <point x="180" y="-290" type="curve" smooth="yes"/>
      <point x="165" y="-375"/>
      <point x="180" y="-393"/>
      <point x="225" y="-393" type="curve" smooth="yes"/>
      <point x="735" y="-393" type="line" smooth="yes"/>
      <point x="780" y="-393"/>
      <point x="801" y="-375"/>
      <point x="809" y="-330" type="curve" smooth="yes"/>
      <point x="1088" y="1249" type="line" smooth="yes"/>
      <point x="1096" y="1294"/>
      <point x="1081" y="1312"/>
      <point x="1036" y="1312" type="curve" smooth="yes"/>
      <point x="526" y="1312" type="line" smooth="yes"/>
      <point x="481" y="1312"/>
      <point x="460" y="1294"/>
      <point x="445" y="1209" type="curve" smooth="yes"/>
      <point x="430" y="1124"/>
      <point x="445" y="1107"/>
      <point x="490" y="1107" type="curve" smooth="yes"/>
      <point x="813" y="1107" type="line"/>
    </contour>
  </outline>
</glyph>
<glyph name="asciicircum" format="1">
  <advance width="1228"/>
  <unicode hex="005E"/>
  <outline>
    <contour>
      <point x="698" y="1209"/>
      <point x="669" y="1196"/>
      <point x="652" y="1172" type="curve" smooth="yes"/>
      <point x="227" y="562" type="line" smooth="yes"/>
      <point x="198" y="520"/>
      <point x="254" y="486"/>
      <point x="319" y="473" type="curve" smooth="yes"/>
      <point x="375" y="462"/>
      <point x="438" y="467"/>
      <point x="457" y="497" type="curve" smooth="yes"/>
      <point x="710" y="887" type="line"/>
      <point x="831" y="497" type="line" smooth="yes"/>
      <point x="841" y="464"/>
      <point x="908" y="461"/>
      <point x="967" y="477" type="curve" smooth="yes"/>
      <point x="1023" y="492"/>
      <point x="1072" y="524"/>
      <point x="1059" y="562" type="curve" smooth="yes"/>
      <point x="848" y="1172" type="line" smooth="yes"/>
      <point x="840" y="1196"/>
      <point x="815" y="1209"/>
      <point x="757" y="1209" type="curve" smooth="yes"/>
    </contour>
  </outline>
</glyph>
<glyph name="underscore" format="1">
  <advance width="1228"/>
  <unicode hex="005F"/>
  <outline>
    <contour>
      <point x="1172" y="-513" type="line" smooth="yes"/>
      <point x="1197" y="-513"/>
      <point x="1208" y="-496"/>
      <point x="1225" y="-401" type="curve" smooth="yes"/>
      <point x="1242" y="-306"/>
      <point x="1237" y="-288"/>
      <point x="1212" y="-288" type="curve" smooth="yes"/>
      <point x="-25" y="-288" type="line" smooth="yes"/>
      <point x="-50" y="-288"/>
      <point x="-61" y="-306"/>
      <point x="-78" y="-401" type="curve" smooth="yes"/>
      <point x="-95" y="-496"/>
      <point x="-90" y="-513"/>
      <point x="-65" y="-513" type="curve" smooth="yes"/>
    </contour>
  </outline>
</glyph>
<glyph name="grave" format="1">
  <advance width="1228"/>
  <unicode hex="0060"/>
  <outline>
    <contour>
      <point x="533" y="1392" type="line" smooth="yes"/>
      <point x="496" y="1414"/>
      <point x="453" y="1392"/>
      <point x="413" y="1301" type="curve" smooth="yes"/>
      <point x="373" y="1209"/>
      <point x="382" y="1167"/>
      <point x="416" y="1158" type="curve" smooth="yes"/>
      <point x="896" y="1033" type="line" smooth="yes"/>
      <point x="928" y="1024"/>
      <point x="953" y="1042"/>
      <point x="964" y="1072" type="curve" smooth="yes"/>
      <point x="975" y="1101"/>
      <point x="967" y="1129"/>
      <point x="941" y="1145" type="curve" smooth="yes"/>
    </contour>
  </outline>
</glyph>
<glyph name="a" format="1">
  <advance width="1228"/>
  <unicode hex="0061"/>
  <outline>
    <contour>
      <point x="248" y="946"/>
      <point x="83" y="632"/>
      <point x="83" y="380" type="curve" smooth="yes"/>
      <point x="83" y="156"/>
      <point x="220" y="-22"/>
      <point x="454" y="-22" type="curve" smooth="yes"/>
      <point x="570" y="-22"/>
      <point x="687" y="25"/>
      <point x="785" y="127" type="curve"/>
      <point x="800" y="33"/>
      <point x="872" y="0"/>
      <point x="951" y="0" type="curve" smooth="yes"/>
      <point x="1046" y="0" type="line" smooth="yes"/>
      <point x="1091" y="0"/>
      <point x="1111" y="17"/>
      <point x="1126" y="102" type="curve" smooth="yes"/>
      <point x="1141" y="187"/>
      <point x="1127" y="205"/>
      <point x="1082" y="205" type="curve" smooth="yes"/>
      <point x="1053" y="205" type="line" smooth="yes"/>
      <point x="1010" y="205"/>
      <point x="992" y="237"/>
      <point x="1002" y="290" type="curve" smooth="yes"/>
      <point x="1104" y="871" type="line" smooth="yes"/>
      <point x="1112" y="916"/>
      <point x="1092" y="934"/>
      <point x="1017" y="934" type="curve" smooth="yes"/>
      <point x="942" y="934"/>
      <point x="902" y="916"/>
      <point x="894" y="871" type="curve" smooth="yes"/>
      <point x="878" y="777" type="line"/>
      <point x="828" y="882"/>
      <point x="722" y="946"/>
      <point x="594" y="946" type="curve" smooth="yes"/>
    </contour>
    <contour>
      <point x="713" y="719"/>
      <point x="795" y="650"/>
      <point x="795" y="522" type="curve" smooth="yes"/>
      <point x="795" y="375"/>
      <point x="694" y="205"/>
      <point x="514" y="205" type="curve" smooth="yes"/>
      <point x="409" y="205"/>
      <point x="349" y="276"/>
      <point x="349" y="391" type="curve" smooth="yes"/>
      <point x="349" y="520"/>
      <point x="422" y="719"/>
      <point x="604" y="719" type="curve" smooth="yes"/>
    </contour>
  </outline>
</glyph>
<glyph name="b" format="1">
  <advance width="1228"/>
  <unicode hex="0062"/>
  <outline>
    <contour>
      <point x="241" y="1312" type="line" smooth="yes"/>
      <point x="196" y="1312"/>
      <point x="175" y="1294"/>
      <point x="160" y="1209" type="curve" smooth="yes"/>
      <point x="145" y="1124"/>
      <point x="160" y="1107"/>
      <point x="205" y="1107" type="curve" smooth="yes"/>
      <point x="302" y="1107" type="line"/>
      <point x="116" y="53" type="line" smooth="yes"/>
      <point x="108" y="8"/>
      <point x="128" y="-10"/>
      <point x="203" y="-10" type="curve" smooth="yes"/>
      <point x="278" y="-10"/>
      <point x="318" y="8"/>
      <point x="326" y="53" type="curve" smooth="yes"/>
      <point x="343" y="152" type="line"/>
      <point x="393" y="47"/>
      <point x="498" y="-22"/>
      <point x="626" y="-22" type="curve" smooth="yes"/>
      <point x="972" y="-22"/>
      <point x="1137" y="292"/>
      <point x="1137" y="544" type="curve" smooth="yes"/>
      <point x="1137" y="780"/>
      <point x="998" y="946"/>
      <point x="776" y="946" type="curve" smooth="yes"/>
      <point x="673" y="946"/>
      <point x="583" y="903"/>
      <point x="503" y="833" type="curve"/>
      <point x="577" y="1249" type="line" smooth="yes"/>
      <point x="585" y="1294"/>
      <point x="570" y="1312"/>
      <point x="525" y="1312" type="curve" smooth="yes"/>
    </contour>
    <contour>
      <point x="811" y="719"/>
      <point x="871" y="648"/>
      <point x="871" y="533" type="curve" smooth="yes"/>
      <point x="871" y="404"/>
      <point x="798" y="205"/>
      <point x="616" y="205" type="curve" smooth="yes"/>
      <point x="507" y="205"/>
      <point x="425" y="274"/>
      <point x="425" y="402" type="curve" smooth="yes"/>
      <point x="425" y="549"/>
      <point x="526" y="719"/>
      <point x="706" y="719" type="curve" smooth="yes"/>
    </contour>
  </outline>
</glyph>
<glyph name="d" format="1">
  <advance width="1228"/>
  <unicode hex="0064"/>
  <outline>
    <contour>
      <point x="795" y="1312" type="line" smooth="yes"/>
      <point x="750" y="1312"/>
      <point x="729" y="1294"/>
      <point x="714" y="1209" type="curve" smooth="yes"/>
      <point x="699" y="1124"/>
      <point x="714" y="1107"/>
      <point x="759" y="1107" type="curve" smooth="yes"/>
      <point x="906" y="1107" type="line"/>
      <point x="856" y="824" type="line"/>
      <point x="800" y="899"/>
      <point x="710" y="946"/>
      <point x="604" y="946" type="curve" smooth="yes"/>
      <point x="258" y="946"/>
      <point x="93" y="632"/>
      <point x="93" y="380" type="curve" smooth="yes"/>
      <point x="93" y="144"/>
      <point x="232" y="-22"/>
      <point x="454" y="-22" type="curve" smooth="yes"/>
      <point x="575" y="-22"/>
      <point x="681" y="38"/>
      <point x="775" y="138" type="curve"/>
      <point x="762" y="63" type="line" smooth="yes"/>
      <point x="754" y="18"/>
      <point x="769" y="0"/>
      <point x="814" y="0" type="curve" smooth="yes"/>
      <point x="1048" y="0" type="line" smooth="yes"/>
      <point x="1093" y="0"/>
      <point x="1114" y="18"/>
      <point x="1129" y="103" type="curve" smooth="yes"/>
      <point x="1144" y="188"/>
      <point x="1129" y="205"/>
      <point x="1084" y="205" type="curve" smooth="yes"/>
      <point x="997" y="205" type="line"/>
      <point x="1181" y="1249" type="line" smooth="yes"/>
      <point x="1189" y="1294"/>
      <point x="1174" y="1312"/>
      <point x="1129" y="1312" type="curve" smooth="yes"/>
    </contour>
    <contour>
      <point x="723" y="719"/>
      <point x="805" y="650"/>
      <point x="805" y="522" type="curve" smooth="yes"/>
      <point x="805" y="375"/>
      <point x="704" y="205"/>
      <point x="524" y="205" type="curve" smooth="yes"/>
      <point x="419" y="205"/>
      <point x="359" y="276"/>
      <point x="359" y="391" type="curve" smooth="yes"/>
      <point x="359" y="520"/>
      <point x="432" y="719"/>
      <point x="614" y="719" type="curve" smooth="yes"/>
    </contour>
  </outline>
</glyph>
<glyph name="e" format="1">
  <advance width="1228"/>
  <unicode hex="0065"/>
  <outline>
    <contour>
      <point x="348" y="946"/>
      <point x="137" y="686"/>
      <point x="137" y="379" type="curve" smooth="yes"/>
      <point x="137" y="149"/>
      <point x="283" y="-22"/>
      <point x="544" y="-22" type="curve" smooth="yes"/>
      <point x="687" y="-22"/>
      <point x="843" y="5"/>
      <point x="984" y="49" type="curve" smooth="yes"/>
      <point x="1035" y="65"/>
      <point x="1049" y="94"/>
      <point x="1033" y="176" type="curve" smooth="yes"/>
      <point x="1017" y="257"/>
      <point x="995" y="273"/>
      <point x="949" y="260" type="curve" smooth="yes"/>
      <point x="810" y="220"/>
      <point x="692" y="205"/>
      <point x="584" y="205" type="curve" smooth="yes"/>
      <point x="439" y="205"/>
      <point x="371" y="291"/>
      <point x="399" y="459" type="curve" smooth="yes"/>
      <point x="428" y="633"/>
      <point x="527" y="719"/>
      <point x="688" y="719" type="curve" smooth="yes"/>
      <point x="796" y="719"/>
      <point x="839" y="672"/>
      <point x="839" y="624" type="curve" smooth="yes"/>
      <point x="839" y="590"/>
      <point x="821" y="557"/>
      <point x="761" y="551" type="curve" smooth="yes"/>
      <point x="322" y="507" type="line"/>
      <point x="289" y="318" type="line"/>
      <point x="852" y="374" type="line" smooth="yes"/>
      <point x="1023" y="391"/>
      <point x="1103" y="485"/>
      <point x="1103" y="634" type="curve" smooth="yes"/>
      <point x="1103" y="817"/>
      <point x="949" y="946"/>
      <point x="714" y="946" type="curve" smooth="yes"/>
    </contour>
  </outline>
</glyph>
<glyph name="g" format="1">
  <advance width="1228"/>
  <unicode hex="0067"/>
  <outline>
    <contour>
      <point x="593" y="8"/>
      <point x="689" y="52"/>
      <point x="767" y="123" type="curve"/>
      <point x="748" y="16" type="line" smooth="yes"/>
      <point x="725" y="-118"/>
      <point x="650" y="-188"/>
      <point x="488" y="-188" type="curve" smooth="yes"/>
      <point x="409" y="-188"/>
      <point x="308" y="-167"/>
      <point x="220" y="-141" type="curve" smooth="yes"/>
      <point x="180" y="-129"/>
      <point x="143" y="-139"/>
      <point x="112" y="-221" type="curve" smooth="yes"/>
      <point x="80" y="-306"/>
      <point x="91" y="-342"/>
      <point x="136" y="-356" type="curve" smooth="yes"/>
      <point x="262" y="-395"/>
      <point x="381" y="-415"/>
      <point x="478" y="-415" type="curve" smooth="yes"/>
      <point x="792" y="-415"/>
      <point x="950" y="-260"/>
      <point x="995" y="-4" type="curve" smooth="yes"/>
      <point x="1149" y="871" type="line" smooth="yes"/>
      <point x="1157" y="916"/>
      <point x="1137" y="934"/>
      <point x="1062" y="934" type="curve" smooth="yes"/>
      <point x="987" y="934"/>
      <point x="947" y="916"/>
      <point x="939" y="871" type="curve" smooth="yes"/>
      <point x="925" y="791" type="line"/>
      <point x="866" y="892"/>
      <point x="767" y="946"/>
      <point x="639" y="946" type="curve" smooth="yes"/>
      <point x="297" y="946"/>
      <point x="130" y="652"/>
      <point x="130" y="395" type="curve" smooth="yes"/>
      <point x="130" y="174"/>
      <point x="264" y="8"/>
      <point x="494" y="8" type="curve" smooth="yes"/>
    </contour>
    <contour>
      <point x="460" y="235"/>
      <point x="397" y="297"/>
      <point x="397" y="412" type="curve" smooth="yes"/>
      <point x="397" y="551"/>
      <point x="476" y="719"/>
      <point x="649" y="719" type="curve" smooth="yes"/>
      <point x="758" y="719"/>
      <point x="841" y="658"/>
      <point x="841" y="534" type="curve" smooth="yes"/>
      <point x="841" y="390"/>
      <point x="748" y="235"/>
      <point x="564" y="235" type="curve" smooth="yes"/>
    </contour>
  </outline>
</glyph>
<glyph name="j" format="1">
  <advance width="1228"/>
  <unicode hex="006A"/>
  <outline>
    <contour>
      <point x="382" y="924" type="line" smooth="yes"/>
      <point x="337" y="924"/>
      <point x="316" y="906"/>
      <point x="301" y="821" type="curve" smooth="yes"/>
      <point x="286" y="736"/>
      <point x="301" y="719"/>
      <point x="346" y="719" type="curve" smooth="yes"/>
      <point x="729" y="719" type="line"/>
      <point x="599" y="-22" type="line" smooth="yes"/>
      <point x="578" y="-137"/>
      <point x="522" y="-188"/>
      <point x="440" y="-188" type="curve" smooth="yes"/>
      <point x="372" y="-188"/>
      <point x="284" y="-149"/>
      <point x="203" y="-110" type="curve" smooth="yes"/>
      <point x="165" y="-92"/>
      <point x="129" y="-99"/>
      <point x="87" y="-178" type="curve" smooth="yes"/>
      <point x="45" y="-257"/>
      <point x="56" y="-293"/>
      <point x="96" y="-315" type="curve" smooth="yes"/>
      <point x="206" y="-376"/>
      <point x="327" y="-415"/>
      <point x="442" y="-415" type="curve" smooth="yes"/>
      <point x="674" y="-415"/>
      <point x="800" y="-294"/>
      <point x="844" y="-45" type="curve" smooth="yes"/>
      <point x="1004" y="861" type="line" smooth="yes"/>
      <point x="1012" y="906"/>
      <point x="997" y="924"/>
      <point x="952" y="924" type="curve" smooth="yes"/>
    </contour>
    <contour>
      <point x="873" y="1383"/>
      <point x="843" y="1365"/>
      <point x="835" y="1320" type="curve" smooth="yes"/>
      <point x="806" y="1156" type="line" smooth="yes"/>
      <point x="798" y="1111"/>
      <point x="827" y="1093"/>
      <point x="922" y="1093" type="curve" smooth="yes"/>
      <point x="1017" y="1093"/>
      <point x="1048" y="1111"/>
      <point x="1056" y="1156" type="curve" smooth="yes"/>
      <point x="1085" y="1320" type="line" smooth="yes"/>
      <point x="1093" y="1365"/>
      <point x="1063" y="1383"/>
      <point x="968" y="1383" type="curve" smooth="yes"/>
    </contour>
  </outline>
</glyph>
<glyph name="k" format="1">
  <advance width="1228"/>
  <unicode hex="006B"/>
  <outline>
    <contour>
      <point x="281" y="1312" type="line" smooth="yes"/>
      <point x="236" y="1312"/>
      <point x="215" y="1294"/>
      <point x="200" y="1209" type="curve" smooth="yes"/>
      <point x="185" y="1124"/>
      <point x="200" y="1107"/>
      <point x="245" y="1107" type="curve" smooth="yes"/>
      <point x="342" y="1107" type="line"/>
      <point x="158" y="63" type="line" smooth="yes"/>
      <point x="150" y="18"/>
      <point x="165" y="0"/>
      <point x="210" y="0" type="curve" smooth="yes"/>
      <point x="334" y="0" type="line" smooth="yes"/>
      <point x="379" y="0"/>
      <point x="400" y="18"/>
      <point x="408" y="63" type="curve" smooth="yes"/>
      <point x="443" y="265" type="line"/>
      <point x="450" y="270" type="line" smooth="yes"/>
      <point x="482" y="293"/>
      <point x="522" y="304"/>
      <point x="558" y="304" type="curve" smooth="yes"/>
      <point x="590" y="304"/>
      <point x="621" y="295"/>
      <point x="645" y="276" type="curve" smooth="yes"/>
      <point x="713" y="221"/>
      <point x="723" y="115"/>
      <point x="793" y="47" type="curve" smooth="yes"/>
      <point x="827" y="14"/>
      <point x="865" y="0"/>
      <point x="909" y="0" type="curve" smooth="yes"/>
      <point x="1026" y="0" type="line" smooth="yes"/>
      <point x="1071" y="0"/>
      <point x="1091" y="17"/>
      <point x="1106" y="102" type="curve" smooth="yes"/>
      <point x="1121" y="187"/>
      <point x="1107" y="205"/>
      <point x="1062" y="205" type="curve" smooth="yes"/>
      <point x="1033" y="205" type="line" smooth="yes"/>
      <point x="1004" y="205"/>
      <point x="983" y="215"/>
      <point x="968" y="232" type="curve" smooth="yes"/>
      <point x="924" y="279"/>
      <point x="916" y="376"/>
      <point x="832" y="428" type="curve" smooth="yes"/>
      <point x="789" y="455"/>
      <point x="742" y="459"/>
      <point x="691" y="449" type="curve"/>
      <point x="1121" y="739" type="line"/>
      <point x="1151" y="739" type="line" smooth="yes"/>
      <point x="1196" y="739"/>
      <point x="1217" y="756"/>
      <point x="1230" y="831" type="curve" smooth="yes"/>
      <point x="1243" y="906"/>
      <point x="1228" y="924"/>
      <point x="1183" y="924" type="curve" smooth="yes"/>
      <point x="769" y="924" type="line" smooth="yes"/>
      <point x="724" y="924"/>
      <point x="703" y="906"/>
      <point x="690" y="831" type="curve" smooth="yes"/>
      <point x="677" y="756"/>
      <point x="692" y="739"/>
      <point x="737" y="739" type="curve" smooth="yes"/>
      <point x="780" y="739" type="line"/>
      <point x="491" y="535" type="line"/>
      <point x="617" y="1249" type="line" smooth="yes"/>
      <point x="625" y="1294"/>
      <point x="610" y="1312"/>
      <point x="565" y="1312" type="curve" smooth="yes"/>
    </contour>
  </outline>
</glyph>
<glyph name="n" format="1">
  <advance width="1228"/>
  <unicode hex="006E"/>
  <outline>
    <contour>
      <point x="718" y="946"/>
      <point x="600" y="878"/>
      <point x="483" y="716" type="curve"/>
      <point x="508" y="861" type="line" smooth="yes"/>
      <point x="516" y="906"/>
      <point x="501" y="924"/>
      <point x="456" y="924" type="curve" smooth="yes"/>
      <point x="212" y="924" type="line" smooth="yes"/>
      <point x="167" y="924"/>
      <point x="146" y="906"/>
      <point x="131" y="821" type="curve" smooth="yes"/>
      <point x="116" y="736"/>
      <point x="131" y="719"/>
      <point x="176" y="719" type="curve" smooth="yes"/>
      <point x="273" y="719" type="line"/>
      <point x="158" y="63" type="line" smooth="yes"/>
      <point x="150" y="18"/>
      <point x="165" y="0"/>
      <point x="210" y="0" type="curve" smooth="yes"/>
      <point x="334" y="0" type="line" smooth="yes"/>
      <point x="379" y="0"/>
      <point x="400" y="18"/>
      <point x="408" y="63" type="curve" smooth="yes"/>
      <point x="455" y="338" type="line" smooth="yes"/>
      <point x="487" y="526"/>
      <point x="629" y="719"/>
      <point x="748" y="719" type="curve" smooth="yes"/>
      <point x="816" y="719"/>
      <point x="843" y="683"/>
      <point x="843" y="621" type="curve" smooth="yes"/>
      <point x="843" y="603"/>
      <point x="841" y="583"/>
      <point x="837" y="561" type="curve" smooth="yes"/>
      <point x="750" y="63" type="line" smooth="yes"/>
      <point x="742" y="18"/>
      <point x="757" y="0"/>
      <point x="802" y="0" type="curve" smooth="yes"/>
      <point x="1066" y="0" type="line" smooth="yes"/>
      <point x="1111" y="0"/>
      <point x="1131" y="17"/>
      <point x="1146" y="102" type="curve" smooth="yes"/>
      <point x="1161" y="187"/>
      <point x="1147" y="205"/>
      <point x="1102" y="205" type="curve" smooth="yes"/>
      <point x="1025" y="205" type="line"/>
      <point x="1094" y="600" type="line" smooth="yes"/>
      <point x="1098" y="625"/>
      <point x="1101" y="651"/>
      <point x="1101" y="675" type="curve" smooth="yes"/>
      <point x="1101" y="835"/>
      <point x="1003" y="946"/>
      <point x="843" y="946" type="curve" smooth="yes"/>
    </contour>
  </outline>
</glyph>
<glyph name="o" format="1">
  <advance width="1228"/>
  <unicode hex="006F"/>
  <outline>
    <contour>
      <point x="300" y="946"/>
      <point x="113" y="650"/>
      <point x="113" y="388" type="curve" smooth="yes"/>
      <point x="113" y="153"/>
      <point x="276" y="-22"/>
      <point x="550" y="-22" type="curve" smooth="yes"/>
      <point x="960" y="-22"/>
      <point x="1136" y="285"/>
      <point x="1136" y="536" type="curve" smooth="yes"/>
      <point x="1136" y="770"/>
      <point x="973" y="946"/>
      <point x="700" y="946" type="curve" smooth="yes"/>
    </contour>
    <contour>
      <point x="795" y="719"/>
      <point x="869" y="643"/>
      <point x="869" y="522" type="curve" smooth="yes"/>
      <point x="869" y="360"/>
      <point x="762" y="205"/>
      <point x="580" y="205" type="curve" smooth="yes"/>
      <point x="455" y="205"/>
      <point x="380" y="280"/>
      <point x="380" y="401" type="curve" smooth="yes"/>
      <point x="380" y="563"/>
      <point x="487" y="719"/>
      <point x="670" y="719" type="curve" smooth="yes"/>
    </contour>
  </outline>
</glyph>
<glyph name="p" format="1">
  <advance width="1228"/>
  <unicode hex="0070"/>
  <outline>
    <contour>
      <point x="678" y="946"/>
      <point x="562" y="888"/>
      <point x="476" y="791" type="curve"/>
      <point x="488" y="861" type="line" smooth="yes"/>
      <point x="496" y="906"/>
      <point x="481" y="924"/>
      <point x="436" y="924" type="curve" smooth="yes"/>
      <point x="202" y="924" type="line" smooth="yes"/>
      <point x="157" y="924"/>
      <point x="136" y="906"/>
      <point x="121" y="821" type="curve" smooth="yes"/>
      <point x="106" y="736"/>
      <point x="121" y="719"/>
      <point x="166" y="719" type="curve" smooth="yes"/>
      <point x="253" y="719" type="line"/>
      <point x="94" y="-183" type="line"/>
      <point x="7" y="-183" type="line" smooth="yes"/>
      <point x="-38" y="-183"/>
      <point x="-59" y="-201"/>
      <point x="-73" y="-286" type="curve" smooth="yes"/>
      <point x="-88" y="-371"/>
      <point x="-73" y="-388"/>
      <point x="-29" y="-388" type="curve" smooth="yes"/>
      <point x="555" y="-388" type="line" smooth="yes"/>
      <point x="600" y="-388"/>
      <point x="621" y="-371"/>
      <point x="636" y="-286" type="curve" smooth="yes"/>
      <point x="651" y="-201"/>
      <point x="636" y="-183"/>
      <point x="591" y="-183" type="curve" smooth="yes"/>
      <point x="344" y="-183" type="line"/>
      <point x="400" y="133" type="line"/>
      <point x="454" y="60"/>
      <point x="541" y="8"/>
      <point x="651" y="8" type="curve" smooth="yes"/>
      <point x="993" y="8"/>
      <point x="1160" y="302"/>
      <point x="1160" y="559" type="curve" smooth="yes"/>
      <point x="1160" y="780"/>
      <point x="1026" y="946"/>
      <point x="796" y="946" type="curve" smooth="yes"/>
    </contour>
    <contour>
      <point x="830" y="719"/>
      <point x="893" y="657"/>
      <point x="893" y="542" type="curve" smooth="yes"/>
      <point x="893" y="403"/>
      <point x="814" y="235"/>
      <point x="641" y="235" type="curve" smooth="yes"/>
      <point x="532" y="235"/>
      <point x="449" y="296"/>
      <point x="449" y="420" type="curve" smooth="yes"/>
      <point x="449" y="564"/>
      <point x="542" y="719"/>
      <point x="726" y="719" type="curve" smooth="yes"/>
    </contour>
  </outline>
</glyph>
<glyph name="q" format="1">
  <advance width="1228"/>
  <unicode hex="0071"/>
  <outline>
    <contour>
      <point x="297" y="946"/>
      <point x="130" y="652"/>
      <point x="130" y="395" type="curve" smooth="yes"/>
      <point x="130" y="174"/>
      <point x="264" y="8"/>
      <point x="494" y="8" type="curve" smooth="yes"/>
      <point x="593" y="8"/>
      <point x="689" y="52"/>
      <point x="767" y="123" type="curve"/>
      <point x="712" y="-188" type="line"/>
      <point x="495" y="-188" type="line" smooth="yes"/>
      <point x="450" y="-188"/>
      <point x="429" y="-206"/>
      <point x="414" y="-291" type="curve" smooth="yes"/>
      <point x="399" y="-376"/>
      <point x="414" y="-393"/>
      <point x="459" y="-393" type="curve" smooth="yes"/>
      <point x="1033" y="-393" type="line" smooth="yes"/>
      <point x="1078" y="-393"/>
      <point x="1099" y="-376"/>
      <point x="1114" y="-291" type="curve" smooth="yes"/>
      <point x="1129" y="-206"/>
      <point x="1114" y="-188"/>
      <point x="1069" y="-188" type="curve" smooth="yes"/>
      <point x="962" y="-188" type="line"/>
      <point x="1149" y="871" type="line" smooth="yes"/>
      <point x="1157" y="916"/>
      <point x="1137" y="934"/>
      <point x="1062" y="934" type="curve" smooth="yes"/>
      <point x="987" y="934"/>
      <point x="947" y="916"/>
      <point x="939" y="871" type="curve" smooth="yes"/>
      <point x="925" y="791" type="line"/>
      <point x="866" y="892"/>
      <point x="767" y="946"/>
      <point x="639" y="946" type="curve" smooth="yes"/>
    </contour>
    <contour>
      <point x="460" y="235"/>
      <point x="397" y="297"/>
      <point x="397" y="412" type="curve" smooth="yes"/>
      <point x="397" y="551"/>
      <point x="476" y="719"/>
      <point x="649" y="719" type="curve" smooth="yes"/>
      <point x="758" y="719"/>
      <point x="841" y="658"/>
      <point x="841" y="534" type="curve" smooth="yes"/>
      <point x="841" y="390"/>
      <point x="748" y="235"/>
      <point x="564" y="235" type="curve" smooth="yes"/>
    </contour>
  </outline>
</glyph>
<glyph name="s" format="1">
  <advance width="1228"/>
  <unicode hex="0073"/>
  <outline>
    <contour>
      <point x="917" y="946"/>
      <point x="888" y="928"/>
      <point x="879" y="883" type="curve" smooth="yes"/>
      <point x="876" y="868" type="line"/>
      <point x="811" y="914"/>
      <point x="730" y="946"/>
      <point x="622" y="946" type="curve" smooth="yes"/>
      <point x="500" y="946"/>
      <point x="391" y="916"/>
      <point x="315" y="854" type="curve" smooth="yes"/>
      <point x="243" y="795"/>
      <point x="208" y="707"/>
      <point x="208" y="620" type="curve" smooth="yes"/>
      <point x="208" y="528"/>
      <point x="253" y="469"/>
      <point x="317" y="431" type="curve" smooth="yes"/>
      <point x="434" y="361"/>
      <point x="615" y="356"/>
      <point x="716" y="328" type="curve" smooth="yes"/>
      <point x="761" y="315"/>
      <point x="789" y="298"/>
      <point x="789" y="269" type="curve" smooth="yes"/>
      <point x="789" y="254"/>
      <point x="781" y="229"/>
      <point x="757" y="211" type="curve" smooth="yes"/>
      <point x="729" y="190"/>
      <point x="682" y="178"/>
      <point x="613" y="178" type="curve" smooth="yes"/>
      <point x="498" y="178"/>
      <point x="391" y="210"/>
      <point x="335" y="299" type="curve" smooth="yes"/>
      <point x="324" y="317"/>
      <point x="301" y="327"/>
      <point x="257" y="327" type="curve" smooth="yes"/>
      <point x="192" y="327"/>
      <point x="158" y="309"/>
      <point x="150" y="264" type="curve" smooth="yes"/>
      <point x="111" y="41" type="line" smooth="yes"/>
      <point x="103" y="-4"/>
      <point x="133" y="-22"/>
      <point x="218" y="-22" type="curve" smooth="yes"/>
      <point x="303" y="-22"/>
      <point x="344" y="-4"/>
      <point x="351" y="41" type="curve" smooth="yes"/>
      <point x="353" y="54" type="line"/>
      <point x="418" y="11"/>
      <point x="495" y="-22"/>
      <point x="598" y="-22" type="curve" smooth="yes"/>
      <point x="757" y="-22"/>
      <point x="879" y="16"/>
      <point x="956" y="91" type="curve" smooth="yes"/>
      <point x="1021" y="153"/>
      <point x="1051" y="242"/>
      <point x="1051" y="325" type="curve" smooth="yes"/>
      <point x="1051" y="416"/>
      <point x="1006" y="472"/>
      <point x="942" y="509" type="curve" smooth="yes"/>
      <point x="824" y="576"/>
      <point x="639" y="578"/>
      <point x="539" y="605" type="curve" smooth="yes"/>
      <point x="496" y="617"/>
      <point x="468" y="632"/>
      <point x="468" y="660" type="curve" smooth="yes"/>
      <point x="468" y="679"/>
      <point x="478" y="699"/>
      <point x="498" y="715" type="curve" smooth="yes"/>
      <point x="522" y="734"/>
      <point x="559" y="746"/>
      <point x="609" y="746" type="curve" smooth="yes"/>
      <point x="736" y="746"/>
      <point x="833" y="717"/>
      <point x="900" y="630" type="curve" smooth="yes"/>
      <point x="911" y="615"/>
      <point x="934" y="609"/>
      <point x="969" y="609" type="curve" smooth="yes"/>
      <point x="1034" y="609"/>
      <point x="1064" y="627"/>
      <point x="1072" y="672" type="curve" smooth="yes"/>
      <point x="1109" y="883" type="line" smooth="yes"/>
      <point x="1117" y="928"/>
      <point x="1087" y="946"/>
      <point x="1002" y="946" type="curve" smooth="yes"/>
    </contour>
  </outline>
</glyph>
<glyph name="w" format="1">
  <advance width="1228"/>
  <unicode hex="0077"/>
  <outline>
    <contour>
      <point x="935" y="924" type="line" smooth="yes"/>
      <point x="890" y="924"/>
      <point x="869" y="906"/>
      <point x="854" y="821" type="curve" smooth="yes"/>
      <point x="839" y="736"/>
      <point x="854" y="719"/>
      <point x="899" y="719" type="curve" smooth="yes"/>
      <point x="971" y="719" type="line"/>
      <point x="825" y="331" type="line"/>
      <point x="749" y="677" type="line" smooth="yes"/>
      <point x="741" y="711"/>
      <point x="720" y="727"/>
      <point x="661" y="727" type="curve" smooth="yes"/>
      <point x="603" y="727"/>
      <point x="575" y="705"/>
      <point x="555" y="670" type="curve" smooth="yes"/>
      <point x="357" y="331" type="line"/>
      <point x="350" y="719" type="line"/>
      <point x="435" y="719" type="line" smooth="yes"/>
      <point x="480" y="719"/>
      <point x="501" y="736"/>
      <point x="516" y="821" type="curve" smooth="yes"/>
      <point x="531" y="906"/>
      <point x="516" y="924"/>
      <point x="471" y="924" type="curve" smooth="yes"/>
      <point x="135" y="924" type="line" smooth="yes"/>
      <point x="90" y="924"/>
      <point x="69" y="906"/>
      <point x="54" y="821" type="curve" smooth="yes"/>
      <point x="39" y="736"/>
      <point x="54" y="719"/>
      <point x="99" y="719" type="curve" smooth="yes"/>
      <point x="133" y="719" type="line"/>
      <point x="157" y="43" type="line" smooth="yes"/>
      <point x="159" y="-4"/>
      <point x="184" y="-22"/>
      <point x="265" y="-22" type="curve" smooth="yes"/>
      <point x="346" y="-22"/>
      <point x="379" y="-1"/>
      <point x="405" y="43" type="curve" smooth="yes"/>
      <point x="610" y="398" type="line"/>
      <point x="687" y="43" type="line" smooth="yes"/>
      <point x="696" y="-1"/>
      <point x="722" y="-22"/>
      <point x="803" y="-22" type="curve" smooth="yes"/>
      <point x="884" y="-22"/>
      <point x="917" y="-5"/>
      <point x="935" y="43" type="curve" smooth="yes"/>
      <point x="1200" y="719" type="line"/>
      <point x="1241" y="719" type="line" smooth="yes"/>
      <point x="1286" y="719"/>
      <point x="1307" y="736"/>
      <point x="1322" y="821" type="curve" smooth="yes"/>
      <point x="1337" y="906"/>
      <point x="1322" y="924"/>
      <point x="1277" y="924" type="curve" smooth="yes"/>
    </contour>
  </outline>
</glyph>
<glyph name="x" format="1">
  <advance width="1228"/>
  <unicode hex="0078"/>
  <outline>
    <contour>
      <point x="823" y="924" type="line" smooth="yes"/>
      <point x="778" y="924"/>
      <point x="757" y="906"/>
      <point x="742" y="821" type="curve" smooth="yes"/>
      <point x="727" y="736"/>
      <point x="742" y="719"/>
      <point x="787" y="719" type="curve" smooth="yes"/>
      <point x="799" y="719" type="line"/>
      <point x="653" y="587" type="line"/>
      <point x="542" y="719" type="line"/>
      <point x="573" y="719" type="line" smooth="yes"/>
      <point x="618" y="719"/>
      <point x="639" y="736"/>
      <point x="654" y="821" type="curve" smooth="yes"/>
      <point x="669" y="906"/>
      <point x="654" y="924"/>
      <point x="609" y="924" type="curve" smooth="yes"/>
      <point x="235" y="924" type="line" smooth="yes"/>
      <point x="190" y="924"/>
      <point x="169" y="906"/>
      <point x="154" y="821" type="curve" smooth="yes"/>
      <point x="139" y="736"/>
      <point x="154" y="719"/>
      <point x="199" y="719" type="curve" smooth="yes"/>
      <point x="252" y="719" type="line"/>
      <point x="454" y="479" type="line"/>
      <point x="143" y="205" type="line"/>
      <point x="99" y="205" type="line" smooth="yes"/>
      <point x="54" y="205"/>
      <point x="32" y="187"/>
      <point x="17" y="102" type="curve" smooth="yes"/>
      <point x="2" y="17"/>
      <point x="18" y="0"/>
      <point x="63" y="0" type="curve" smooth="yes"/>
      <point x="417" y="0" type="line" smooth="yes"/>
      <point x="462" y="0"/>
      <point x="482" y="17"/>
      <point x="497" y="102" type="curve" smooth="yes"/>
      <point x="512" y="187"/>
      <point x="498" y="205"/>
      <point x="453" y="205" type="curve" smooth="yes"/>
      <point x="446" y="205" type="line"/>
      <point x="595" y="340" type="line"/>
      <point x="709" y="205" type="line"/>
      <point x="677" y="205" type="line" smooth="yes"/>
      <point x="632" y="205"/>
      <point x="610" y="187"/>
      <point x="595" y="102" type="curve" smooth="yes"/>
      <point x="580" y="17"/>
      <point x="596" y="0"/>
      <point x="641" y="0" type="curve" smooth="yes"/>
      <point x="1025" y="0" type="line" smooth="yes"/>
      <point x="1070" y="0"/>
      <point x="1090" y="17"/>
      <point x="1105" y="102" type="curve" smooth="yes"/>
      <point x="1120" y="187"/>
      <point x="1106" y="205"/>
      <point x="1061" y="205" type="curve" smooth="yes"/>
      <point x="1009" y="205" type="line"/>
      <point x="797" y="458" type="line"/>
      <point x="1093" y="719" type="line"/>
      <point x="1141" y="719" type="line" smooth="yes"/>
      <point x="1186" y="719"/>
      <point x="1207" y="736"/>
      <point x="1222" y="821" type="curve" smooth="yes"/>
      <point x="1237" y="906"/>
      <point x="1222" y="924"/>
      <point x="1177" y="924" type="curve" smooth="yes"/>
    </contour>
  </outline>
</glyph>
<glyph name="bar" format="1">
  <advance width="1228"/>
  <unicode hex="007C"/>
  <outline>
    <contour>
      <point x="701" y="1334"/>
      <point x="651" y="1316"/>
      <point x="643" y="1271" type="curve" smooth="yes"/>
      <point x="357" y="-347" type="line" smooth="yes"/>
      <point x="349" y="-392"/>
      <point x="379" y="-410"/>
      <point x="464" y="-410" type="curve" smooth="yes"/>
      <point x="549" y="-410"/>
      <point x="599" y="-392"/>
      <point x="607" y="-347" type="curve" smooth="yes"/>
      <point x="893" y="1271" type="line" smooth="yes"/>
      <point x="901" y="1316"/>
      <point x="871" y="1334"/>
      <point x="786" y="1334" type="curve" smooth="yes"/>
    </contour>
  </outline>
</glyph>
<glyph name="asciitilde" format="1">
  <advance width="1228"/>
  <unicode hex="007E"/>
  <outline>
    <contour>
      <point x="1126" y="551"/>
      <point x="1130" y="601"/>
      <point x="1119" y="643" type="curve" smooth="yes"/>
      <point x="1107" y="688"/>
      <point x="1076" y="724"/>
      <point x="1033" y="702" type="curve" smooth="yes"/>
      <point x="971" y="670"/>
      <point x="915" y="658"/>
      <point x="862" y="658" type="curve" smooth="yes"/>
      <point x="723" y="658"/>
      <point x="608" y="740"/>
      <point x="466" y="740" type="curve" smooth="yes"/>
      <point x="386" y="740"/>
      <point x="297" y="714"/>
      <point x="191" y="631" type="curve" smooth="yes"/>
      <point x="168" y="613"/>
      <point x="162" y="567"/>
      <point x="171" y="527" type="curve" smooth="yes"/>
      <point x="182" y="478"/>
      <point x="213" y="436"/>
      <point x="259" y="460" type="curve" smooth="yes"/>
      <point x="322" y="493"/>
      <point x="379" y="505"/>
      <point x="432" y="505" type="curve" smooth="yes"/>
      <point x="571" y="505"/>
      <point x="686" y="422"/>
      <point x="827" y="422" type="curve" smooth="yes"/>
      <point x="907" y="422"/>
      <point x="995" y="449"/>
      <point x="1101" y="531" type="curve" smooth="yes"/>
    </contour>
  </outline>
</glyph>
<glyph name="exclamdown" format="1">
  <advance width="1228"/>
  <unicode hex="00A1"/>
  <outline>
    <contour>
      <point x="612" y="683"/>
      <point x="572" y="656"/>
      <point x="557" y="605" type="curve" smooth="yes"/>
      <point x="382" y="28" type="line" smooth="yes"/>
      <point x="372" y="-7"/>
      <point x="384" y="-22"/>
      <point x="414" y="-22" type="curve" smooth="yes"/>
      <point x="664" y="-22" type="line" smooth="yes"/>
      <point x="694" y="-22"/>
      <point x="712" y="-7"/>
      <point x="714" y="28" type="curve" smooth="yes"/>
      <point x="743" y="605" type="line" smooth="yes"/>
      <point x="746" y="656"/>
      <point x="716" y="683"/>
      <point x="664" y="683" type="curve" smooth="yes"/>
    </contour>
    <contour>
      <point x="619" y="1209"/>
      <point x="517" y="1117"/>
      <point x="517" y="996" type="curve" smooth="yes"/>
      <point x="517" y="905"/>
      <point x="587" y="830"/>
      <point x="683" y="830" type="curve" smooth="yes"/>
      <point x="795" y="830"/>
      <point x="898" y="921"/>
      <point x="898" y="1042" type="curve" smooth="yes"/>
      <point x="898" y="1133"/>
      <point x="829" y="1209"/>
      <point x="732" y="1209" type="curve" smooth="yes"/>
    </contour>
  </outline>
</glyph>
<glyph name="currency" format="1">
  <advance width="1228"/>
  <unicode hex="00A4"/>
  <outline>
    <contour>
      <point x="457" y="1006"/>
      <point x="261" y="836"/>
      <point x="240" y="602" type="curve" smooth="yes"/>
      <point x="219" y="365"/>
      <point x="375" y="198"/>
      <point x="609" y="198" type="curve" smooth="yes"/>
      <point x="843" y="198"/>
      <point x="1039" y="368"/>
      <point x="1060" y="602" type="curve" smooth="yes"/>
      <point x="1081" y="839"/>
      <point x="925" y="1006"/>
      <point x="691" y="1006" type="curve" smooth="yes"/>
    </contour>
    <contour>
      <point x="103" y="291" type="line" smooth="yes"/>
      <point x="68" y="262"/>
      <point x="66" y="237"/>
      <point x="128" y="164" type="curve" smooth="yes"/>
      <point x="189" y="91"/>
      <point x="214" y="90"/>
      <point x="248" y="119" type="curve" smooth="yes"/>
      <point x="524" y="351" type="line"/>
      <point x="385" y="528" type="line"/>
    </contour>
    <contour>
      <point x="709" y="357" type="line"/>
      <point x="912" y="115" type="line" smooth="yes"/>
      <point x="941" y="81"/>
      <point x="965" y="77"/>
      <point x="1038" y="139" type="curve" smooth="yes"/>
      <point x="1111" y="200"/>
      <point x="1113" y="225"/>
      <point x="1084" y="259" type="curve" smooth="yes"/>
      <point x="879" y="503" type="line"/>
    </contour>
    <contour>
      <point x="785" y="790"/>
      <point x="853" y="711"/>
      <point x="838" y="602" type="curve" smooth="yes"/>
      <point x="823" y="493"/>
      <point x="739" y="414"/>
      <point x="627" y="414" type="curve" smooth="yes"/>
      <point x="515" y="414"/>
      <point x="447" y="493"/>
      <point x="462" y="602" type="curve" smooth="yes"/>
      <point x="477" y="711"/>
      <point x="561" y="790"/>
      <point x="673" y="790" type="curve" smooth="yes"/>
    </contour>
    <contour>
      <point x="188" y="1003"/>
      <point x="187" y="978"/>
      <point x="216" y="944" type="curve" smooth="yes"/>
      <point x="421" y="700" type="line"/>
      <point x="591" y="847" type="line"/>
      <point x="388" y="1089" type="line" smooth="yes"/>
      <point x="359" y="1124"/>
      <point x="334" y="1126"/>
      <point x="261" y="1064" type="curve" smooth="yes"/>
    </contour>
    <contour>
      <point x="773" y="854" type="line"/>
      <point x="915" y="679" type="line"/>
      <point x="1194" y="914" type="line" smooth="yes"/>
      <point x="1228" y="943"/>
      <point x="1232" y="967"/>
      <point x="1170" y="1040" type="curve" smooth="yes"/>
      <point x="1109" y="1113"/>
      <point x="1084" y="1115"/>
      <point x="1050" y="1086" type="curve" smooth="yes"/>
    </contour>
  </outline>
</glyph>
<glyph name="brokenbar" format="1">
  <advance width="1228"/>
  <unicode hex="00A6"/>
  <outline>
    <contour>
      <point x="357" y="-347" type="line" smooth="yes"/>
      <point x="349" y="-392"/>
      <point x="379" y="-410"/>
      <point x="464" y="-410" type="curve" smooth="yes"/>
      <point x="549" y="-410"/>
      <point x="599" y="-392"/>
      <point x="607" y="-347" type="curve" smooth="yes"/>
      <point x="717" y="276" type="line" smooth="yes"/>
      <point x="725" y="321"/>
      <point x="695" y="339"/>
      <point x="610" y="339" type="curve" smooth="yes"/>
      <point x="525" y="339"/>
      <point x="475" y="321"/>
      <point x="467" y="276" type="curve" smooth="yes"/>
    </contour>
    <contour>
      <point x="533" y="648" type="line" smooth="yes"/>
      <point x="525" y="603"/>
      <point x="555" y="585"/>
      <point x="640" y="585" type="curve" smooth="yes"/>
      <point x="725" y="585"/>
      <point x="775" y="603"/>
      <point x="783" y="648" type="curve" smooth="yes"/>
      <point x="893" y="1271" type="line" smooth="yes"/>
      <point x="901" y="1316"/>
      <point x="871" y="1334"/>
      <point x="786" y="1334" type="curve" smooth="yes"/>
      <point x="701" y="1334"/>
      <point x="651" y="1316"/>
      <point x="643" y="1271" type="curve" smooth="yes"/>
    </contour>
  </outline>
</glyph>
<glyph name="dieresis" format="1">
  <advance width="1228"/>
  <unicode hex="00A8"/>
  <outline>
    <contour>
      <point x="594" y="1045"/>
      <point x="675" y="1118"/>
      <point x="675" y="1214" type="curve" smooth="yes"/>
      <point x="675" y="1286"/>
      <point x="621" y="1345"/>
      <point x="544" y="1345" type="curve" smooth="yes"/>
      <point x="455" y="1345"/>
      <point x="373" y="1272"/>
      <point x="373" y="1176" type="curve" smooth="yes"/>
      <point x="373" y="1104"/>
      <point x="428" y="1045"/>
      <point x="505" y="1045" type="curve" smooth="yes"/>
    </contour>
    <contour>
      <point x="1054" y="1045"/>
      <point x="1135" y="1118"/>
      <point x="1135" y="1214" type="curve" smooth="yes"/>
      <point x="1135" y="1286"/>
      <point x="1081" y="1345"/>
      <point x="1004" y="1345" type="curve" smooth="yes"/>
      <point x="915" y="1345"/>
      <point x="833" y="1272"/>
      <point x="833" y="1176" type="curve" smooth="yes"/>
      <point x="833" y="1104"/>
      <point x="888" y="1045"/>
      <point x="965" y="1045" type="curve" smooth="yes"/>
    </contour>
  </outline>
</glyph>
<glyph name="ordfeminine" format="1">
  <advance width="1228"/>
  <unicode hex="00AA"/>
  <outline>
    <contour>
      <point x="418" y="1209"/>
      <point x="291" y="968"/>
      <point x="291" y="774" type="curve" smooth="yes"/>
      <point x="291" y="602"/>
      <point x="396" y="465"/>
      <point x="576" y="465" type="curve" smooth="yes"/>
      <point x="665" y="465"/>
      <point x="755" y="501"/>
      <point x="830" y="580" type="curve"/>
      <point x="842" y="507"/>
      <point x="897" y="482"/>
      <point x="958" y="482" type="curve" smooth="yes"/>
      <point x="1031" y="482" type="line" smooth="yes"/>
      <point x="1065" y="482"/>
      <point x="1081" y="495"/>
      <point x="1092" y="560" type="curve" smooth="yes"/>
      <point x="1104" y="626"/>
      <point x="1093" y="640"/>
      <point x="1058" y="640" type="curve" smooth="yes"/>
      <point x="1036" y="640" type="line" smooth="yes"/>
      <point x="1003" y="640"/>
      <point x="989" y="664"/>
      <point x="997" y="705" type="curve" smooth="yes"/>
      <point x="1075" y="1151" type="line" smooth="yes"/>
      <point x="1082" y="1186"/>
      <point x="1066" y="1200"/>
      <point x="1009" y="1200" type="curve" smooth="yes"/>
      <point x="951" y="1200"/>
      <point x="920" y="1186"/>
      <point x="914" y="1151" type="curve" smooth="yes"/>
      <point x="902" y="1079" type="line"/>
      <point x="863" y="1160"/>
      <point x="782" y="1209"/>
      <point x="683" y="1209" type="curve" smooth="yes"/>
    </contour>
    <contour>
      <point x="775" y="1035"/>
      <point x="838" y="982"/>
      <point x="838" y="883" type="curve" smooth="yes"/>
      <point x="838" y="770"/>
      <point x="760" y="640"/>
      <point x="622" y="640" type="curve" smooth="yes"/>
      <point x="541" y="640"/>
      <point x="495" y="694"/>
      <point x="495" y="783" type="curve" smooth="yes"/>
      <point x="495" y="882"/>
      <point x="551" y="1035"/>
      <point x="691" y="1035" type="curve" smooth="yes"/>
    </contour>
  </outline>
</glyph>
<glyph name="guillemetleft" format="1">
  <advance width="1228"/>
  <unicode hex="00AB"/>
  <outline>
    <contour>
      <point x="506" y="948"/>
      <point x="464" y="959"/>
      <point x="437" y="931" type="curve" smooth="yes"/>
      <point x="117" y="592" type="line" smooth="yes"/>
      <point x="103" y="578"/>
      <point x="102" y="559"/>
      <point x="112" y="542" type="curve" smooth="yes"/>
      <point x="357" y="145" type="line" smooth="yes"/>
      <point x="377" y="112"/>
      <point x="421" y="113"/>
      <point x="490" y="151" type="curve" smooth="yes"/>
      <point x="557" y="188"/>
      <point x="578" y="229"/>
      <point x="554" y="266" type="curve" smooth="yes"/>
      <point x="376" y="540" type="line"/>
      <point x="604" y="772" type="line" smooth="yes"/>
      <point x="636" y="804"/>
      <point x="624" y="848"/>
      <point x="566" y="897" type="curve" smooth="yes"/>
    </contour>
    <contour>
      <point x="1046" y="948"/>
      <point x="1004" y="959"/>
      <point x="977" y="931" type="curve" smooth="yes"/>
      <point x="637" y="572" type="line" smooth="yes"/>
      <point x="623" y="558"/>
      <point x="622" y="539"/>
      <point x="632" y="522" type="curve" smooth="yes"/>
      <point x="857" y="145" type="line" smooth="yes"/>
      <point x="877" y="112"/>
      <point x="921" y="113"/>
      <point x="990" y="151" type="curve" smooth="yes"/>
      <point x="1057" y="188"/>
      <point x="1078" y="227"/>
      <point x="1054" y="266" type="curve" smooth="yes"/>
      <point x="896" y="520" type="line"/>
      <point x="1144" y="772" type="line" smooth="yes"/>
      <point x="1176" y="804"/>
      <point x="1164" y="848"/>
      <point x="1106" y="897" type="curve" smooth="yes"/>
    </contour>
  </outline>
</glyph>
<glyph name="guillemotleft" format="1">
  <advance width="1228"/>
  <unicode hex="00AB"/>
  <outline>
    <contour>
      <point x="450" y="536" type="line"/>
      <point x="661" y="805" type="line" smooth="yes"/>
      <point x="691" y="843"/>
      <point x="657" y="892"/>
      <point x="610" y="922" type="curve" smooth="yes"/>
      <point x="563" y="951"/>
      <point x="503" y="961"/>
      <point x="475" y="925" type="curve" smooth="yes"/>
      <point x="205" y="581" type="line" smooth="yes"/>
      <point x="192" y="565"/>
      <point x="189" y="546"/>
      <point x="196" y="530" type="curve" smooth="yes"/>
      <point x="344" y="186" type="line" smooth="yes"/>
      <point x="360" y="149"/>
      <point x="424" y="150"/>
      <point x="480" y="170" type="curve" smooth="yes"/>
      <point x="535" y="190"/>
      <point x="582" y="228"/>
      <point x="566" y="266" type="curve" smooth="yes"/>
    </contour>
    <contour>
      <point x="890" y="536" type="line"/>
      <point x="1101" y="805" type="line" smooth="yes"/>
      <point x="1131" y="843"/>
      <point x="1097" y="892"/>
      <point x="1050" y="922" type="curve" smooth="yes"/>
      <point x="1003" y="951"/>
      <point x="943" y="961"/>
      <point x="915" y="925" type="curve" smooth="yes"/>
      <point x="645" y="581" type="line" smooth="yes"/>
      <point x="632" y="565"/>
      <point x="629" y="546"/>
      <point x="636" y="530" type="curve" smooth="yes"/>
      <point x="784" y="186" type="line" smooth="yes"/>
      <point x="800" y="149"/>
      <point x="864" y="150"/>
      <point x="920" y="170" type="curve" smooth="yes"/>
      <point x="975" y="190"/>
      <point x="1022" y="228"/>
      <point x="1006" y="266" type="curve" smooth="yes"/>
    </contour>
  </outline>
</glyph>
<glyph name="logicalnot" format="1">
  <advance width="1228"/>
  <unicode hex="00AC"/>
  <outline>
    <contour>
      <point x="889" y="630" type="line"/>
      <point x="839" y="348" type="line" smooth="yes"/>
      <point x="831" y="303"/>
      <point x="851" y="285"/>
      <point x="946" y="285" type="curve" smooth="yes"/>
      <point x="1041" y="285"/>
      <point x="1081" y="303"/>
      <point x="1089" y="348" type="curve" smooth="yes"/>
      <point x="1165" y="780" type="line" smooth="yes"/>
      <point x="1173" y="826"/>
      <point x="1157" y="845"/>
      <point x="1111" y="845" type="curve" smooth="yes"/>
      <point x="261" y="845" type="line" smooth="yes"/>
      <point x="216" y="845"/>
      <point x="195" y="828"/>
      <point x="180" y="738" type="curve" smooth="yes"/>
      <point x="164" y="648"/>
      <point x="179" y="630"/>
      <point x="224" y="630" type="curve" smooth="yes"/>
    </contour>
  </outline>
</glyph>
<glyph name="registered" format="1">
  <advance width="1228"/>
  <unicode hex="00AE"/>
  <outline>
    <contour>
      <point x="355" y="335" type="line"/>
      <point x="346" y="289"/>
      <point x="357" y="270"/>
      <point x="428" y="270" type="curve" smooth="yes"/>
      <point x="499" y="270"/>
      <point x="517" y="289"/>
      <point x="525" y="335" type="curve" smooth="yes"/>
      <point x="544" y="443" type="line"/>
      <point x="623" y="443" type="line"/>
      <point x="712" y="294" type="line" smooth="yes"/>
      <point x="734" y="258"/>
      <point x="755" y="253"/>
      <point x="816" y="288" type="curve" smooth="yes"/>
      <point x="877" y="323"/>
      <point x="884" y="350"/>
      <point x="860" y="385" type="curve" smooth="yes"/>
      <point x="795" y="478" type="line"/>
      <point x="905" y="527"/>
      <point x="958" y="610"/>
      <point x="958" y="706" type="curve" smooth="yes"/>
      <point x="958" y="828"/>
      <point x="882" y="917"/>
      <point x="736" y="917" type="curve" smooth="yes"/>
      <point x="520" y="917" type="line" smooth="yes"/>
      <point x="475" y="917"/>
      <point x="454" y="899"/>
      <point x="446" y="854" type="curve" smooth="yes"/>
    </contour>
    <contour>
      <point x="706" y="752" type="line" smooth="yes"/>
      <point x="754" y="752"/>
      <point x="779" y="727"/>
      <point x="779" y="689" type="curve" smooth="yes"/>
      <point x="779" y="653"/>
      <point x="755" y="598"/>
      <point x="670" y="598" type="curve" smooth="yes"/>
      <point x="571" y="598" type="line"/>
      <point x="598" y="752" type="line"/>
    </contour>
    <contour>
      <point x="337" y="131"/>
      <point x="206" y="282"/>
      <point x="206" y="495" type="curve" smooth="yes"/>
      <point x="206" y="775"/>
      <point x="414" y="1056"/>
      <point x="729" y="1056" type="curve" smooth="yes"/>
      <point x="957" y="1056"/>
      <point x="1088" y="908"/>
      <point x="1088" y="692" type="curve" smooth="yes"/>
      <point x="1088" y="412"/>
      <point x="881" y="131"/>
      <point x="566" y="131" type="curve" smooth="yes"/>
    </contour>
    <contour>
      <point x="970" y="-22"/>
      <point x="1239" y="335"/>
      <point x="1239" y="694" type="curve" smooth="yes"/>
      <point x="1239" y="990"/>
      <point x="1044" y="1209"/>
      <point x="742" y="1209" type="curve" smooth="yes"/>
      <point x="325" y="1209"/>
      <point x="55" y="852"/>
      <point x="55" y="493" type="curve" smooth="yes"/>
      <point x="55" y="200"/>
      <point x="250" y="-22"/>
      <point x="553" y="-22" type="curve" smooth="yes"/>
    </contour>
  </outline>
</glyph>
<glyph name="degree" format="1">
  <advance width="1228"/>
  <unicode hex="00B0"/>
  <outline>
    <contour>
      <point x="787" y="565"/>
      <point x="953" y="743"/>
      <point x="953" y="930" type="curve" smooth="yes"/>
      <point x="953" y="1084"/>
      <point x="834" y="1209"/>
      <point x="675" y="1209" type="curve" smooth="yes"/>
      <point x="458" y="1209"/>
      <point x="303" y="1020"/>
      <point x="303" y="844" type="curve" smooth="yes"/>
      <point x="303" y="690"/>
      <point x="422" y="565"/>
      <point x="581" y="565" type="curve" smooth="yes"/>
    </contour>
    <contour>
      <point x="554" y="776"/>
      <point x="515" y="816"/>
      <point x="515" y="867" type="curve" smooth="yes"/>
      <point x="515" y="937"/>
      <point x="580" y="998"/>
      <point x="647" y="998" type="curve" smooth="yes"/>
      <point x="701" y="998"/>
      <point x="741" y="958"/>
      <point x="741" y="906" type="curve" smooth="yes"/>
      <point x="741" y="837"/>
      <point x="675" y="776"/>
      <point x="608" y="776" type="curve" smooth="yes"/>
    </contour>
  </outline>
</glyph>
<glyph name="twosuperior" format="1">
  <advance width="1228"/>
  <unicode hex="00B2"/>
  <outline>
    <contour>
      <point x="623" y="1135" type="line"/>
      <point x="665" y="1152"/>
      <point x="715" y="1161"/>
      <point x="759" y="1161" type="curve" smooth="yes"/>
      <point x="824" y="1161"/>
      <point x="859" y="1124"/>
      <point x="859" y="1072" type="curve" smooth="yes"/>
      <point x="859" y="1053"/>
      <point x="854" y="1033"/>
      <point x="845" y="1017" type="curve" smooth="yes"/>
      <point x="829" y="988"/>
      <point x="799" y="961"/>
      <point x="724" y="908" type="curve" smooth="yes"/>
      <point x="377" y="665" type="line" smooth="yes"/>
      <point x="356" y="650"/>
      <point x="338" y="623"/>
      <point x="331" y="583" type="curve" smooth="yes"/>
      <point x="319" y="513"/>
      <point x="335" y="483"/>
      <point x="367" y="483" type="curve" smooth="yes"/>
      <point x="962" y="483" type="line" smooth="yes"/>
      <point x="995" y="483"/>
      <point x="1010" y="496"/>
      <point x="1016" y="529" type="curve" smooth="yes"/>
      <point x="1046" y="699" type="line" smooth="yes"/>
      <point x="1051" y="731"/>
      <point x="1025" y="747"/>
      <point x="955" y="747" type="curve" smooth="yes"/>
      <point x="885" y="747"/>
      <point x="866" y="731"/>
      <point x="861" y="699" type="curve" smooth="yes"/>
      <point x="853" y="653" type="line"/>
      <point x="635" y="653" type="line"/>
      <point x="839" y="794" type="line" smooth="yes"/>
      <point x="929" y="856"/>
      <point x="998" y="909"/>
      <point x="1030" y="968" type="curve" smooth="yes"/>
      <point x="1053" y="1011"/>
      <point x="1063" y="1049"/>
      <point x="1063" y="1094" type="curve" smooth="yes"/>
      <point x="1063" y="1232"/>
      <point x="968" y="1334"/>
      <point x="796" y="1334" type="curve" smooth="yes"/>
      <point x="696" y="1334"/>
      <point x="589" y="1314"/>
      <point x="493" y="1270" type="curve" smooth="yes"/>
      <point x="471" y="1260"/>
      <point x="457" y="1245"/>
      <point x="454" y="1225" type="curve" smooth="yes"/>
      <point x="422" y="1047" type="line" smooth="yes"/>
      <point x="416" y="1015"/>
      <point x="443" y="999"/>
      <point x="513" y="999" type="curve" smooth="yes"/>
      <point x="583" y="999"/>
      <point x="601" y="1015"/>
      <point x="607" y="1047" type="curve" smooth="yes"/>
    </contour>
  </outline>
</glyph>
<glyph name="paragraph" format="1">
  <advance width="1228"/>
  <unicode hex="00B6"/>
  <outline>
    <contour>
      <point x="658" y="1187" type="line" smooth="yes"/>
      <point x="328" y="1187"/>
      <point x="170" y="980"/>
      <point x="170" y="751" type="curve" smooth="yes"/>
      <point x="170" y="585"/>
      <point x="269" y="467"/>
      <point x="436" y="440" type="curve"/>
      <point x="297" y="-347" type="line" smooth="yes"/>
      <point x="289" y="-392"/>
      <point x="309" y="-410"/>
      <point x="384" y="-410" type="curve" smooth="yes"/>
      <point x="459" y="-410"/>
      <point x="499" y="-392"/>
      <point x="507" y="-347" type="curve" smooth="yes"/>
      <point x="742" y="982" type="line"/>
      <point x="902" y="982" type="line"/>
      <point x="667" y="-347" type="line" smooth="yes"/>
      <point x="659" y="-392"/>
      <point x="679" y="-410"/>
      <point x="754" y="-410" type="curve" smooth="yes"/>
      <point x="829" y="-410"/>
      <point x="869" y="-392"/>
      <point x="877" y="-347" type="curve" smooth="yes"/>
      <point x="1112" y="982" type="line"/>
      <point x="1178" y="982" type="line" smooth="yes"/>
      <point x="1223" y="982"/>
      <point x="1244" y="999"/>
      <point x="1259" y="1084" type="curve" smooth="yes"/>
      <point x="1274" y="1169"/>
      <point x="1259" y="1187"/>
      <point x="1214" y="1187" type="curve" smooth="yes"/>
    </contour>
  </outline>
</glyph>
<glyph name="periodcentered" format="1">
  <advance width="1228"/>
  <unicode hex="00B7"/>
  <outline>
    <contour>
      <point x="551" y="794"/>
      <point x="438" y="694"/>
      <point x="438" y="561" type="curve" smooth="yes"/>
      <point x="438" y="461"/>
      <point x="514" y="378"/>
      <point x="621" y="378" type="curve" smooth="yes"/>
      <point x="745" y="378"/>
      <point x="856" y="479"/>
      <point x="856" y="612" type="curve" smooth="yes"/>
      <point x="856" y="712"/>
      <point x="780" y="794"/>
      <point x="674" y="794" type="curve" smooth="yes"/>
    </contour>
  </outline>
</glyph>
<glyph name="onesuperior" format="1">
  <advance width="1228"/>
  <unicode hex="00B9"/>
  <outline>
    <contour>
      <point x="838" y="1334"/>
      <point x="827" y="1332"/>
      <point x="817" y="1329" type="curve" smooth="yes"/>
      <point x="472" y="1219" type="line" smooth="yes"/>
      <point x="427" y="1205"/>
      <point x="413" y="1172"/>
      <point x="428" y="1117" type="curve" smooth="yes"/>
      <point x="445" y="1053"/>
      <point x="471" y="1046"/>
      <point x="509" y="1058" type="curve" smooth="yes"/>
      <point x="667" y="1108" type="line"/>
      <point x="587" y="653" type="line"/>
      <point x="409" y="653" type="line" smooth="yes"/>
      <point x="372" y="653"/>
      <point x="353" y="627"/>
      <point x="343" y="568" type="curve" smooth="yes"/>
      <point x="332" y="508"/>
      <point x="341" y="483"/>
      <point x="379" y="483" type="curve" smooth="yes"/>
      <point x="943" y="483" type="line" smooth="yes"/>
      <point x="980" y="483"/>
      <point x="999" y="508"/>
      <point x="1010" y="568" type="curve" smooth="yes"/>
      <point x="1020" y="627"/>
      <point x="1010" y="653"/>
      <point x="973" y="653" type="curve" smooth="yes"/>
      <point x="782" y="653" type="line"/>
      <point x="891" y="1275" type="line" smooth="yes"/>
      <point x="899" y="1317"/>
      <point x="877" y="1334"/>
      <point x="847" y="1334" type="curve" smooth="yes"/>
    </contour>
  </outline>
</glyph>
<glyph name="ordmasculine" format="1">
  <advance width="1228"/>
  <unicode hex="00BA"/>
  <outline>
    <contour>
      <point x="442" y="1209"/>
      <point x="298" y="982"/>
      <point x="298" y="780" type="curve" smooth="yes"/>
      <point x="298" y="600"/>
      <point x="423" y="465"/>
      <point x="634" y="465" type="curve" smooth="yes"/>
      <point x="949" y="465"/>
      <point x="1085" y="701"/>
      <point x="1085" y="894" type="curve" smooth="yes"/>
      <point x="1085" y="1074"/>
      <point x="959" y="1209"/>
      <point x="749" y="1209" type="curve" smooth="yes"/>
    </contour>
    <contour>
      <point x="822" y="1035"/>
      <point x="879" y="976"/>
      <point x="879" y="883" type="curve" smooth="yes"/>
      <point x="879" y="759"/>
      <point x="797" y="640"/>
      <point x="657" y="640" type="curve" smooth="yes"/>
      <point x="561" y="640"/>
      <point x="503" y="697"/>
      <point x="503" y="790" type="curve" smooth="yes"/>
      <point x="503" y="915"/>
      <point x="586" y="1035"/>
      <point x="726" y="1035" type="curve" smooth="yes"/>
    </contour>
  </outline>
</glyph>
<glyph name="guillemetright" format="1">
  <advance width="1228"/>
  <unicode hex="00BB"/>
  <outline>
    <contour>
      <point x="218" y="880"/>
      <point x="197" y="841"/>
      <point x="221" y="802" type="curve" smooth="yes"/>
      <point x="379" y="548" type="line"/>
      <point x="131" y="296" type="line" smooth="yes"/>
      <point x="99" y="264"/>
      <point x="111" y="220"/>
      <point x="169" y="171" type="curve" smooth="yes"/>
      <point x="229" y="120"/>
      <point x="271" y="109"/>
      <point x="298" y="137" type="curve" smooth="yes"/>
      <point x="638" y="496" type="line" smooth="yes"/>
      <point x="652" y="510"/>
      <point x="653" y="529"/>
      <point x="643" y="546" type="curve" smooth="yes"/>
      <point x="418" y="923" type="line" smooth="yes"/>
      <point x="398" y="956"/>
      <point x="354" y="955"/>
      <point x="285" y="917" type="curve" smooth="yes"/>
    </contour>
    <contour>
      <point x="718" y="880"/>
      <point x="697" y="839"/>
      <point x="721" y="802" type="curve" smooth="yes"/>
      <point x="899" y="528" type="line"/>
      <point x="671" y="296" type="line" smooth="yes"/>
      <point x="639" y="264"/>
      <point x="651" y="220"/>
      <point x="709" y="171" type="curve" smooth="yes"/>
      <point x="769" y="120"/>
      <point x="811" y="109"/>
      <point x="838" y="137" type="curve" smooth="yes"/>
      <point x="1158" y="476" type="line" smooth="yes"/>
      <point x="1172" y="490"/>
      <point x="1173" y="509"/>
      <point x="1163" y="526" type="curve" smooth="yes"/>
      <point x="918" y="923" type="line" smooth="yes"/>
      <point x="898" y="956"/>
      <point x="854" y="955"/>
      <point x="785" y="917" type="curve" smooth="yes"/>
    </contour>
  </outline>
</glyph>
<glyph name="guillemotright" format="1">
  <advance width="1228"/>
  <unicode hex="00BB"/>
  <outline>
    <contour>
      <point x="831" y="565" type="line"/>
      <point x="620" y="296" type="line" smooth="yes"/>
      <point x="590" y="258"/>
      <point x="624" y="209"/>
      <point x="671" y="179" type="curve" smooth="yes"/>
      <point x="718" y="150"/>
      <point x="778" y="140"/>
      <point x="806" y="176" type="curve" smooth="yes"/>
      <point x="1076" y="520" type="line" smooth="yes"/>
      <point x="1089" y="536"/>
      <point x="1092" y="555"/>
      <point x="1085" y="571" type="curve" smooth="yes"/>
      <point x="937" y="915" type="line" smooth="yes"/>
      <point x="921" y="952"/>
      <point x="857" y="951"/>
      <point x="801" y="931" type="curve" smooth="yes"/>
      <point x="746" y="911"/>
      <point x="699" y="873"/>
      <point x="715" y="835" type="curve" smooth="yes"/>
    </contour>
    <contour>
      <point x="391" y="565" type="line"/>
      <point x="180" y="296" type="line" smooth="yes"/>
      <point x="150" y="258"/>
      <point x="184" y="209"/>
      <point x="231" y="179" type="curve" smooth="yes"/>
      <point x="278" y="150"/>
      <point x="338" y="140"/>
      <point x="366" y="176" type="curve" smooth="yes"/>
      <point x="636" y="520" type="line" smooth="yes"/>
      <point x="649" y="536"/>
      <point x="652" y="555"/>
      <point x="645" y="571" type="curve" smooth="yes"/>
      <point x="497" y="915" type="line" smooth="yes"/>
      <point x="481" y="952"/>
      <point x="417" y="951"/>
      <point x="361" y="931" type="curve" smooth="yes"/>
      <point x="306" y="911"/>
      <point x="259" y="873"/>
      <point x="275" y="835" type="curve" smooth="yes"/>
    </contour>
  </outline>
</glyph>
<glyph name="onequarter" format="1">
  <advance width="1228"/>
  <unicode hex="00BC"/>
  <outline>
    <contour>
      <point x="473" y="1394"/>
      <point x="464" y="1392"/>
      <point x="455" y="1389" type="curve" smooth="yes"/>
      <point x="167" y="1298" type="line" smooth="yes"/>
      <point x="130" y="1286"/>
      <point x="118" y="1258"/>
      <point x="130" y="1213" type="curve" smooth="yes"/>
      <point x="145" y="1159"/>
      <point x="166" y="1153"/>
      <point x="198" y="1163" type="curve" smooth="yes"/>
      <point x="330" y="1205" type="line"/>
      <point x="263" y="826" type="line"/>
      <point x="115" y="826" type="line" smooth="yes"/>
      <point x="84" y="826"/>
      <point x="68" y="804"/>
      <point x="59" y="755" type="curve" smooth="yes"/>
      <point x="50" y="705"/>
      <point x="58" y="684"/>
      <point x="89" y="684" type="curve" smooth="yes"/>
      <point x="560" y="684" type="line" smooth="yes"/>
      <point x="591" y="684"/>
      <point x="607" y="705"/>
      <point x="616" y="755" type="curve" smooth="yes"/>
      <point x="625" y="804"/>
      <point x="616" y="826"/>
      <point x="585" y="826" type="curve" smooth="yes"/>
      <point x="426" y="826" type="line"/>
      <point x="517" y="1344" type="line" smooth="yes"/>
      <point x="524" y="1379"/>
      <point x="505" y="1394"/>
      <point x="480" y="1394" type="curve" smooth="yes"/>
    </contour>
    <contour>
      <point x="91" y="319" type="line" smooth="yes"/>
      <point x="61" y="303"/>
      <point x="58" y="276"/>
      <point x="80" y="230" type="curve" smooth="yes"/>
      <point x="102" y="184"/>
      <point x="124" y="178"/>
      <point x="149" y="190" type="curve" smooth="yes"/>
      <point x="1178" y="711" type="line" smooth="yes"/>
      <point x="1208" y="727"/>
      <point x="1211" y="754"/>
      <point x="1189" y="800" type="curve" smooth="yes"/>
      <point x="1167" y="846"/>
      <point x="1145" y="852"/>
      <point x="1120" y="840" type="curve" smooth="yes"/>
    </contour>
    <contour>
      <point x="1013" y="503"/>
      <point x="977" y="490"/>
      <point x="955" y="466" type="curve" smooth="yes"/>
      <point x="574" y="83" type="line" smooth="yes"/>
      <point x="557" y="66"/>
      <point x="550" y="51"/>
      <point x="550" y="30" type="curve" smooth="yes"/>
      <point x="550" y="-17"/>
      <point x="570" y="-63"/>
      <point x="597" y="-63" type="curve" smooth="yes"/>
      <point x="888" y="-63" type="line"/>
      <point x="867" y="-184" type="line" smooth="yes"/>
      <point x="862" y="-210"/>
      <point x="885" y="-224"/>
      <point x="951" y="-224" type="curve" smooth="yes"/>
      <point x="1010" y="-224"/>
      <point x="1027" y="-210"/>
      <point x="1032" y="-184" type="curve" smooth="yes"/>
      <point x="1054" y="-63" type="line"/>
      <point x="1128" y="-63" type="line" smooth="yes"/>
      <point x="1159" y="-63"/>
      <point x="1176" y="-42"/>
      <point x="1185" y="8" type="curve" smooth="yes"/>
      <point x="1193" y="57"/>
      <point x="1185" y="79"/>
      <point x="1154" y="79" type="curve" smooth="yes"/>
      <point x="1078" y="79" type="line"/>
      <point x="1145" y="457" type="line" smooth="yes"/>
      <point x="1150" y="484"/>
      <point x="1122" y="503"/>
      <point x="1061" y="503" type="curve" smooth="yes"/>
    </contour>
    <contour>
      <point x="913" y="79" type="line"/>
      <point x="763" y="79" type="line"/>
      <point x="965" y="291" type="line"/>
    </contour>
  </outline>
</glyph>
<glyph name="questiondown" format="1">
  <advance width="1228"/>
  <unicode hex="00BF"/>
  <outline>
    <contour>
      <point x="632" y="768"/>
      <point x="608" y="751"/>
      <point x="599" y="720" type="curve" smooth="yes"/>
      <point x="576" y="639" type="line"/>
      <point x="414" y="598"/>
      <point x="308" y="546"/>
      <point x="250" y="438" type="curve" smooth="yes"/>
      <point x="222" y="386"/>
      <point x="208" y="320"/>
      <point x="208" y="260" type="curve" smooth="yes"/>
      <point x="208" y="89"/>
      <point x="335" y="-22"/>
      <point x="573" y="-22" type="curve" smooth="yes"/>
      <point x="686" y="-22"/>
      <point x="803" y="7"/>
      <point x="918" y="56" type="curve" smooth="yes"/>
      <point x="947" y="68"/>
      <point x="965" y="90"/>
      <point x="970" y="117" type="curve" smooth="yes"/>
      <point x="1007" y="327" type="line" smooth="yes"/>
      <point x="1015" y="372"/>
      <point x="981" y="390"/>
      <point x="896" y="390" type="curve" smooth="yes"/>
      <point x="811" y="390"/>
      <point x="785" y="372"/>
      <point x="777" y="327" type="curve" smooth="yes"/>
      <point x="759" y="225" type="line"/>
      <point x="709" y="207"/>
      <point x="655" y="195"/>
      <point x="601" y="195" type="curve" smooth="yes"/>
      <point x="509" y="195"/>
      <point x="464" y="229"/>
      <point x="464" y="291" type="curve" smooth="yes"/>
      <point x="464" y="316"/>
      <point x="470" y="340"/>
      <point x="479" y="358" type="curve" smooth="yes"/>
      <point x="502" y="404"/>
      <point x="550" y="430"/>
      <point x="630" y="443" type="curve" smooth="yes"/>
      <point x="743" y="461" type="line" smooth="yes"/>
      <point x="769" y="465"/>
      <point x="780" y="486"/>
      <point x="782" y="512" type="curve" smooth="yes"/>
      <point x="801" y="720" type="line" smooth="yes"/>
      <point x="804" y="751"/>
      <point x="786" y="768"/>
      <point x="709" y="768" type="curve" smooth="yes"/>
    </contour>
    <contour>
      <point x="662" y="1209"/>
      <point x="570" y="1126"/>
      <point x="570" y="1016" type="curve" smooth="yes"/>
      <point x="570" y="934"/>
      <point x="633" y="866"/>
      <point x="720" y="866" type="curve" smooth="yes"/>
      <point x="822" y="866"/>
      <point x="915" y="949"/>
      <point x="915" y="1058" type="curve" smooth="yes"/>
      <point x="915" y="1141"/>
      <point x="852" y="1209"/>
      <point x="764" y="1209" type="curve" smooth="yes"/>
    </contour>
  </outline>
</glyph>
<glyph name="Ccedilla" format="1">
  <advance width="1228"/>
  <unicode hex="00C7"/>
  <outline>
    <contour>
      <point x="1003" y="1078" type="line"/>
      <point x="965" y="1155"/>
      <point x="881" y="1209"/>
      <point x="757" y="1209" type="curve" smooth="yes"/>
      <point x="591" y="1209"/>
      <point x="441" y="1143"/>
      <point x="328" y="1020" type="curve" smooth="yes"/>
      <point x="196" y="877"/>
      <point x="128" y="661"/>
      <point x="128" y="471" type="curve" smooth="yes"/>
      <point x="128" y="216"/>
      <point x="261" y="39"/>
      <point x="476" y="-9" type="curve"/>
      <point x="447" y="-180" type="line" smooth="yes"/>
      <point x="441" y="-215"/>
      <point x="461" y="-224"/>
      <point x="479" y="-221" type="curve" smooth="yes"/>
      <point x="545" y="-209"/>
      <point x="597" y="-215"/>
      <point x="597" y="-258" type="curve" smooth="yes"/>
      <point x="597" y="-291"/>
      <point x="576" y="-322"/>
      <point x="501" y="-322" type="curve" smooth="yes"/>
      <point x="434" y="-322"/>
      <point x="392" y="-308"/>
      <point x="344" y="-288" type="curve" smooth="yes"/>
      <point x="318" y="-277"/>
      <point x="292" y="-308"/>
      <point x="275" y="-346" type="curve" smooth="yes"/>
      <point x="257" y="-386"/>
      <point x="253" y="-420"/>
      <point x="279" y="-431" type="curve" smooth="yes"/>
      <point x="344" y="-458"/>
      <point x="431" y="-472"/>
      <point x="527" y="-472" type="curve" smooth="yes"/>
      <point x="651" y="-472"/>
      <point x="736" y="-445"/>
      <point x="784" y="-389" type="curve" smooth="yes"/>
      <point x="819" y="-350"/>
      <point x="832" y="-292"/>
      <point x="832" y="-250" type="curve" smooth="yes"/>
      <point x="832" y="-156"/>
      <point x="769" y="-89"/>
      <point x="637" y="-93" type="curve"/>
      <point x="649" y="-20" type="line"/>
      <point x="777" y="-13"/>
      <point x="911" y="23"/>
      <point x="1045" y="84" type="curve" smooth="yes"/>
      <point x="1092" y="105"/>
      <point x="1105" y="145"/>
      <point x="1082" y="225" type="curve" smooth="yes"/>
      <point x="1060" y="302"/>
      <point x="1026" y="322"/>
      <point x="982" y="302" type="curve" smooth="yes"/>
      <point x="856" y="243"/>
      <point x="753" y="205"/>
      <point x="630" y="205" type="curve" smooth="yes"/>
      <point x="476" y="205"/>
      <point x="394" y="302"/>
      <point x="394" y="475" type="curve" smooth="yes"/>
      <point x="394" y="596"/>
      <point x="431" y="749"/>
      <point x="500" y="847" type="curve" smooth="yes"/>
      <point x="562" y="935"/>
      <point x="648" y="982"/>
      <point x="757" y="982" type="curve" smooth="yes"/>
      <point x="895" y="982"/>
      <point x="951" y="891"/>
      <point x="928" y="762" type="curve" smooth="yes"/>
      <point x="920" y="717"/>
      <point x="940" y="699"/>
      <point x="1035" y="699" type="curve" smooth="yes"/>
      <point x="1130" y="699"/>
      <point x="1170" y="717"/>
      <point x="1178" y="762" type="curve" smooth="yes"/>
      <point x="1246" y="1146" type="line" smooth="yes"/>
      <point x="1254" y="1191"/>
      <point x="1234" y="1209"/>
      <point x="1149" y="1209" type="curve" smooth="yes"/>
      <point x="1064" y="1209"/>
      <point x="1025" y="1191"/>
      <point x="1016" y="1146" type="curve" smooth="yes"/>
    </contour>
  </outline>
</glyph>
<glyph name="multiply" format="1">
  <advance width="1228"/>
  <unicode hex="00D7"/>
  <outline>
    <contour>
      <point x="247" y="395" type="line" smooth="yes"/>
      <point x="213" y="366"/>
      <point x="210" y="340"/>
      <point x="271" y="267" type="curve" smooth="yes"/>
      <point x="332" y="195"/>
      <point x="357" y="193"/>
      <point x="391" y="222" type="curve" smooth="yes"/>
      <point x="630" y="424" type="line"/>
      <point x="802" y="218" type="line" smooth="yes"/>
      <point x="831" y="183"/>
      <point x="856" y="180"/>
      <point x="929" y="241" type="curve" smooth="yes"/>
      <point x="1001" y="302"/>
      <point x="1004" y="327"/>
      <point x="975" y="362" type="curve" smooth="yes"/>
      <point x="802" y="569" type="line"/>
      <point x="1040" y="770" type="line" smooth="yes"/>
      <point x="1075" y="799"/>
      <point x="1078" y="824"/>
      <point x="1017" y="897" type="curve" smooth="yes"/>
      <point x="956" y="969"/>
      <point x="931" y="972"/>
      <point x="896" y="943" type="curve" smooth="yes"/>
      <point x="658" y="742" type="line"/>
      <point x="487" y="947" type="line" smooth="yes"/>
      <point x="458" y="981"/>
      <point x="432" y="984"/>
      <point x="359" y="923" type="curve" smooth="yes"/>
      <point x="287" y="862"/>
      <point x="285" y="837"/>
      <point x="314" y="803" type="curve" smooth="yes"/>
      <point x="486" y="597" type="line"/>
    </contour>
  </outline>
</glyph>
<glyph name="Oslash" format="1">
  <advance width="1228"/>
  <unicode hex="00D8"/>
  <outline>
    <contour>
      <point x="772" y="-22"/>
      <point x="947" y="67"/>
      <point x="1062" y="231" type="curve" smooth="yes"/>
      <point x="1159" y="369"/>
      <point x="1209" y="558"/>
      <point x="1209" y="716" type="curve" smooth="yes"/>
      <point x="1209" y="833"/>
      <point x="1181" y="933"/>
      <point x="1129" y="1013" type="curve"/>
      <point x="1182" y="1073" type="line" smooth="yes"/>
      <point x="1214" y="1110"/>
      <point x="1214" y="1135"/>
      <point x="1160" y="1178" type="curve" smooth="yes"/>
      <point x="1106" y="1221"/>
      <point x="1081" y="1216"/>
      <point x="1049" y="1180" type="curve" smooth="yes"/>
      <point x="1009" y="1134" type="line"/>
      <point x="935" y="1182"/>
      <point x="843" y="1209"/>
      <point x="737" y="1209" type="curve" smooth="yes"/>
      <point x="525" y="1209"/>
      <point x="350" y="1120"/>
      <point x="235" y="956" type="curve" smooth="yes"/>
      <point x="138" y="818"/>
      <point x="88" y="629"/>
      <point x="88" y="471" type="curve" smooth="yes"/>
      <point x="88" y="354"/>
      <point x="116" y="253"/>
      <point x="167" y="174" type="curve"/>
      <point x="115" y="114" type="line" smooth="yes"/>
      <point x="83" y="77"/>
      <point x="83" y="52"/>
      <point x="137" y="9" type="curve" smooth="yes"/>
      <point x="191" y="-34"/>
      <point x="216" y="-30"/>
      <point x="249" y="7" type="curve" smooth="yes"/>
      <point x="288" y="52" type="line"/>
      <point x="362" y="4"/>
      <point x="454" y="-22"/>
      <point x="560" y="-22" type="curve" smooth="yes"/>
    </contour>
    <contour>
      <point x="353" y="591"/>
      <point x="390" y="748"/>
      <point x="462" y="849" type="curve" smooth="yes"/>
      <point x="524" y="935"/>
      <point x="609" y="982"/>
      <point x="717" y="982" type="curve" smooth="yes"/>
      <point x="769" y="982"/>
      <point x="813" y="971"/>
      <point x="847" y="949" type="curve"/>
      <point x="359" y="392" type="line"/>
      <point x="355" y="415"/>
      <point x="353" y="440"/>
      <point x="353" y="467" type="curve" smooth="yes"/>
    </contour>
    <contour>
      <point x="528" y="205"/>
      <point x="484" y="216"/>
      <point x="450" y="237" type="curve"/>
      <point x="938" y="794" type="line"/>
      <point x="942" y="771"/>
      <point x="944" y="746"/>
      <point x="944" y="720" type="curve" smooth="yes"/>
      <point x="944" y="596"/>
      <point x="907" y="439"/>
      <point x="835" y="338" type="curve" smooth="yes"/>
      <point x="773" y="252"/>
      <point x="688" y="205"/>
      <point x="580" y="205" type="curve" smooth="yes"/>
    </contour>
  </outline>
</glyph>
<glyph name="germandbls" format="1">
  <advance width="1228"/>
  <unicode hex="00DF"/>
  <outline>
    <contour>
      <point x="500" y="1317"/>
      <point x="329" y="1144"/>
      <point x="282" y="877" type="curve" smooth="yes"/>
      <point x="139" y="63" type="line" smooth="yes"/>
      <point x="131" y="18"/>
      <point x="146" y="0"/>
      <point x="191" y="0" type="curve" smooth="yes"/>
      <point x="315" y="0" type="line" smooth="yes"/>
      <point x="360" y="0"/>
      <point x="381" y="18"/>
      <point x="389" y="63" type="curve" smooth="yes"/>
      <point x="532" y="874" type="line" smooth="yes"/>
      <point x="556" y="1015"/>
      <point x="629" y="1090"/>
      <point x="737" y="1090" type="curve" smooth="yes"/>
      <point x="832" y="1090"/>
      <point x="871" y="1041"/>
      <point x="871" y="973" type="curve" smooth="yes"/>
      <point x="871" y="892"/>
      <point x="831" y="784"/>
      <point x="698" y="774" type="curve" smooth="yes"/>
      <point x="652" y="771"/>
      <point x="630" y="746"/>
      <point x="615" y="661" type="curve" smooth="yes"/>
      <point x="600" y="576"/>
      <point x="613" y="549"/>
      <point x="658" y="549" type="curve" smooth="yes"/>
      <point x="758" y="549"/>
      <point x="813" y="504"/>
      <point x="813" y="422" type="curve" smooth="yes"/>
      <point x="813" y="374"/>
      <point x="795" y="315"/>
      <point x="764" y="277" type="curve" smooth="yes"/>
      <point x="726" y="229"/>
      <point x="666" y="205"/>
      <point x="585" y="205" type="curve" smooth="yes"/>
      <point x="540" y="205"/>
      <point x="519" y="176"/>
      <point x="513" y="91" type="curve" smooth="yes"/>
      <point x="507" y="6"/>
      <point x="524" y="-22"/>
      <point x="575" y="-22" type="curve" smooth="yes"/>
      <point x="727" y="-22"/>
      <point x="858" y="17"/>
      <point x="948" y="104" type="curve" smooth="yes"/>
      <point x="1034" y="186"/>
      <point x="1076" y="312"/>
      <point x="1076" y="418" type="curve" smooth="yes"/>
      <point x="1076" y="536"/>
      <point x="1019" y="625"/>
      <point x="912" y="668" type="curve"/>
      <point x="1056" y="738"/>
      <point x="1120" y="852"/>
      <point x="1120" y="1002" type="curve" smooth="yes"/>
      <point x="1120" y="1182"/>
      <point x="997" y="1317"/>
      <point x="765" y="1317" type="curve" smooth="yes"/>
    </contour>
  </outline>
</glyph>
<glyph name="ae" format="1">
  <advance width="1228"/>
  <unicode hex="00E6"/>
  <outline>
    <contour>
      <point x="841" y="946"/>
      <point x="758" y="910"/>
      <point x="694" y="852" type="curve"/>
      <point x="653" y="911"/>
      <point x="582" y="946"/>
      <point x="469" y="946" type="curve" smooth="yes"/>
      <point x="372" y="946"/>
      <point x="263" y="916"/>
      <point x="162" y="862" type="curve" smooth="yes"/>
      <point x="125" y="842"/>
      <point x="112" y="803"/>
      <point x="137" y="740" type="curve" smooth="yes"/>
      <point x="167" y="663"/>
      <point x="197" y="649"/>
      <point x="236" y="667" type="curve" smooth="yes"/>
      <point x="297" y="696"/>
      <point x="359" y="719"/>
      <point x="421" y="719" type="curve" smooth="yes"/>
      <point x="506" y="719"/>
      <point x="545" y="684"/>
      <point x="545" y="620" type="curve" smooth="yes"/>
      <point x="545" y="608"/>
      <point x="543" y="594"/>
      <point x="542" y="588" type="curve" smooth="yes"/>
      <point x="541" y="582" type="line"/>
      <point x="507" y="586"/>
      <point x="473" y="588"/>
      <point x="442" y="588" type="curve" smooth="yes"/>
      <point x="169" y="588"/>
      <point x="6" y="451"/>
      <point x="6" y="221" type="curve" smooth="yes"/>
      <point x="6" y="72"/>
      <point x="112" y="-22"/>
      <point x="271" y="-22" type="curve" smooth="yes"/>
      <point x="384" y="-22"/>
      <point x="492" y="18"/>
      <point x="570" y="102" type="curve"/>
      <point x="609" y="24"/>
      <point x="679" y="-22"/>
      <point x="789" y="-22" type="curve" smooth="yes"/>
      <point x="896" y="-22"/>
      <point x="996" y="10"/>
      <point x="1093" y="49" type="curve" smooth="yes"/>
      <point x="1143" y="69"/>
      <point x="1154" y="99"/>
      <point x="1132" y="179" type="curve" smooth="yes"/>
      <point x="1110" y="259"/>
      <point x="1086" y="273"/>
      <point x="1040" y="255" type="curve" smooth="yes"/>
      <point x="960" y="224"/>
      <point x="899" y="205"/>
      <point x="824" y="205" type="curve" smooth="yes"/>
      <point x="756" y="205"/>
      <point x="717" y="249"/>
      <point x="717" y="332" type="curve" smooth="yes"/>
      <point x="717" y="346"/>
      <point x="718" y="361"/>
      <point x="719" y="370" type="curve"/>
      <point x="1125" y="370" type="line" smooth="yes"/>
      <point x="1170" y="370"/>
      <point x="1191" y="387"/>
      <point x="1199" y="432" type="curve" smooth="yes"/>
      <point x="1210" y="497"/>
      <point x="1217" y="558"/>
      <point x="1217" y="614" type="curve" smooth="yes"/>
      <point x="1217" y="813"/>
      <point x="1138" y="946"/>
      <point x="934" y="946" type="curve" smooth="yes"/>
    </contour>
    <contour>
      <point x="502" y="358" type="line" smooth="yes"/>
      <point x="485" y="261"/>
      <point x="416" y="189"/>
      <point x="321" y="189" type="curve" smooth="yes"/>
      <point x="265" y="189"/>
      <point x="238" y="216"/>
      <point x="238" y="260" type="curve" smooth="yes"/>
      <point x="238" y="355"/>
      <point x="307" y="393"/>
      <point x="438" y="393" type="curve" smooth="yes"/>
      <point x="459" y="393"/>
      <point x="482" y="392"/>
      <point x="507" y="390" type="curve"/>
    </contour>
    <contour>
      <point x="972" y="719"/>
      <point x="1000" y="677"/>
      <point x="1000" y="605" type="curve" smooth="yes"/>
      <point x="1000" y="592"/>
      <point x="999" y="579"/>
      <point x="997" y="565" type="curve"/>
      <point x="753" y="565" type="line"/>
      <point x="785" y="669"/>
      <point x="833" y="719"/>
      <point x="914" y="719" type="curve" smooth="yes"/>
    </contour>
  </outline>
</glyph>
<glyph name="eth" format="1">
  <advance width="1228"/>
  <unicode hex="00F0"/>
  <outline>
    <contour>
      <point x="498" y="1067" type="line" smooth="yes"/>
      <point x="454" y="1046"/>
      <point x="443" y="1024"/>
      <point x="472" y="960" type="curve" smooth="yes"/>
      <point x="501" y="896"/>
      <point x="523" y="887"/>
      <point x="567" y="908" type="curve" smooth="yes"/>
      <point x="730" y="987" type="line"/>
      <point x="778" y="937"/>
      <point x="821" y="879"/>
      <point x="852" y="811" type="curve"/>
      <point x="798" y="847"/>
      <point x="731" y="866"/>
      <point x="656" y="866" type="curve" smooth="yes"/>
      <point x="273" y="866"/>
      <point x="122" y="572"/>
      <point x="122" y="359" type="curve" smooth="yes"/>
      <point x="122" y="140"/>
      <point x="284" y="-22"/>
      <point x="550" y="-22" type="curve" smooth="yes"/>
      <point x="849" y="-22"/>
      <point x="1060" y="142"/>
      <point x="1113" y="442" type="curve" smooth="yes"/>
      <point x="1123" y="500"/>
      <point x="1129" y="557"/>
      <point x="1129" y="613" type="curve" smooth="yes"/>
      <point x="1129" y="794"/>
      <point x="1074" y="961"/>
      <point x="964" y="1101" type="curve"/>
      <point x="1071" y="1153" type="line" smooth="yes"/>
      <point x="1114" y="1174"/>
      <point x="1120" y="1197"/>
      <point x="1091" y="1259" type="curve" smooth="yes"/>
      <point x="1061" y="1322"/>
      <point x="1046" y="1333"/>
      <point x="1002" y="1312" type="curve" smooth="yes"/>
      <point x="836" y="1231" type="line"/>
      <point x="789" y="1271"/>
      <point x="735" y="1307"/>
      <point x="676" y="1340" type="curve" smooth="yes"/>
      <point x="637" y="1361"/>
      <point x="604" y="1350"/>
      <point x="540" y="1277" type="curve" smooth="yes"/>
      <point x="481" y="1209"/>
      <point x="476" y="1170"/>
      <point x="514" y="1149" type="curve" smooth="yes"/>
      <point x="536" y="1136"/>
      <point x="560" y="1123"/>
      <point x="582" y="1108" type="curve"/>
    </contour>
    <contour>
      <point x="774" y="639"/>
      <point x="846" y="577"/>
      <point x="846" y="470" type="curve" smooth="yes"/>
      <point x="846" y="339"/>
      <point x="758" y="205"/>
      <point x="580" y="205" type="curve" smooth="yes"/>
      <point x="461" y="205"/>
      <point x="390" y="268"/>
      <point x="390" y="375" type="curve" smooth="yes"/>
      <point x="390" y="495"/>
      <point x="470" y="639"/>
      <point x="656" y="639" type="curve" smooth="yes"/>
    </contour>
  </outline>
</glyph>
<glyph name="divide" format="1">
  <advance width="1228"/>
  <unicode hex="00F7"/>
  <outline>
    <contour>
      <point x="285" y="695" type="line" smooth="yes"/>
      <point x="240" y="695"/>
      <point x="219" y="677"/>
      <point x="202" y="582" type="curve" smooth="yes"/>
      <point x="185" y="487"/>
      <point x="200" y="470"/>
      <point x="245" y="470" type="curve" smooth="yes"/>
      <point x="1007" y="470" type="line" smooth="yes"/>
      <point x="1052" y="470"/>
      <point x="1073" y="487"/>
      <point x="1090" y="582" type="curve" smooth="yes"/>
      <point x="1107" y="677"/>
      <point x="1092" y="695"/>
      <point x="1047" y="695" type="curve" smooth="yes"/>
    </contour>
    <contour>
      <point x="651" y="79"/>
      <point x="729" y="149"/>
      <point x="729" y="242" type="curve" smooth="yes"/>
      <point x="729" y="311"/>
      <point x="676" y="369"/>
      <point x="602" y="369" type="curve" smooth="yes"/>
      <point x="516" y="369"/>
      <point x="437" y="299"/>
      <point x="437" y="206" type="curve" smooth="yes"/>
      <point x="437" y="137"/>
      <point x="490" y="79"/>
      <point x="565" y="79" type="curve" smooth="yes"/>
    </contour>
    <contour>
      <point x="777" y="796"/>
      <point x="855" y="866"/>
      <point x="855" y="959" type="curve" smooth="yes"/>
      <point x="855" y="1028"/>
      <point x="802" y="1086"/>
      <point x="728" y="1086" type="curve" smooth="yes"/>
      <point x="642" y="1086"/>
      <point x="563" y="1016"/>
      <point x="563" y="923" type="curve" smooth="yes"/>
      <point x="563" y="854"/>
      <point x="616" y="796"/>
      <point x="691" y="796" type="curve" smooth="yes"/>
    </contour>
  </outline>
</glyph>
<glyph name="oslash" format="1">
  <advance width="1228"/>
  <unicode hex="00F8"/>
  <outline>
    <contour>
      <point x="300" y="946"/>
      <point x="113" y="650"/>
      <point x="113" y="388" type="curve" smooth="yes"/>
      <point x="113" y="308"/>
      <point x="131" y="236"/>
      <point x="167" y="174" type="curve"/>
      <point x="116" y="130" type="line" smooth="yes"/>
      <point x="80" y="98"/>
      <point x="75" y="72"/>
      <point x="120" y="20" type="curve" smooth="yes"/>
      <point x="165" y="-32"/>
      <point x="191" y="-32"/>
      <point x="228" y="1" type="curve" smooth="yes"/>
      <point x="284" y="50" type="line"/>
      <point x="354" y="4"/>
      <point x="443" y="-22"/>
      <point x="550" y="-22" type="curve" smooth="yes"/>
      <point x="960" y="-22"/>
      <point x="1136" y="285"/>
      <point x="1136" y="536" type="curve" smooth="yes"/>
      <point x="1136" y="615"/>
      <point x="1117" y="687"/>
      <point x="1082" y="748" type="curve"/>
      <point x="1134" y="794" type="line" smooth="yes"/>
      <point x="1170" y="826"/>
      <point x="1175" y="852"/>
      <point x="1130" y="904" type="curve" smooth="yes"/>
      <point x="1085" y="956"/>
      <point x="1059" y="956"/>
      <point x="1022" y="923" type="curve" smooth="yes"/>
      <point x="965" y="873" type="line"/>
      <point x="895" y="919"/>
      <point x="806" y="946"/>
      <point x="700" y="946" type="curve" smooth="yes"/>
    </contour>
    <contour>
      <point x="868" y="548"/>
      <point x="869" y="535"/>
      <point x="869" y="522" type="curve" smooth="yes"/>
      <point x="869" y="360"/>
      <point x="762" y="205"/>
      <point x="580" y="205" type="curve" smooth="yes"/>
      <point x="543" y="205"/>
      <point x="510" y="211"/>
      <point x="482" y="224" type="curve"/>
      <point x="866" y="560" type="line"/>
    </contour>
    <contour>
      <point x="707" y="719"/>
      <point x="739" y="712"/>
      <point x="767" y="700" type="curve"/>
      <point x="382" y="363" type="line"/>
      <point x="380" y="375"/>
      <point x="380" y="388"/>
      <point x="380" y="401" type="curve" smooth="yes"/>
      <point x="380" y="563"/>
      <point x="487" y="719"/>
      <point x="670" y="719" type="curve" smooth="yes"/>
    </contour>
  </outline>
</glyph>
<glyph name="thorn" format="1">
  <advance width="1228"/>
  <unicode hex="00FE"/>
  <outline>
    <contour>
      <point x="271" y="1312" type="line" smooth="yes"/>
      <point x="226" y="1312"/>
      <point x="205" y="1294"/>
      <point x="190" y="1209" type="curve" smooth="yes"/>
      <point x="175" y="1124"/>
      <point x="190" y="1107"/>
      <point x="235" y="1107" type="curve" smooth="yes"/>
      <point x="322" y="1107" type="line"/>
      <point x="94" y="-183" type="line"/>
      <point x="7" y="-183" type="line" smooth="yes"/>
      <point x="-38" y="-183"/>
      <point x="-59" y="-201"/>
      <point x="-73" y="-286" type="curve" smooth="yes"/>
      <point x="-88" y="-371"/>
      <point x="-73" y="-388"/>
      <point x="-29" y="-388" type="curve" smooth="yes"/>
      <point x="555" y="-388" type="line" smooth="yes"/>
      <point x="600" y="-388"/>
      <point x="621" y="-371"/>
      <point x="636" y="-286" type="curve" smooth="yes"/>
      <point x="651" y="-201"/>
      <point x="636" y="-183"/>
      <point x="591" y="-183" type="curve" smooth="yes"/>
      <point x="344" y="-183" type="line"/>
      <point x="400" y="133" type="line"/>
      <point x="454" y="60"/>
      <point x="541" y="8"/>
      <point x="651" y="8" type="curve" smooth="yes"/>
      <point x="993" y="8"/>
      <point x="1160" y="302"/>
      <point x="1160" y="559" type="curve" smooth="yes"/>
      <point x="1160" y="780"/>
      <point x="1026" y="946"/>
      <point x="796" y="946" type="curve" smooth="yes"/>
      <point x="699" y="946"/>
      <point x="604" y="907"/>
      <point x="524" y="835" type="curve"/>
      <point x="597" y="1249" type="line" smooth="yes"/>
      <point x="605" y="1294"/>
      <point x="590" y="1312"/>
      <point x="545" y="1312" type="curve" smooth="yes"/>
    </contour>
    <contour>
      <point x="830" y="719"/>
      <point x="893" y="657"/>
      <point x="893" y="542" type="curve" smooth="yes"/>
      <point x="893" y="403"/>
      <point x="814" y="235"/>
      <point x="641" y="235" type="curve" smooth="yes"/>
      <point x="532" y="235"/>
      <point x="449" y="296"/>
      <point x="449" y="420" type="curve" smooth="yes"/>
      <point x="449" y="564"/>
      <point x="542" y="719"/>
      <point x="726" y="719" type="curve" smooth="yes"/>
    </contour>
  </outline>
</glyph>
<glyph name="aogonek" format="1">
  <advance width="1228"/>
  <unicode hex="0105"/>
  <outline>
    <contour>
      <point x="248" y="946"/>
      <point x="83" y="632"/>
      <point x="83" y="380" type="curve" smooth="yes"/>
      <point x="83" y="156"/>
      <point x="220" y="-22"/>
      <point x="454" y="-22" type="curve" smooth="yes"/>
      <point x="570" y="-22"/>
      <point x="687" y="25"/>
      <point x="785" y="127" type="curve"/>
      <point x="794" y="69"/>
      <point x="825" y="34"/>
      <point x="866" y="16" type="curve"/>
      <point x="720" y="-64"/>
      <point x="605" y="-164"/>
      <point x="605" y="-300" type="curve" smooth="yes"/>
      <point x="605" y="-408"/>
      <point x="688" y="-472"/>
      <point x="827" y="-472" type="curve" smooth="yes"/>
      <point x="906" y="-472"/>
      <point x="998" y="-457"/>
      <point x="1064" y="-436" type="curve" smooth="yes"/>
      <point x="1094" y="-427"/>
      <point x="1110" y="-400"/>
      <point x="1104" y="-350" type="curve" smooth="yes"/>
      <point x="1098" y="-302"/>
      <point x="1079" y="-280"/>
      <point x="1052" y="-285" type="curve" smooth="yes"/>
      <point x="1012" y="-292"/>
      <point x="972" y="-298"/>
      <point x="933" y="-298" type="curve" smooth="yes"/>
      <point x="884" y="-298"/>
      <point x="855" y="-280"/>
      <point x="855" y="-235" type="curve" smooth="yes"/>
      <point x="855" y="-166"/>
      <point x="941" y="-84"/>
      <point x="1056" y="0" type="curve"/>
      <point x="1094" y="3"/>
      <point x="1112" y="24"/>
      <point x="1126" y="102" type="curve" smooth="yes"/>
      <point x="1141" y="187"/>
      <point x="1127" y="205"/>
      <point x="1082" y="205" type="curve" smooth="yes"/>
      <point x="1053" y="205" type="line" smooth="yes"/>
      <point x="1010" y="205"/>
      <point x="992" y="237"/>
      <point x="1002" y="290" type="curve"/>
      <point x="1104" y="871" type="line" smooth="yes"/>
      <point x="1112" y="916"/>
      <point x="1092" y="934"/>
      <point x="1017" y="934" type="curve" smooth="yes"/>
      <point x="942" y="934"/>
      <point x="902" y="916"/>
      <point x="894" y="871" type="curve" smooth="yes"/>
      <point x="878" y="777" type="line"/>
      <point x="828" y="882"/>
      <point x="722" y="946"/>
      <point x="594" y="946" type="curve" smooth="yes"/>
    </contour>
    <contour>
      <point x="713" y="719"/>
      <point x="795" y="650"/>
      <point x="795" y="522" type="curve" smooth="yes"/>
      <point x="795" y="375"/>
      <point x="694" y="205"/>
      <point x="514" y="205" type="curve" smooth="yes"/>
      <point x="409" y="205"/>
      <point x="349" y="276"/>
      <point x="349" y="391" type="curve" smooth="yes"/>
      <point x="349" y="520"/>
      <point x="422" y="719"/>
      <point x="604" y="719" type="curve" smooth="yes"/>
    </contour>
  </outline>
</glyph>
<glyph name="dcaron" format="1">
  <advance width="1228"/>
  <unicode hex="010F"/>
  <outline>
    <contour>
      <point x="665" y="1312" type="line" smooth="yes"/>
      <point x="620" y="1312"/>
      <point x="599" y="1294"/>
      <point x="584" y="1209" type="curve" smooth="yes"/>
      <point x="569" y="1124"/>
      <point x="584" y="1107"/>
      <point x="629" y="1107" type="curve" smooth="yes"/>
      <point x="796" y="1107" type="line"/>
      <point x="742" y="801" type="line"/>
      <point x="698" y="874"/>
      <point x="634" y="916"/>
      <point x="539" y="916" type="curve" smooth="yes"/>
      <point x="221" y="916"/>
      <point x="78" y="596"/>
      <point x="78" y="347" type="curve" smooth="yes"/>
      <point x="78" y="135"/>
      <point x="186" y="-22"/>
      <point x="384" y="-22" type="curve" smooth="yes"/>
      <point x="502" y="-22"/>
      <point x="587" y="34"/>
      <point x="664" y="132" type="curve"/>
      <point x="652" y="63" type="line" smooth="yes"/>
      <point x="644" y="18"/>
      <point x="659" y="0"/>
      <point x="704" y="0" type="curve" smooth="yes"/>
      <point x="938" y="0" type="line" smooth="yes"/>
      <point x="983" y="0"/>
      <point x="1004" y="18"/>
      <point x="1019" y="103" type="curve" smooth="yes"/>
      <point x="1034" y="188"/>
      <point x="1019" y="205"/>
      <point x="974" y="205" type="curve" smooth="yes"/>
      <point x="887" y="205" type="line"/>
      <point x="1071" y="1249" type="line" smooth="yes"/>
      <point x="1079" y="1294"/>
      <point x="1064" y="1312"/>
      <point x="1019" y="1312" type="curve" smooth="yes"/>
    </contour>
    <contour>
      <point x="636" y="689"/>
      <point x="693" y="634"/>
      <point x="693" y="522" type="curve" smooth="yes"/>
      <point x="693" y="390"/>
      <point x="627" y="205"/>
      <point x="464" y="205" type="curve" smooth="yes"/>
      <point x="390" y="205"/>
      <point x="345" y="262"/>
      <point x="345" y="366" type="curve" smooth="yes"/>
      <point x="345" y="493"/>
      <point x="408" y="689"/>
      <point x="549" y="689" type="curve" smooth="yes"/>
    </contour>
    <component base="caron.alt" xOffset="815"/>
  </outline>
</glyph>
<glyph name="dcroat" format="1">
  <advance width="1228"/>
  <unicode hex="0111"/>
  <outline>
    <contour>
      <point x="257" y="916"/>
      <point x="90" y="622"/>
      <point x="90" y="365" type="curve" smooth="yes"/>
      <point x="90" y="144"/>
      <point x="224" y="-22"/>
      <point x="454" y="-22" type="curve" smooth="yes"/>
      <point x="582" y="-22"/>
      <point x="691" y="34"/>
      <point x="773" y="127" type="curve"/>
      <point x="762" y="63" type="line" smooth="yes"/>
      <point x="754" y="18"/>
      <point x="769" y="0"/>
      <point x="814" y="0" type="curve" smooth="yes"/>
      <point x="1048" y="0" type="line" smooth="yes"/>
      <point x="1093" y="0"/>
      <point x="1114" y="18"/>
      <point x="1129" y="103" type="curve" smooth="yes"/>
      <point x="1144" y="188"/>
      <point x="1129" y="205"/>
      <point x="1084" y="205" type="curve" smooth="yes"/>
      <point x="997" y="205" type="line"/>
      <point x="1134" y="982" type="line"/>
      <point x="1238" y="982" type="line" smooth="yes"/>
      <point x="1283" y="982"/>
      <point x="1304" y="999"/>
      <point x="1319" y="1084" type="curve" smooth="yes"/>
      <point x="1334" y="1169"/>
      <point x="1319" y="1187"/>
      <point x="1274" y="1187" type="curve" smooth="yes"/>
      <point x="1170" y="1187" type="line"/>
      <point x="1181" y="1249" type="line" smooth="yes"/>
      <point x="1189" y="1294"/>
      <point x="1174" y="1312"/>
      <point x="1129" y="1312" type="curve" smooth="yes"/>
      <point x="1005" y="1312" type="line" smooth="yes"/>
      <point x="960" y="1312"/>
      <point x="939" y="1294"/>
      <point x="931" y="1249" type="curve" smooth="yes"/>
      <point x="920" y="1187" type="line"/>
      <point x="712" y="1187" type="line" smooth="yes"/>
      <point x="667" y="1187"/>
      <point x="646" y="1169"/>
      <point x="631" y="1084" type="curve" smooth="yes"/>
      <point x="616" y="999"/>
      <point x="631" y="982"/>
      <point x="676" y="982" type="curve" smooth="yes"/>
      <point x="884" y="982" type="line"/>
      <point x="851" y="796" type="line"/>
      <point x="797" y="869"/>
      <point x="704" y="916"/>
      <point x="599" y="916" type="curve" smooth="yes"/>
    </contour>
    <contour>
      <point x="420" y="205"/>
      <point x="357" y="267"/>
      <point x="357" y="382" type="curve" smooth="yes"/>
      <point x="357" y="521"/>
      <point x="436" y="689"/>
      <point x="609" y="689" type="curve" smooth="yes"/>
      <point x="718" y="689"/>
      <point x="801" y="628"/>
      <point x="801" y="504" type="curve" smooth="yes"/>
      <point x="801" y="360"/>
      <point x="708" y="205"/>
      <point x="524" y="205" type="curve" smooth="yes"/>
    </contour>
  </outline>
</glyph>
<glyph name="Eogonek" format="1">
  <advance width="1228"/>
  <unicode hex="0118"/>
  <outline>
    <contour>
      <point x="820" y="-472"/>
      <point x="912" y="-457"/>
      <point x="978" y="-436" type="curve" smooth="yes"/>
      <point x="1008" y="-427"/>
      <point x="1024" y="-400"/>
      <point x="1018" y="-350" type="curve" smooth="yes"/>
      <point x="1012" y="-302"/>
      <point x="993" y="-280"/>
      <point x="966" y="-285" type="curve" smooth="yes"/>
      <point x="926" y="-292"/>
      <point x="886" y="-298"/>
      <point x="847" y="-298" type="curve" smooth="yes"/>
      <point x="798" y="-298"/>
      <point x="769" y="-280"/>
      <point x="769" y="-235" type="curve" smooth="yes"/>
      <point x="769" y="-166"/>
      <point x="855" y="-85"/>
      <point x="970" y="0" type="curve"/>
      <point x="985" y="0" type="line" smooth="yes"/>
      <point x="1031" y="0"/>
      <point x="1053" y="19"/>
      <point x="1061" y="65" type="curve" smooth="yes"/>
      <point x="1123" y="417" type="line" smooth="yes"/>
      <point x="1131" y="462"/>
      <point x="1110" y="480"/>
      <point x="1020" y="480" type="curve" smooth="yes"/>
      <point x="930" y="480"/>
      <point x="891" y="462"/>
      <point x="883" y="417" type="curve" smooth="yes"/>
      <point x="847" y="215" type="line"/>
      <point x="437" y="215" type="line"/>
      <point x="488" y="504" type="line"/>
      <point x="732" y="504" type="line" smooth="yes"/>
      <point x="777" y="504"/>
      <point x="799" y="526"/>
      <point x="814" y="611" type="curve" smooth="yes"/>
      <point x="829" y="696"/>
      <point x="815" y="719"/>
      <point x="770" y="719" type="curve" smooth="yes"/>
      <point x="526" y="719" type="line"/>
      <point x="571" y="972" type="line"/>
      <point x="971" y="972" type="line"/>
      <point x="944" y="820" type="line" smooth="yes"/>
      <point x="936" y="775"/>
      <point x="956" y="757"/>
      <point x="1041" y="757" type="curve" smooth="yes"/>
      <point x="1126" y="757"/>
      <point x="1166" y="775"/>
      <point x="1174" y="820" type="curve" smooth="yes"/>
      <point x="1227" y="1122" type="line" smooth="yes"/>
      <point x="1235" y="1168"/>
      <point x="1220" y="1187"/>
      <point x="1174" y="1187" type="curve" smooth="yes"/>
      <point x="262" y="1187" type="line" smooth="yes"/>
      <point x="217" y="1187"/>
      <point x="196" y="1169"/>
      <point x="181" y="1084" type="curve" smooth="yes"/>
      <point x="166" y="999"/>
      <point x="181" y="982"/>
      <point x="226" y="982" type="curve" smooth="yes"/>
      <point x="323" y="982" type="line"/>
      <point x="186" y="205" type="line"/>
      <point x="89" y="205" type="line" smooth="yes"/>
      <point x="44" y="205"/>
      <point x="22" y="187"/>
      <point x="7" y="102" type="curve" smooth="yes"/>
      <point x="-8" y="17"/>
      <point x="8" y="0"/>
      <point x="53" y="0" type="curve" smooth="yes"/>
      <point x="751" y="0" type="line"/>
      <point x="619" y="-77"/>
      <point x="519" y="-173"/>
      <point x="519" y="-300" type="curve" smooth="yes"/>
      <point x="519" y="-408"/>
      <point x="602" y="-472"/>
      <point x="741" y="-472" type="curve" smooth="yes"/>
    </contour>
  </outline>
</glyph>
<glyph name="eogonek" format="1">
  <advance width="1228"/>
  <unicode hex="0119"/>
  <outline>
    <contour>
      <point x="348" y="946"/>
      <point x="137" y="686"/>
      <point x="137" y="379" type="curve" smooth="yes"/>
      <point x="137" y="149"/>
      <point x="283" y="-22"/>
      <point x="544" y="-22" type="curve" smooth="yes"/>
      <point x="589" y="-22"/>
      <point x="635" y="-19"/>
      <point x="681" y="-14" type="curve"/>
      <point x="561" y="-89"/>
      <point x="473" y="-180"/>
      <point x="473" y="-300" type="curve" smooth="yes"/>
      <point x="473" y="-408"/>
      <point x="556" y="-472"/>
      <point x="695" y="-472" type="curve" smooth="yes"/>
      <point x="774" y="-472"/>
      <point x="866" y="-457"/>
      <point x="932" y="-436" type="curve" smooth="yes"/>
      <point x="962" y="-427"/>
      <point x="978" y="-400"/>
      <point x="972" y="-350" type="curve" smooth="yes"/>
      <point x="966" y="-302"/>
      <point x="947" y="-280"/>
      <point x="920" y="-285" type="curve" smooth="yes"/>
      <point x="880" y="-292"/>
      <point x="840" y="-298"/>
      <point x="801" y="-298" type="curve" smooth="yes"/>
      <point x="752" y="-298"/>
      <point x="723" y="-280"/>
      <point x="723" y="-235" type="curve" smooth="yes"/>
      <point x="723" y="-167"/>
      <point x="806" y="-88"/>
      <point x="919" y="-4" type="curve" smooth="yes"/>
      <point x="978" y="40"/>
      <point x="995" y="52"/>
      <point x="1005" y="57" type="curve" smooth="yes"/>
      <point x="1039" y="75"/>
      <point x="1047" y="106"/>
      <point x="1033" y="176" type="curve" smooth="yes"/>
      <point x="1017" y="257"/>
      <point x="995" y="273"/>
      <point x="949" y="260" type="curve" smooth="yes"/>
      <point x="810" y="220"/>
      <point x="692" y="205"/>
      <point x="584" y="205" type="curve" smooth="yes"/>
      <point x="439" y="205"/>
      <point x="371" y="291"/>
      <point x="399" y="459" type="curve" smooth="yes"/>
      <point x="428" y="633"/>
      <point x="527" y="719"/>
      <point x="688" y="719" type="curve" smooth="yes"/>
      <point x="796" y="719"/>
      <point x="839" y="672"/>
      <point x="839" y="624" type="curve" smooth="yes"/>
      <point x="839" y="590"/>
      <point x="821" y="557"/>
      <point x="761" y="551" type="curve" smooth="yes"/>
      <point x="322" y="507" type="line"/>
      <point x="289" y="318" type="line"/>
      <point x="852" y="374" type="line" smooth="yes"/>
      <point x="1023" y="391"/>
      <point x="1103" y="485"/>
      <point x="1103" y="634" type="curve" smooth="yes"/>
      <point x="1103" y="817"/>
      <point x="949" y="946"/>
      <point x="714" y="946" type="curve" smooth="yes"/>
    </contour>
  </outline>
</glyph>
<glyph name="Hbar" format="1">
  <advance width="1228"/>
  <unicode hex="0126"/>
  <outline>
    <contour>
      <point x="136" y="205" type="line"/>
      <point x="79" y="205" type="line" smooth="yes"/>
      <point x="34" y="205"/>
      <point x="12" y="187"/>
      <point x="-3" y="102" type="curve" smooth="yes"/>
      <point x="-18" y="17"/>
      <point x="-2" y="0"/>
      <point x="43" y="0" type="curve" smooth="yes"/>
      <point x="417" y="0" type="line" smooth="yes"/>
      <point x="462" y="0"/>
      <point x="482" y="17"/>
      <point x="497" y="102" type="curve" smooth="yes"/>
      <point x="512" y="187"/>
      <point x="498" y="205"/>
      <point x="453" y="205" type="curve" smooth="yes"/>
      <point x="386" y="205" type="line"/>
      <point x="431" y="464" type="line"/>
      <point x="819" y="464" type="line"/>
      <point x="774" y="205" type="line"/>
      <point x="707" y="205" type="line" smooth="yes"/>
      <point x="662" y="205"/>
      <point x="640" y="187"/>
      <point x="625" y="102" type="curve" smooth="yes"/>
      <point x="610" y="17"/>
      <point x="626" y="0"/>
      <point x="671" y="0" type="curve" smooth="yes"/>
      <point x="1045" y="0" type="line" smooth="yes"/>
      <point x="1090" y="0"/>
      <point x="1110" y="17"/>
      <point x="1125" y="102" type="curve" smooth="yes"/>
      <point x="1140" y="187"/>
      <point x="1126" y="205"/>
      <point x="1081" y="205" type="curve" smooth="yes"/>
      <point x="1024" y="205" type="line"/>
      <point x="1123" y="768" type="line"/>
      <point x="1200" y="768" type="line" smooth="yes"/>
      <point x="1245" y="768"/>
      <point x="1266" y="786"/>
      <point x="1275" y="836" type="curve" smooth="yes"/>
      <point x="1284" y="886"/>
      <point x="1269" y="904"/>
      <point x="1224" y="904" type="curve" smooth="yes"/>
      <point x="1147" y="904" type="line"/>
      <point x="1161" y="982" type="line"/>
      <point x="1218" y="982" type="line" smooth="yes"/>
      <point x="1263" y="982"/>
      <point x="1284" y="999"/>
      <point x="1299" y="1084" type="curve" smooth="yes"/>
      <point x="1314" y="1169"/>
      <point x="1299" y="1187"/>
      <point x="1254" y="1187" type="curve" smooth="yes"/>
      <point x="880" y="1187" type="line" smooth="yes"/>
      <point x="835" y="1187"/>
      <point x="814" y="1169"/>
      <point x="799" y="1084" type="curve" smooth="yes"/>
      <point x="784" y="999"/>
      <point x="799" y="982"/>
      <point x="844" y="982" type="curve" smooth="yes"/>
      <point x="911" y="982" type="line"/>
      <point x="897" y="904" type="line"/>
      <point x="509" y="904" type="line"/>
      <point x="523" y="982" type="line"/>
      <point x="590" y="982" type="line" smooth="yes"/>
      <point x="635" y="982"/>
      <point x="656" y="999"/>
      <point x="671" y="1084" type="curve" smooth="yes"/>
      <point x="686" y="1169"/>
      <point x="671" y="1187"/>
      <point x="626" y="1187" type="curve" smooth="yes"/>
      <point x="252" y="1187" type="line" smooth="yes"/>
      <point x="207" y="1187"/>
      <point x="186" y="1169"/>
      <point x="171" y="1084" type="curve" smooth="yes"/>
      <point x="156" y="999"/>
      <point x="171" y="982"/>
      <point x="216" y="982" type="curve" smooth="yes"/>
      <point x="273" y="982" type="line"/>
      <point x="259" y="904" type="line"/>
      <point x="182" y="904" type="line" smooth="yes"/>
      <point x="137" y="904"/>
      <point x="116" y="886"/>
      <point x="107" y="836" type="curve" smooth="yes"/>
      <point x="98" y="786"/>
      <point x="113" y="768"/>
      <point x="158" y="768" type="curve" smooth="yes"/>
      <point x="235" y="768" type="line"/>
    </contour>
    <contour>
      <point x="469" y="679" type="line"/>
      <point x="485" y="768" type="line"/>
      <point x="873" y="768" type="line"/>
      <point x="857" y="679" type="line"/>
    </contour>
  </outline>
</glyph>
<glyph name="hbar" format="1">
  <advance width="1228"/>
  <unicode hex="0127"/>
  <outline>
    <contour>
      <point x="431" y="1312" type="line" smooth="yes"/>
      <point x="386" y="1312"/>
      <point x="365" y="1294"/>
      <point x="357" y="1249" type="curve" smooth="yes"/>
      <point x="340" y="1155" type="line"/>
      <point x="226" y="1155" type="line" smooth="yes"/>
      <point x="181" y="1155"/>
      <point x="160" y="1137"/>
      <point x="145" y="1052" type="curve" smooth="yes"/>
      <point x="130" y="967"/>
      <point x="145" y="950"/>
      <point x="190" y="950" type="curve" smooth="yes"/>
      <point x="304" y="950" type="line"/>
      <point x="148" y="63" type="line" smooth="yes"/>
      <point x="140" y="18"/>
      <point x="155" y="0"/>
      <point x="200" y="0" type="curve" smooth="yes"/>
      <point x="324" y="0" type="line" smooth="yes"/>
      <point x="369" y="0"/>
      <point x="390" y="18"/>
      <point x="398" y="63" type="curve" smooth="yes"/>
      <point x="431" y="258" type="line" smooth="yes"/>
      <point x="463" y="446"/>
      <point x="605" y="639"/>
      <point x="724" y="639" type="curve" smooth="yes"/>
      <point x="793" y="639"/>
      <point x="819" y="602"/>
      <point x="819" y="539" type="curve" smooth="yes"/>
      <point x="819" y="521"/>
      <point x="817" y="502"/>
      <point x="813" y="481" type="curve" smooth="yes"/>
      <point x="740" y="63" type="line" smooth="yes"/>
      <point x="732" y="18"/>
      <point x="747" y="0"/>
      <point x="792" y="0" type="curve" smooth="yes"/>
      <point x="1056" y="0" type="line" smooth="yes"/>
      <point x="1101" y="0"/>
      <point x="1121" y="17"/>
      <point x="1136" y="102" type="curve" smooth="yes"/>
      <point x="1151" y="187"/>
      <point x="1137" y="205"/>
      <point x="1092" y="205" type="curve" smooth="yes"/>
      <point x="1015" y="205" type="line"/>
      <point x="1070" y="520" type="line" smooth="yes"/>
      <point x="1074" y="545"/>
      <point x="1077" y="572"/>
      <point x="1077" y="596" type="curve" smooth="yes"/>
      <point x="1077" y="756"/>
      <point x="979" y="866"/>
      <point x="819" y="866" type="curve" smooth="yes"/>
      <point x="712" y="866"/>
      <point x="610" y="811"/>
      <point x="509" y="694" type="curve"/>
      <point x="554" y="950" type="line"/>
      <point x="752" y="950" type="line" smooth="yes"/>
      <point x="797" y="950"/>
      <point x="818" y="967"/>
      <point x="833" y="1052" type="curve" smooth="yes"/>
      <point x="848" y="1137"/>
      <point x="833" y="1155"/>
      <point x="788" y="1155" type="curve" smooth="yes"/>
      <point x="590" y="1155" type="line"/>
      <point x="607" y="1249" type="line" smooth="yes"/>
      <point x="615" y="1294"/>
      <point x="600" y="1312"/>
      <point x="555" y="1312" type="curve" smooth="yes"/>
    </contour>
  </outline>
</glyph>
<glyph name="Iogonek" format="1">
  <advance width="1228"/>
  <unicode hex="012E"/>
  <outline>
    <contour>
      <point x="372" y="1187" type="line" smooth="yes"/>
      <point x="327" y="1187"/>
      <point x="306" y="1169"/>
      <point x="291" y="1084" type="curve" smooth="yes"/>
      <point x="276" y="999"/>
      <point x="291" y="982"/>
      <point x="336" y="982" type="curve" smooth="yes"/>
      <point x="592" y="982" type="line"/>
      <point x="455" y="205" type="line"/>
      <point x="219" y="205" type="line" smooth="yes"/>
      <point x="174" y="205"/>
      <point x="152" y="187"/>
      <point x="137" y="102" type="curve" smooth="yes"/>
      <point x="122" y="17"/>
      <point x="138" y="0"/>
      <point x="183" y="0" type="curve" smooth="yes"/>
      <point x="441" y="0" type="line"/>
      <point x="309" y="-77"/>
      <point x="209" y="-173"/>
      <point x="209" y="-300" type="curve" smooth="yes"/>
      <point x="209" y="-408"/>
      <point x="292" y="-472"/>
      <point x="431" y="-472" type="curve" smooth="yes"/>
      <point x="510" y="-472"/>
      <point x="602" y="-457"/>
      <point x="668" y="-436" type="curve" smooth="yes"/>
      <point x="698" y="-427"/>
      <point x="714" y="-400"/>
      <point x="708" y="-350" type="curve" smooth="yes"/>
      <point x="702" y="-302"/>
      <point x="683" y="-280"/>
      <point x="656" y="-285" type="curve" smooth="yes"/>
      <point x="616" y="-292"/>
      <point x="576" y="-298"/>
      <point x="537" y="-298" type="curve" smooth="yes"/>
      <point x="488" y="-298"/>
      <point x="459" y="-280"/>
      <point x="459" y="-235" type="curve" smooth="yes"/>
      <point x="459" y="-166"/>
      <point x="545" y="-85"/>
      <point x="660" y="0" type="curve"/>
      <point x="925" y="0" type="line" smooth="yes"/>
      <point x="970" y="0"/>
      <point x="990" y="17"/>
      <point x="1005" y="102" type="curve" smooth="yes"/>
      <point x="1020" y="187"/>
      <point x="1006" y="205"/>
      <point x="961" y="205" type="curve" smooth="yes"/>
      <point x="705" y="205" type="line"/>
      <point x="842" y="982" type="line"/>
      <point x="1078" y="982" type="line" smooth="yes"/>
      <point x="1123" y="982"/>
      <point x="1144" y="999"/>
      <point x="1159" y="1084" type="curve" smooth="yes"/>
      <point x="1174" y="1169"/>
      <point x="1159" y="1187"/>
      <point x="1114" y="1187" type="curve" smooth="yes"/>
    </contour>
  </outline>
</glyph>
<glyph name="iogonek" format="1">
  <advance width="1228"/>
  <unicode hex="012F"/>
  <outline>
    <contour>
      <point x="499" y="719" type="line"/>
      <point x="438" y="368" type="line" smooth="yes"/>
      <point x="432" y="334"/>
      <point x="429" y="302"/>
      <point x="429" y="272" type="curve" smooth="yes"/>
      <point x="429" y="124"/>
      <point x="499" y="25"/>
      <point x="626" y="-9" type="curve"/>
      <point x="502" y="-84"/>
      <point x="409" y="-177"/>
      <point x="409" y="-300" type="curve" smooth="yes"/>
      <point x="409" y="-408"/>
      <point x="492" y="-472"/>
      <point x="631" y="-472" type="curve" smooth="yes"/>
      <point x="710" y="-472"/>
      <point x="802" y="-457"/>
      <point x="868" y="-436" type="curve" smooth="yes"/>
      <point x="898" y="-427"/>
      <point x="914" y="-400"/>
      <point x="908" y="-350" type="curve" smooth="yes"/>
      <point x="902" y="-302"/>
      <point x="883" y="-280"/>
      <point x="856" y="-285" type="curve" smooth="yes"/>
      <point x="816" y="-292"/>
      <point x="776" y="-298"/>
      <point x="737" y="-298" type="curve" smooth="yes"/>
      <point x="688" y="-298"/>
      <point x="659" y="-280"/>
      <point x="659" y="-235" type="curve" smooth="yes"/>
      <point x="659" y="-170"/>
      <point x="736" y="-93"/>
      <point x="842" y="-13" type="curve"/>
      <point x="913" y="-1"/>
      <point x="983" y="25"/>
      <point x="1070" y="74" type="curve" smooth="yes"/>
      <point x="1124" y="105"/>
      <point x="1117" y="146"/>
      <point x="1090" y="204" type="curve" smooth="yes"/>
      <point x="1060" y="269"/>
      <point x="1031" y="294"/>
      <point x="981" y="267" type="curve" smooth="yes"/>
      <point x="899" y="223"/>
      <point x="844" y="205"/>
      <point x="778" y="205" type="curve" smooth="yes"/>
      <point x="715" y="205"/>
      <point x="681" y="236"/>
      <point x="681" y="308" type="curve" smooth="yes"/>
      <point x="681" y="324"/>
      <point x="683" y="342"/>
      <point x="686" y="361" type="curve" smooth="yes"/>
      <point x="774" y="861" type="line" smooth="yes"/>
      <point x="782" y="906"/>
      <point x="767" y="924"/>
      <point x="722" y="924" type="curve" smooth="yes"/>
      <point x="342" y="924" type="line" smooth="yes"/>
      <point x="297" y="924"/>
      <point x="276" y="906"/>
      <point x="261" y="821" type="curve" smooth="yes"/>
      <point x="246" y="736"/>
      <point x="261" y="719"/>
      <point x="306" y="719" type="curve" smooth="yes"/>
    </contour>
    <contour>
      <point x="855" y="1320" type="line" smooth="yes"/>
      <point x="863" y="1365"/>
      <point x="833" y="1383"/>
      <point x="738" y="1383" type="curve" smooth="yes"/>
      <point x="643" y="1383"/>
      <point x="613" y="1365"/>
      <point x="605" y="1320" type="curve" smooth="yes"/>
      <point x="576" y="1156" type="line" smooth="yes"/>
      <point x="568" y="1111"/>
      <point x="597" y="1093"/>
      <point x="692" y="1093" type="curve" smooth="yes"/>
      <point x="787" y="1093"/>
      <point x="818" y="1111"/>
      <point x="826" y="1156" type="curve" smooth="yes"/>
    </contour>
  </outline>
</glyph>
